<svg width="12226" height="4721" viewBox="0 0 12226 4721" fill="none" xmlns="http://www.w3.org/2000/svg">
<path d="M503.218 1321C503.218 1321 0 1338.16 0 1950.08H503.218V1321Z" fill="white"/>
<path d="M1013.39 4714.16V4390.16H897V4346.8H1177.06V4390.16H1060.04V4714.16H1013.39Z" fill="white"/>
<path d="M1423.87 4714.16V4346.8H1470.6V4497.65H1654.32V4346.8H1700.97V4714.16H1654.32V4541.02H1470.6V4714.16H1423.87Z" fill="white"/>
<path d="M1977.33 4714.16V4346.8H2232.87V4390.16H2023.98V4502.62H2219.48V4545.83H2023.98V4670.87H2240.88V4714.16H1977.33Z" fill="white"/>
<path d="M3173.02 4714.16V4346.8H3428.55V4390.16H3219.99V4502.62H3415.33V4545.83H3219.99V4670.87H3436.81V4714.16H3173.02Z" fill="white"/>
<path d="M3662.84 4714.16L3799.5 4522.74L3679.11 4346.8H3734.82L3798.86 4440.98C3812.09 4460.62 3821.62 4475.61 3827.32 4486.11C3835.01 4472.8 3844.47 4458.77 3855.21 4444.35L3926.22 4346.8H3977.04L3853.05 4520.01L3986.82 4714.16H3928.96L3840.06 4583.18C3835.01 4575.57 3829.88 4567.47 3824.67 4558.65C3816.58 4571.96 3810.96 4581.17 3807.76 4586.23L3719.03 4714.16H3662.84Z" fill="white"/>
<path d="M4477.47 4585.37L4524.28 4597.64C4514.5 4637.56 4496.79 4668.1 4471.54 4688.94C4445.97 4710.1 4414.78 4720.45 4378.07 4720.45C4339.84 4720.45 4308.98 4712.35 4285.17 4696.32C4261.2 4680.12 4243.25 4656.88 4230.5 4626.18C4218.24 4595.64 4212.07 4562.77 4212.07 4527.75C4212.07 4489.51 4218.88 4456.08 4232.99 4427.63C4247.09 4399.17 4267.06 4377.53 4293.03 4362.78C4319 4348.03 4347.54 4340.49 4378.71 4340.49C4413.98 4340.49 4443.8 4349.87 4468 4368.63C4492.13 4387.31 4508.89 4413.61 4518.26 4447.51L4472.33 4458.81C4463.92 4432.2 4452.22 4412.56 4436.59 4400.37C4421.04 4388.27 4401.32 4382.1 4377.67 4382.1C4350.58 4382.1 4328.13 4388.91 4309.62 4402.38C4291.5 4415.93 4278.68 4434.2 4271.31 4457.05C4263.69 4479.89 4260.24 4503.29 4260.24 4527.5C4260.24 4558.77 4264.49 4586.02 4273.3 4609.42C4282.12 4632.67 4295.51 4650.07 4314.19 4661.61C4332.62 4673.15 4352.58 4678.93 4373.99 4678.93C4400.44 4678.93 4422.48 4671.06 4440.75 4655.36C4458.95 4639.64 4471.13 4616.24 4477.47 4585.37Z" fill="white"/>
<path d="M4787.27 4346.84H4834.24V4714.2H4787.27V4346.84Z" fill="white"/>
<path d="M5098.21 4596.22L5142.13 4592.3C5144.14 4610.58 5149.19 4625.64 5156.72 4637.43C5164.26 4649.21 5176.12 4658.75 5192.24 4665.97C5208.34 4673.26 5226.3 4676.87 5246.5 4676.87C5264.38 4676.87 5280.17 4674.14 5293.71 4668.53C5307.5 4663 5317.52 4655.54 5324.25 4645.84C5330.98 4636.39 5334.35 4625.96 5334.35 4614.5C5334.35 4602.96 5330.98 4592.86 5324.57 4584.2C5318.24 4575.71 5307.5 4568.41 5292.67 4562.56C5283.37 4558.79 5262.21 4552.86 5229.83 4544.69C5197.44 4536.59 5174.68 4528.97 5161.61 4521.76C5144.78 4512.55 5132.2 4501.08 5123.94 4487.53C5115.6 4473.91 5111.6 4458.68 5111.6 4441.84C5111.6 4423.25 5116.57 4405.94 5126.67 4389.82C5136.76 4373.71 5151.67 4361.44 5170.99 4353.03C5190.39 4344.7 5212.19 4340.52 5236 4340.52C5262.05 4340.52 5285.13 4344.94 5305.17 4353.67C5325.29 4362.41 5340.52 4375.39 5351.42 4392.46C5362.09 4409.54 5367.85 4428.86 5368.66 4450.35L5323.93 4453.95C5321.37 4430.62 5313.19 4413.07 5299.4 4401.2C5285.45 4389.26 5264.94 4383.49 5237.84 4383.49C5209.55 4383.49 5188.87 4388.78 5175.96 4399.6C5163.06 4410.42 5156.56 4423.41 5156.56 4438.48C5156.56 4451.79 5161.21 4462.6 5170.27 4471.18C5179.33 4479.6 5202.81 4488.42 5240.73 4497.39C5278.8 4506.13 5304.85 4513.99 5319.04 4520.72C5339.64 4530.65 5354.79 4543.09 5364.65 4558.15C5374.35 4573.3 5379.24 4590.7 5379.24 4610.5C5379.24 4629.97 5373.87 4648.41 5363.21 4665.72C5352.47 4682.95 5336.99 4696.43 5316.88 4706.05C5296.6 4715.67 5273.91 4720.48 5248.74 4720.48C5216.76 4720.48 5189.91 4715.67 5168.27 4705.96C5146.62 4696.34 5129.71 4681.67 5117.45 4662.28C5105.26 4642.8 5098.69 4620.76 5098.21 4596.22Z" fill="white"/>
<path d="M5641.57 4714.16V4346.8H5897.11V4390.16H5688.46V4502.62H5883.72V4545.83H5688.46V4670.87H5905.36V4714.16H5641.57Z" fill="white"/>
<path d="M6883.2 4670.9H6958.63C6982.03 4670.9 7000.15 4668.58 7013.46 4664.17C7026.68 4659.6 7037.27 4653.19 7045.2 4645.01C7056.18 4633.47 7064.99 4618 7071.01 4598.53C7077.34 4579.04 7080.47 4555.56 7080.47 4527.75C7080.47 4489.35 7074.38 4459.85 7062.19 4439.17C7050.01 4418.49 7035.42 4404.63 7018.03 4397.73C7005.44 4392.68 6985.09 4390.11 6957.43 4390.11H6883.2V4670.9ZM6836.39 4714.19V4346.83H6958.15C6985.56 4346.83 7006.56 4348.59 7021.07 4352.11C7041.51 4356.85 7058.59 4365.67 7072.77 4378.41C7091.45 4394.77 7105.48 4415.6 7114.61 4441.1C7123.99 4466.66 7128.72 4495.76 7128.72 4528.55C7128.72 4556.44 7125.52 4581.13 7119.26 4602.69C7112.93 4624.18 7104.92 4642.05 7095.13 4656.23C7085.27 4670.34 7074.53 4681.49 7062.92 4689.51C7051.21 4697.6 7037.1 4703.77 7020.67 4707.86C7004.23 4712.11 6985.24 4714.19 6964 4714.19H6836.39Z" fill="white"/>
<path d="M7391.22 4714.16V4346.8H7646.84V4390.16H7437.87V4502.62H7633.38V4545.83H7437.87V4670.87H7654.85V4714.16H7391.22Z" fill="white"/>
<path d="M7963.75 4521.47H8055.04C8085.1 4521.47 8106.66 4515.61 8119.33 4504C8132.23 4492.21 8138.65 4475.78 8138.65 4454.62C8138.65 4439.31 8134.88 4426.08 8127.18 4415.1C8119.64 4404.2 8110.11 4396.98 8097.77 4393.46C8089.91 4391.21 8075.4 4390.09 8053.92 4390.09H7963.75V4521.47ZM7917.1 4714.17V4346.8H8050.31C8073.79 4346.8 8091.67 4348.01 8103.85 4350.34C8121.57 4353.3 8135.92 4359.07 8147.54 4367.49C8159.25 4375.99 8168.7 4387.77 8175.84 4402.99C8183.05 4418.15 8186.65 4434.81 8186.65 4453.1C8186.65 4484.27 8177.12 4510.8 8158.04 4532.37C8138.96 4554.01 8104.33 4564.83 8054.4 4564.83H7963.75V4714.17H7917.1Z" fill="white"/>
<path d="M8470.2 4563.38H8589.95L8552.99 4461.59C8541.77 4430.65 8533.44 4405.23 8527.82 4385.36C8523.42 4409 8517.17 4432.41 8508.83 4455.5L8470.2 4563.38ZM8368.32 4714.16L8503.7 4346.8H8554.28L8698.96 4714.16H8645.65L8604.37 4602.98H8456.57L8417.93 4714.16H8368.32Z" fill="white"/>
<path d="M8981.19 4508.95H9081.7C9103.03 4508.95 9119.77 4506.62 9131.81 4502.13C9143.83 4497.41 9152.96 4490.19 9159.21 4480.01C9165.63 4469.91 9168.59 4458.85 9168.59 4447.07C9168.59 4429.58 9162.5 4415.4 9150.4 4404.19C9138.37 4393.04 9119.13 4387.42 9093.09 4387.42H8981.19V4508.95ZM8934.38 4714.16V4346.86H9090.93C9122.58 4346.86 9146.55 4350.16 9162.82 4356.72C9179.25 4363.38 9192.24 4375 9202.09 4391.68C9211.95 4408.35 9216.76 4426.79 9216.76 4447.07C9216.76 4473.12 9208.83 4495.08 9192.4 4512.96C9176.29 4530.83 9151.2 4542.21 9117.21 4547.02C9129.63 4553.27 9139.02 4559.29 9145.59 4565.29C9159.05 4578.44 9172.2 4594.64 9184.38 4614.19L9245.62 4714.16H9187.03L9140.06 4637.76C9126.43 4615.72 9115.37 4598.88 9106.39 4587.1C9097.49 4575.48 9089.56 4567.3 9082.5 4562.57C9075.77 4557.93 9068.56 4554.64 9061.34 4552.87C9056.21 4551.67 9047.4 4551.03 9035.37 4551.03H8981.19V4714.16H8934.38Z" fill="white"/>
<path d="M9568.58 4714.16V4390.16H9451.95V4346.8H9732.18V4390.16H9615.23V4714.16H9568.58Z" fill="white"/>
<path d="M9976.25 4714.16V4346.8H10046.5L10130.1 4606.98C10137.8 4631.19 10143.6 4649.22 10147.1 4661.33C10151.2 4648.03 10157.2 4628.39 10165.8 4602.41L10250.5 4346.8H10313.3V4714.16H10268.4V4406.83L10165.7 4714.16H10123.3L10021.2 4401.38V4714.16H9976.25Z" fill="white"/>
<path d="M10587.3 4714.16V4346.8H10842.7V4390.16H10633.9V4502.62H10829.4V4545.83H10633.9V4670.87H10850.9V4714.16H10587.3Z" fill="white"/>
<path d="M11112.5 4714.16V4346.8H11160.5L11345.9 4635.28V4346.8H11390.9V4714.16H11343L11157.2 4425.51V4714.16H11112.5Z" fill="white"/>
<path d="M11756.7 4714.16V4390.16H11640.4V4346.8H11920.5V4390.16H11803.6V4714.16H11756.7Z" fill="white"/>
<path d="M3892.58 3567.48C3876.7 3567.24 3862.52 3568.68 3850.33 3571.73C3838.07 3574.77 3827.65 3578.7 3818.99 3583.59C3810.26 3588.64 3803.04 3594.01 3797.67 3599.87C3792.3 3605.72 3788.61 3611.41 3786.85 3617.02C3796.88 3626.07 3804.48 3638.02 3809.22 3652.45C3814.27 3666.88 3816.58 3683.15 3816.58 3701.34V3966.59H3694.92V3700.23C3694.92 3694.77 3694.19 3689.08 3692.99 3683.31C3691.86 3677.46 3689.86 3671.85 3686.66 3665.99C3683.45 3660.39 3679.12 3654.77 3673.75 3649.33C3668.06 3643.79 3661.16 3638.66 3652.75 3634.01C3656.12 3620.06 3660.84 3606.12 3667.01 3592.17C3673.27 3578.22 3681.05 3565 3690.5 3552.25C3699.88 3539.42 3710.94 3527.4 3723.69 3516.5C3736.76 3505.52 3751.42 3496.06 3768.02 3487.81C3784.52 3479.63 3803.2 3473.29 3824.04 3468.57C3844.64 3463.92 3867.4 3461.43 3892.58 3461.43C3922.4 3461.43 3948.76 3464.24 3971.93 3469.61C3995.1 3475.06 4015.22 3482.43 4032.61 3491.98C4050 3501.51 4064.51 3512.82 4076.53 3526.2C4088.64 3539.42 4098.18 3553.78 4105.71 3569.25C4113.01 3584.79 4118.14 3601.15 4121.66 3618.38C4125.03 3635.7 4126.47 3653.34 4126.47 3671.05V3966.59H4002.47V3662.79C4002.47 3651.41 4000.63 3640.1 3997.1 3628.8C3993.41 3617.58 3987.32 3607.48 3978.66 3598.34C3970.25 3589.28 3958.79 3582.07 3944.92 3576.46C3930.89 3570.86 3913.58 3567.88 3892.58 3567.48Z" fill="white"/>
<path d="M4310.66 3783.13C4312.67 3813.67 4321.08 3836.2 4335.51 3850.71C4350.02 3865.37 4370.37 3872.75 4396.58 3872.75C4403.8 3872.75 4411.25 3871.95 4419.51 3870.27C4427.69 3868.75 4435.14 3866.18 4441.79 3862.41C4448.69 3858.64 4454.22 3853.51 4458.63 3847.34C4463.04 3840.93 4465.28 3832.92 4465.28 3823.21C4465.28 3816.16 4463.19 3809.99 4459.67 3804.7C4455.9 3799.25 4450.37 3794.04 4442.84 3789.15C4435.14 3784.26 4425.76 3779.36 4414.3 3774.48C4402.76 3769.5 4389.13 3763.98 4373.43 3757.96C4349.69 3748.99 4327.42 3739.85 4306.82 3730.87C4286.21 3721.81 4268.02 3711.55 4252.71 3700.01C4237.48 3688.55 4225.46 3675.24 4216.72 3659.93C4208.06 3644.62 4203.65 3626.26 4203.65 3604.86C4203.65 3587.39 4205.98 3571.76 4210.71 3557.89C4215.75 3544.02 4222.25 3531.92 4230.83 3521.34C4239.41 3510.91 4249.34 3501.94 4260.64 3494.4C4272.11 3487.11 4284.45 3480.94 4297.59 3476.21C4310.98 3471.48 4324.77 3468.03 4339.12 3465.95C4353.22 3463.78 4367.65 3462.66 4381.92 3462.66C4409.65 3462.66 4435.3 3465.55 4458.95 3471.48C4482.43 3477.41 4502.88 3487.27 4519.95 3501.22C4537.42 3515.16 4551.13 3533.84 4561.47 3557.17C4571.57 3580.58 4577.5 3609.68 4578.62 3644.62H4459.11C4458.79 3630.27 4456.54 3618 4452.86 3607.91C4449.01 3597.81 4443.8 3589.55 4437.46 3583.22C4431.05 3576.89 4423.68 3572.24 4415.42 3569.35C4407.09 3566.47 4398.35 3565.18 4389.53 3565.18C4382.72 3565.18 4375.91 3565.91 4369.01 3567.35C4361.96 3568.87 4355.62 3571.04 4349.86 3574.16C4344.08 3577.21 4339.27 3581.14 4335.67 3585.95C4331.98 3590.91 4330.06 3596.77 4330.06 3603.66C4330.06 3609.19 4331.82 3614.16 4335.19 3618.65C4338.55 3623.14 4343.92 3627.79 4350.9 3632.28C4358.11 3636.69 4367.49 3641.33 4378.87 3646.14C4390.34 3650.71 4404.2 3656 4420.71 3661.7C4454.22 3673.8 4482.03 3685.91 4504.07 3697.93C4525.8 3709.78 4543.03 3722.29 4555.86 3735.04C4568.6 3747.95 4577.26 3761.41 4581.99 3775.68C4586.96 3789.95 4589.52 3805.26 4589.52 3821.77C4589.52 3850.39 4584.31 3874.67 4574.29 3894.39C4563.88 3914.19 4550.17 3929.98 4532.29 3942.25C4514.49 3954.35 4493.65 3963.01 4469.29 3968.46C4445.32 3973.67 4419.35 3976.4 4391.86 3976.4C4364.28 3976.4 4338.55 3972.71 4314.75 3965.57C4290.7 3958.43 4269.54 3947.06 4251.43 3931.75C4233.15 3916.27 4218.64 3896.39 4207.34 3871.95C4196.28 3847.5 4189.95 3818.01 4187.94 3783.13H4310.66Z" fill="white"/>
<path d="M4657.15 3966.54V3472.3H4779.87V3747.24C4779.87 3769.28 4782.52 3787.88 4788.29 3802.79C4793.74 3817.86 4801.03 3830.04 4810.41 3839.26C4819.39 3848.64 4829.48 3855.3 4840.87 3859.38C4852.17 3863.23 4863.79 3865.39 4875.17 3865.39C4892.56 3865.39 4907.64 3862.9 4920.22 3858.02C4932.81 3853.04 4943.07 3846.24 4950.92 3837.33C4959.02 3828.51 4964.63 3817.94 4968.55 3805.35C4972.24 3793.01 4974.09 3779.3 4974.09 3764.07V3472.3H5095.84V3775.05C5095.84 3802.63 5092.8 3828.84 5086.39 3853.36C5079.98 3878.06 5069.95 3899.54 5056.17 3917.89C5042.14 3936.33 5024.42 3950.76 5002.22 3961.42C4980.42 3972.08 4953.65 3977.45 4922.3 3977.45C4891.93 3977.45 4864.36 3971.44 4839.58 3959.25C4814.73 3947.07 4793.33 3928.31 4775.22 3902.74V3966.54H4657.15Z" fill="white"/>
<path d="M5487.56 3740C5474.17 3748.41 5460.79 3754.59 5447.24 3758.36C5433.37 3762.21 5420.79 3765.25 5409.41 3767.66C5395.22 3770.46 5380.95 3773.11 5366.84 3775.67C5352.74 3778.39 5339.99 3781.69 5328.93 3785.53C5317.47 3789.54 5308.49 3794.35 5301.44 3800.28C5294.38 3806.13 5291.02 3813.83 5291.02 3823.2C5291.02 3833.46 5293.18 3842.04 5297.75 3849.09C5302.24 3856.15 5308.09 3861.93 5315.14 3866.25C5322.43 3870.5 5330.29 3873.7 5339.35 3875.55C5348.01 3877.63 5356.98 3878.59 5365.8 3878.59C5374.38 3878.59 5384.64 3877.71 5396.34 3875.86C5407.89 3874.18 5420.71 3871.46 5434.58 3867.61V3961.96C5418.14 3966.53 5402.67 3970.21 5388.65 3972.69C5374.62 3975.11 5360.43 3976.39 5346.72 3976.39C5322.6 3976.39 5299.59 3973.66 5277.95 3968.45C5256.47 3963 5237.31 3954.59 5221.12 3942.96C5204.85 3931.26 5191.79 3916.11 5182.32 3897.43C5172.62 3878.75 5167.9 3855.99 5167.9 3829.21C5167.9 3803.08 5173.35 3781.36 5183.85 3763.89C5194.43 3746.58 5209.58 3732.14 5228.98 3720.52C5248.46 3708.98 5272.26 3699.52 5299.75 3692.31C5327.57 3684.94 5358.26 3678.52 5392.33 3672.59C5404.2 3670.35 5415.98 3667.78 5427.52 3664.89C5438.9 3661.85 5449 3658.32 5458.06 3654.15C5466.96 3650.07 5474.17 3644.94 5479.54 3639.4C5484.92 3633.63 5487.56 3626.9 5487.56 3619.37C5487.56 3607.34 5485.24 3597.8 5480.18 3591.07C5475.53 3584.1 5468.8 3578.96 5461.02 3575.43C5453.01 3571.83 5444.11 3569.66 5434.17 3568.87C5424.16 3567.9 5414.3 3567.5 5404.44 3567.5C5390.97 3567.5 5378.79 3568.7 5367.65 3571.03C5356.58 3573.35 5347.04 3577.6 5338.87 3583.77C5330.62 3589.95 5324.04 3598.52 5319.23 3609.26C5314.1 3620.08 5311.13 3633.87 5310.49 3650.71H5185.05C5185.77 3626.42 5189.06 3604.85 5195.15 3585.93C5200.76 3567.18 5208.86 3550.82 5219.12 3536.72C5229.13 3522.77 5241 3510.91 5254.87 3501.36C5268.57 3491.83 5283.64 3484.14 5300.07 3478.21C5316.35 3472.11 5333.98 3467.87 5352.41 3465.38C5371.17 3462.73 5390.49 3461.45 5410.45 3461.45C5426.16 3461.45 5441.95 3462.42 5457.66 3464.42C5473.53 3466.18 5488.6 3469.31 5503.35 3473.55C5507.51 3470.83 5511.2 3467.47 5514.25 3463.46C5517.38 3459.44 5519.78 3455.04 5521.79 3450.47C5523.79 3445.82 5525.15 3441.1 5525.95 3436.36C5526.83 3431.56 5527.31 3427.14 5527.31 3422.89H5651.56C5651.56 3433.8 5650.03 3444.54 5647.23 3455.28C5644.42 3466.1 5640.33 3476.28 5635.12 3486.14C5629.84 3495.92 5623.26 3504.74 5615.57 3512.91C5607.71 3521.25 5598.9 3528.22 5588.87 3533.99C5595.53 3544.73 5600.66 3556.77 5604.34 3569.99C5607.71 3583.21 5609.47 3598.04 5609.47 3614.55V3966.53H5487.56V3740Z" fill="white"/>
<path d="M5793.43 3783.13C5795.43 3813.67 5803.92 3836.2 5818.35 3850.71C5832.7 3865.37 5853.14 3872.75 5879.27 3872.75C5886.32 3872.75 5894.26 3871.95 5902.35 3870.27C5910.54 3868.75 5917.9 3866.18 5924.8 3862.41C5931.53 3858.64 5936.99 3853.51 5941.55 3847.34C5945.88 3840.93 5948.12 3832.92 5948.12 3823.21C5948.12 3816.16 5946.2 3809.99 5942.28 3804.7C5938.83 3799.25 5933.13 3794.04 5925.52 3789.15C5918.07 3784.26 5908.53 3779.36 5897.07 3774.48C5885.61 3769.5 5871.89 3763.98 5856.19 3757.96C5832.54 3748.99 5810.18 3739.85 5789.82 3730.87C5768.97 3721.81 5750.87 3711.55 5735.63 3700.01C5720.32 3688.55 5708.3 3675.24 5699.56 3659.93C5690.82 3644.62 5686.49 3626.26 5686.49 3604.86C5686.49 3587.39 5688.82 3571.76 5693.71 3557.89C5698.52 3544.02 5705.17 3531.92 5713.67 3521.34C5722.32 3510.91 5732.02 3501.94 5743.49 3494.4C5754.95 3487.11 5767.29 3480.94 5780.44 3476.21C5793.74 3471.48 5807.53 3468.03 5821.8 3465.95C5836.06 3463.78 5850.49 3462.66 5864.92 3462.66C5892.34 3462.66 5918.07 3465.55 5941.71 3471.48C5965.2 3477.41 5985.64 3487.27 6002.71 3501.22C6020.18 3515.16 6033.89 3533.84 6044.24 3557.17C6054.57 3580.58 6060.18 3609.68 6061.47 3644.62H5942.03C5941.55 3630.27 5939.3 3618 5935.7 3607.91C5931.85 3597.81 5926.64 3589.55 5920.23 3583.22C5913.82 3576.89 5906.44 3572.24 5898.19 3569.35C5889.7 3566.47 5881.19 3565.18 5872.06 3565.18C5865.48 3565.18 5858.59 3565.91 5851.86 3567.35C5844.8 3568.87 5838.47 3571.04 5832.54 3574.16C5826.85 3577.21 5821.88 3581.14 5818.43 3585.95C5814.9 3590.91 5812.9 3596.77 5812.9 3603.66C5812.9 3609.19 5814.59 3614.16 5817.96 3618.65C5821.32 3623.14 5826.61 3627.79 5833.66 3632.28C5840.96 3636.69 5850.1 3641.33 5861.8 3646.14C5873.26 3650.71 5887.05 3656 5903.48 3661.7C5936.99 3673.8 5964.88 3685.91 5986.76 3697.93C6008.8 3709.78 6025.88 3722.29 6038.62 3735.04C6051.45 3747.95 6060.03 3761.41 6064.99 3775.68C6069.8 3789.95 6072.28 3805.26 6072.28 3821.77C6072.28 3850.39 6067.08 3874.67 6057.05 3894.39C6046.72 3914.19 6032.77 3929.98 6015.14 3942.25C5997.34 3954.35 5976.18 3963.01 5952.05 3968.46C5928.09 3973.67 5902.04 3976.4 5874.7 3976.4C5847.13 3976.4 5821.32 3972.71 5797.51 3965.57C5773.55 3958.43 5752.47 3947.06 5734.27 3931.75C5716.07 3916.27 5701.41 3896.39 5690.26 3871.95C5679.12 3847.5 5672.55 3818.01 5670.87 3783.13H5793.43Z" fill="white"/>
<path d="M6237.34 3783.13C6239.18 3813.67 6247.6 3836.2 6262.03 3850.71C6276.69 3865.37 6296.89 3872.75 6323.02 3872.75C6330.07 3872.75 6338.01 3871.95 6346.18 3870.27C6354.2 3868.75 6361.58 3866.18 6368.47 3862.41C6375.28 3858.64 6380.73 3853.51 6385.3 3847.34C6389.63 3840.93 6391.8 3832.92 6391.8 3823.21C6391.8 3816.16 6390.03 3809.99 6386.43 3804.7C6382.58 3799.25 6376.81 3794.04 6369.28 3789.15C6361.74 3784.26 6352.28 3779.36 6340.81 3774.48C6329.44 3769.5 6315.73 3763.98 6299.86 3757.96C6276.37 3748.99 6254.17 3739.85 6233.33 3730.87C6212.64 3721.81 6194.69 3711.55 6179.3 3700.01C6164.08 3688.55 6152.05 3675.24 6143.23 3659.93C6134.58 3644.62 6130.17 3626.26 6130.17 3604.86C6130.17 3587.39 6132.49 3571.76 6137.38 3557.89C6142.19 3544.02 6148.92 3531.92 6157.42 3521.34C6165.83 3510.91 6175.86 3501.94 6187.16 3494.4C6198.62 3487.11 6211.05 3480.94 6224.11 3476.21C6237.49 3471.48 6251.36 3468.03 6265.63 3465.95C6279.82 3463.78 6294.24 3462.66 6308.68 3462.66C6336.01 3462.66 6361.74 3465.55 6385.46 3471.48C6408.95 3477.41 6429.39 3487.27 6446.38 3501.22C6463.94 3515.16 6477.73 3533.84 6487.9 3557.17C6498.32 3580.58 6503.93 3609.68 6505.22 3644.62H6385.87C6385.3 3630.27 6383.22 3618 6379.37 3607.91C6375.44 3597.81 6370.32 3589.55 6363.98 3583.22C6357.57 3576.89 6350.11 3572.24 6341.85 3569.35C6333.6 3566.47 6324.95 3565.18 6315.97 3565.18C6309.23 3565.18 6302.42 3565.91 6295.53 3567.35C6288.47 3568.87 6282.14 3571.04 6276.37 3574.16C6270.52 3577.21 6265.71 3581.14 6262.34 3585.95C6258.66 3590.91 6256.81 3596.77 6256.81 3603.66C6256.81 3609.19 6258.41 3614.16 6261.71 3618.65C6265.07 3623.14 6270.36 3627.79 6277.41 3632.28C6284.79 3636.69 6293.92 3641.33 6305.55 3646.14C6317.09 3650.71 6330.8 3656 6346.99 3661.7C6380.73 3673.8 6408.71 3685.91 6430.51 3697.93C6452.55 3709.78 6469.63 3722.29 6482.37 3735.04C6495.11 3747.95 6503.78 3761.41 6508.74 3775.68C6513.55 3789.95 6516.12 3805.26 6516.12 3821.77C6516.12 3850.39 6510.83 3874.67 6500.81 3894.39C6490.39 3914.19 6476.6 3929.98 6458.97 3942.25C6441.09 3954.35 6420.09 3963.01 6395.97 3968.46C6371.84 3973.67 6345.86 3976.4 6318.37 3976.4C6290.96 3976.4 6265.07 3972.71 6241.18 3965.57C6217.21 3958.43 6196.29 3947.06 6178.27 3931.75C6159.91 3916.27 6145.4 3896.39 6133.93 3871.95C6122.79 3847.5 6116.38 3818.01 6114.62 3783.13H6237.34Z" fill="white"/>
<path d="M6914.05 3472.33L6994.52 3749.67L7054.96 3472.33H7187.69L7056 3966.59H6951.32L6868.11 3684.59L6786.2 3966.59H6681.12L6549.73 3472.33H6682.56L6742.6 3752L6823.39 3472.33H6914.05Z" fill="white"/>
<path d="M7545.59 3740C7532.44 3748.41 7518.82 3754.59 7505.34 3758.36C7491.56 3762.21 7478.9 3765.25 7467.44 3767.66C7453.25 3770.46 7439.14 3773.11 7425.03 3775.67C7410.92 3778.39 7398.26 3781.69 7386.96 3785.53C7375.74 3789.54 7366.52 3794.35 7359.47 3800.28C7352.74 3806.13 7349.05 3813.83 7349.05 3823.2C7349.05 3833.46 7351.37 3842.04 7355.85 3849.09C7360.35 3856.15 7366.04 3861.93 7373.41 3866.25C7380.55 3870.5 7388.56 3873.7 7397.29 3875.55C7406.28 3877.63 7415.01 3878.59 7423.75 3878.59C7432.57 3878.59 7442.59 3877.71 7454.29 3875.86C7465.91 3874.18 7478.74 3871.46 7492.84 3867.61V3961.96C7476.09 3966.53 7460.7 3970.21 7446.84 3972.69C7432.57 3975.11 7418.62 3976.39 7404.67 3976.39C7380.55 3976.39 7357.7 3973.66 7336.3 3968.45C7314.42 3963 7295.58 3954.59 7279.31 3942.96C7262.88 3931.26 7249.74 3916.11 7240.43 3897.43C7230.73 3878.75 7226.25 3855.99 7226.25 3829.21C7226.25 3803.08 7231.3 3781.36 7242.04 3763.89C7252.38 3746.58 7267.52 3732.14 7287.09 3720.52C7306.72 3708.98 7330.21 3699.52 7358.02 3692.31C7385.6 3684.94 7416.46 3678.52 7450.28 3672.59C7462.3 3670.35 7474.17 3667.78 7485.63 3664.89C7496.93 3661.85 7507.19 3658.32 7516.01 3654.15C7525.07 3650.07 7532.12 3644.94 7537.41 3639.4C7542.94 3633.63 7545.59 3626.9 7545.59 3619.37C7545.59 3607.34 7543.26 3597.8 7538.37 3591.07C7533.56 3584.1 7527.15 3578.96 7518.97 3575.43C7510.96 3571.83 7502.38 3569.66 7492.2 3568.87C7482.51 3567.9 7472.48 3567.5 7462.3 3567.5C7449.16 3567.5 7436.98 3568.7 7425.83 3571.03C7414.69 3573.35 7404.99 3577.6 7396.98 3583.77C7388.72 3589.95 7382.31 3598.52 7377.1 3609.26C7372.29 3620.08 7369.33 3633.87 7368.52 3650.71H7243.16C7243.88 3626.42 7247.17 3604.85 7253.18 3585.93C7259.02 3567.18 7266.72 3550.82 7277.22 3536.72C7287.32 3522.77 7299.11 3510.91 7312.81 3501.36C7326.6 3491.83 7341.67 3484.14 7358.18 3478.21C7374.45 3472.11 7392 3467.87 7410.45 3465.38C7429.12 3462.73 7448.67 3461.45 7468.56 3461.45C7484.18 3461.45 7500.06 3462.42 7515.85 3464.42C7531.48 3466.18 7546.87 3469.31 7561.22 3473.55C7565.63 3470.83 7569.39 3467.47 7572.36 3463.46C7575.32 3459.44 7577.65 3455.04 7579.73 3450.47C7581.74 3445.82 7583.18 3441.1 7584.06 3436.36C7584.86 3431.56 7585.34 3427.14 7585.34 3422.89H7709.5C7709.5 3433.8 7708.23 3444.54 7705.25 3455.28C7702.45 3466.1 7698.37 3476.28 7693.07 3486.14C7687.7 3495.92 7681.29 3504.74 7673.67 3512.91C7665.82 3521.25 7656.92 3528.22 7646.9 3533.99C7653.64 3544.73 7658.6 3556.77 7662.21 3569.99C7665.66 3583.21 7667.66 3598.04 7667.66 3614.55V3966.53H7545.59V3740Z" fill="white"/>
<path d="M7719.36 3645.83C7719.36 3615.93 7724.65 3589.56 7735.31 3566.71C7746.29 3543.87 7760.56 3524.63 7778.19 3509C7796.06 3493.45 7816.1 3481.75 7839.11 3473.57C7862.11 3465.48 7885.6 3461.47 7909.73 3461.47C7935.7 3461.47 7960.15 3465.08 7982.83 3471.81C8005.51 3478.78 8025.07 3489.04 8041.83 3503.15C8058.42 3517.18 8071.65 3534.89 8081.18 3556.45C8090.56 3577.86 8095.37 3603.18 8095.37 3632.53V3966.54H7972.33V3648.4C7972.33 3619.94 7967.05 3599.34 7956.38 3586.51C7945.72 3573.93 7929.93 3567.44 7909.73 3567.44C7891.37 3567.44 7876.71 3574 7865.41 3587.07C7854.18 3600.14 7847.77 3619.62 7845.68 3645.83H7719.36Z" fill="white"/>
<path d="M8182.14 3966.54V3472.3H8304.69V3747.24C8304.69 3769.28 8307.5 3787.88 8313.19 3802.79C8318.8 3817.86 8326.33 3830.04 8335.39 3839.26C8344.3 3848.64 8354.47 3855.3 8365.93 3859.38C8377.24 3863.23 8388.62 3865.39 8400.08 3865.39C8417.64 3865.39 8432.62 3862.9 8445.13 3858.02C8457.8 3853.04 8467.97 3846.24 8475.83 3837.33C8484.01 3828.51 8489.62 3817.94 8493.54 3805.35C8497.3 3793.01 8499 3779.3 8499 3764.07V3472.3H8620.99V3775.05C8620.99 3802.63 8617.86 3828.84 8611.37 3853.36C8604.96 3878.06 8594.94 3899.54 8581.08 3917.89C8567.12 3936.33 8549.25 3950.76 8527.2 3961.42C8505.41 3972.08 8478.47 3977.45 8447.21 3977.45C8416.99 3977.45 8389.42 3971.44 8364.49 3959.25C8339.96 3947.07 8318.32 3928.31 8300.21 3902.74V3966.54H8182.14Z" fill="white"/>
<path d="M8166.32 3402.43L8214.26 3308.41H8614.71V3402.43H8166.32Z" fill="white"/>
<path d="M8825.57 3656.6V3811.22L8894.43 3743.41H8859.4V3667.58H9022.19V3741.08L8806.5 3966.56H8703.02V3666.3C8703.02 3643.77 8705.66 3621.65 8711.43 3599.85C8716.96 3578.13 8726.18 3557.92 8738.85 3539.49C8751.51 3521.14 8768.26 3505.02 8789.1 3491.31C8809.94 3477.77 8835.43 3467.91 8865.65 3461.41L8941.56 3512.15L9018.59 3462.7C9048.01 3469.35 9072.45 3479.45 9092.98 3493C9113.17 3506.54 9129.44 3522.42 9141.95 3540.61C9154.54 3558.73 9163.59 3578.52 9169.2 3600.09C9174.82 3621.72 9177.54 3643.77 9177.54 3666.3V3966.56H9054.74V3656.6C9054.74 3643.29 9052.1 3630.39 9046.32 3617.81C9041.03 3605.3 9031.89 3594.15 9019.87 3584.53L8968.01 3615.8C8960.23 3620.05 8951.89 3622.45 8942.84 3623.1C8933.94 3623.65 8924.65 3621.33 8914.95 3615.8L8861.72 3583.09C8849.06 3592.96 8839.84 3604.26 8833.98 3617.24C8828.38 3630.23 8825.57 3643.29 8825.57 3656.6Z" fill="white"/>
<path d="M6165.71 1635.4C6165.71 1878.6 5968.52 2075.71 5725.33 2075.71C5482.22 2075.71 5284.96 1878.6 5284.96 1635.4C5284.96 1392.12 5482.22 1195.02 5725.33 1195.02C5968.52 1195.02 6165.71 1392.12 6165.71 1635.4Z" fill="white"/>
<path d="M10916.8 1320.92C10916.8 1320.92 10393.5 1338.08 10393.5 1950.01H11178.6C11178.6 1950.01 11702.1 1932.85 11702.1 1320.92H10916.8Z" fill="white"/>
<path d="M12225.3 2830.59C12225.3 2218.59 11702.1 2201.6 11702.1 2201.6H10393.4C10393.4 2813.44 10916.9 2830.59 10916.9 2830.59H12225.3Z" fill="white"/>
<path d="M12225.3 440.291C12225.3 1052.3 11702.1 1069.45 11702.1 1069.45H10393.4C10393.4 457.364 10916.9 440.291 10916.9 440.291H12225.3Z" fill="white"/>
<path d="M1134.64 1320.92C1134.64 1320.92 611.219 1338.08 611.219 1950.01H1396.43C1396.43 1950.01 1919.6 1932.85 1919.6 1320.92H1134.64Z" fill="white"/>
<path d="M2443.16 2830.59C2443.16 2218.59 1919.58 2201.6 1919.58 2201.6H611.195C611.195 2813.44 1134.61 2830.59 1134.61 2830.59H2443.16Z" fill="white"/>
<path d="M2443.16 440.291C2443.16 1052.3 1919.58 1069.45 1919.58 1069.45H611.195C611.195 457.364 1134.61 440.291 1134.61 440.291H2443.16Z" fill="white"/>
<path d="M7070.83 2081.82L6869.72 1941.07C6867.24 1939.47 6864.75 1938.1 6862.1 1937.06C6769.28 1901.79 6680.95 1883.84 6598.71 1883.84C6427.34 1883.84 6341.33 1961.99 6339.49 1963.75L6121.14 2141.94C6010.77 2238.53 5901.11 2285.5 5786.09 2285.5C5734.55 2285.5 5682.29 2276.45 5625.94 2257.93C5468.83 2206.15 5354.37 2099.62 5353.81 2098.82L4876.16 1635.35L5353.41 1172.04C5354.37 1170.99 5468.11 1064.62 5625.94 1012.76C5682.13 994.164 5734.55 985.183 5786.09 985.183C5901.11 985.183 6010.77 1032.16 6122.1 1129.47L6337.73 1305.42C6341.33 1308.62 6427.34 1386.85 6598.71 1386.85C6680.95 1386.85 6769.28 1368.9 6862.1 1333.71C6864.75 1332.58 6867.24 1331.15 6869.56 1329.62L7070.83 1188.71C7079.81 1182.46 7085.42 1172.43 7085.82 1161.69C7086.05 1150.79 7081.41 1140.21 7072.75 1133.4L6549.42 706.722C6322.42 509.531 6057.58 405.246 5783.84 405.246C5653.76 405.246 5521.98 428.567 5391.96 474.741C5105.89 576.22 4917.04 755.851 4896.6 775.891L4443.64 1215.64L4088.95 871.278C3898.1 682.112 3704.6 550.49 3513.43 480.111C3389.83 434.503 3294.37 425.046 3236.01 425.046C3228.96 425.046 3222.3 425.202 3217.66 425.365L2745.78 425.124C2727.26 425.124 2712.83 439.554 2710.83 457.831C2666.18 847.56 2550.52 884.51 2452.17 1013.4C2444.23 1023.98 2442.79 1038.09 2448.64 1049.87C2454.57 1061.65 2466.84 1069.27 2480.06 1069.27H3234.73C3258.86 1073.04 3404.02 1040.9 3627.49 1262.85L4011.2 1635.35L3629.82 2005.51L3627.49 2007.92C3404.02 2229.72 3258.69 2197.65 3234.73 2201.58H2480.06C2480.06 2201.58 2454.57 2208.96 2448.64 2220.82C2442.79 2232.76 2442.31 2248.55 2452.17 2257.46C2608.55 2398.69 2699.05 2615.03 2710.83 2812.87C2711.79 2831.3 2727.26 2845.73 2745.78 2845.73L3216.29 2845.33C3222.3 2845.48 3228.96 2845.73 3236.01 2845.73C3294.37 2845.73 3389.67 2836.11 3513.43 2790.5C3704.6 2720.04 3898.1 2588.5 4088.63 2399.57L4443.64 2055.05L4896.44 2494.72C4917.04 2514.84 5105.57 2694.39 5391.96 2795.95C5521.98 2841.96 5653.76 2865.45 5784.01 2865.45C6057.66 2865.45 6322.42 2761.17 6548.78 2564.7L7072.75 2137.3C7081.41 2130.48 7086.05 2120.07 7085.82 2109.16C7085.42 2098.25 7079.81 2088.23 7070.83 2081.82Z" fill="white"/>
<path d="M8582.13 1757.31C8364.99 1643.33 8193.21 1443.74 8193.21 1183.46C8193.21 824.519 8482.9 617.148 8790.05 507.416C9120.22 389.58 9452.7 427.5 9744.39 612.338L9880.58 715.106L10145 931.85C10047.3 1000.78 9953.84 1075.25 9836.25 1107.4C9717.62 1139.78 9560.27 1133.45 9460.72 1051.61L9378.4 1001.03C9258.49 927.443 9030.69 897.145 8899.63 957.026C8847.05 981.069 8810.58 1034.21 8810.58 1095.77C8810.58 1173.13 8868.29 1236.94 8942.83 1246.79C8942.83 1246.79 9641.39 1453.12 9755.86 1513.39C9973 1627.78 10145 1826.9 10145 2087.24C10145 2446.19 9855.09 2653.56 9548.09 2763.21C9217.77 2881.05 8885.36 2843.21 8593.59 2658.37L8457.49 2555.77L8193.21 2338.86C8290.77 2269.93 8384.38 2195.3 8501.65 2163.31C8620.52 2131.09 8777.63 2137.42 8877.43 2219.11L8959.58 2269.69C9083.91 2331.81 9307.3 2373.57 9438.68 2313.61C9491.1 2289.73 9527.41 2236.5 9527.41 2174.94C9527.41 2097.67 9469.77 2033.7 9395.15 2023.93C9395.15 2023.93 8694.99 1816.39 8582.13 1757.31Z" fill="white"/>
<path d="M8079.75 440.308C8079.75 683.51 7882.64 880.695 7639.69 880.695C7396.41 880.695 7199.31 683.51 7199.31 440.308C7199.31 197.112 7396.41 -0.000549316 7639.69 -0.000549316C7882.64 -0.000549316 8079.75 197.112 8079.75 440.308Z" fill="white"/>
<path d="M7333.45 994.602V2830.62H7945.93V994.602C7855.43 1047.51 7750.82 1077.97 7639.65 1077.97C7528.39 1077.97 7423.79 1047.51 7333.45 994.602Z" fill="white"/>
<path d="M1013.39 4714.16V4390.16H897V4346.8H1177.06V4390.16H1060.04V4714.16H1013.39Z" fill="white"/>
<path d="M1423.87 4714.16V4346.8H1470.6V4497.65H1654.32V4346.8H1700.97V4714.16H1654.32V4541.02H1470.6V4714.16H1423.87Z" fill="white"/>
<path d="M1977.33 4714.16V4346.8H2232.87V4390.16H2023.98V4502.62H2219.48V4545.83H2023.98V4670.87H2240.88V4714.16H1977.33Z" fill="white"/>
<path d="M3173.02 4714.16V4346.8H3428.55V4390.16H3219.99V4502.62H3415.33V4545.83H3219.99V4670.87H3436.81V4714.16H3173.02Z" fill="white"/>
<path d="M3662.84 4714.16L3799.5 4522.74L3679.11 4346.8H3734.82L3798.86 4440.98C3812.09 4460.62 3821.62 4475.61 3827.32 4486.11C3835.01 4472.8 3844.47 4458.77 3855.21 4444.35L3926.22 4346.8H3977.04L3853.05 4520.01L3986.82 4714.16H3928.96L3840.06 4583.18C3835.01 4575.57 3829.88 4567.47 3824.67 4558.65C3816.58 4571.96 3810.96 4581.17 3807.76 4586.23L3719.03 4714.16H3662.84Z" fill="white"/>
<path d="M4477.47 4585.37L4524.28 4597.64C4514.5 4637.56 4496.79 4668.1 4471.54 4688.94C4445.97 4710.1 4414.78 4720.45 4378.07 4720.45C4339.84 4720.45 4308.98 4712.35 4285.17 4696.32C4261.2 4680.12 4243.25 4656.88 4230.5 4626.18C4218.24 4595.64 4212.07 4562.77 4212.07 4527.75C4212.07 4489.51 4218.88 4456.08 4232.99 4427.63C4247.09 4399.17 4267.06 4377.53 4293.03 4362.78C4319 4348.03 4347.54 4340.49 4378.71 4340.49C4413.98 4340.49 4443.8 4349.87 4468 4368.63C4492.13 4387.31 4508.89 4413.61 4518.26 4447.51L4472.33 4458.81C4463.92 4432.2 4452.22 4412.56 4436.59 4400.37C4421.04 4388.27 4401.32 4382.1 4377.67 4382.1C4350.58 4382.1 4328.13 4388.91 4309.62 4402.38C4291.5 4415.93 4278.68 4434.2 4271.31 4457.05C4263.69 4479.89 4260.24 4503.29 4260.24 4527.5C4260.24 4558.77 4264.49 4586.02 4273.3 4609.42C4282.12 4632.67 4295.51 4650.07 4314.19 4661.61C4332.62 4673.15 4352.58 4678.93 4373.99 4678.93C4400.44 4678.93 4422.48 4671.06 4440.75 4655.36C4458.95 4639.64 4471.13 4616.24 4477.47 4585.37Z" fill="white"/>
<path d="M4787.27 4346.84H4834.24V4714.2H4787.27V4346.84Z" fill="white"/>
<path d="M5098.21 4596.22L5142.13 4592.3C5144.14 4610.58 5149.19 4625.64 5156.72 4637.43C5164.26 4649.21 5176.12 4658.75 5192.24 4665.97C5208.34 4673.26 5226.3 4676.87 5246.5 4676.87C5264.38 4676.87 5280.17 4674.14 5293.71 4668.53C5307.5 4663 5317.52 4655.54 5324.25 4645.84C5330.98 4636.39 5334.35 4625.96 5334.35 4614.5C5334.35 4602.96 5330.98 4592.86 5324.57 4584.2C5318.24 4575.71 5307.5 4568.41 5292.67 4562.56C5283.37 4558.79 5262.21 4552.86 5229.83 4544.69C5197.44 4536.59 5174.68 4528.97 5161.61 4521.76C5144.78 4512.55 5132.2 4501.08 5123.94 4487.53C5115.6 4473.91 5111.6 4458.68 5111.6 4441.84C5111.6 4423.25 5116.57 4405.94 5126.67 4389.82C5136.76 4373.71 5151.67 4361.44 5170.99 4353.03C5190.39 4344.7 5212.19 4340.52 5236 4340.52C5262.05 4340.52 5285.13 4344.94 5305.17 4353.67C5325.29 4362.41 5340.52 4375.39 5351.42 4392.46C5362.09 4409.54 5367.85 4428.86 5368.66 4450.35L5323.93 4453.95C5321.37 4430.62 5313.19 4413.07 5299.4 4401.2C5285.45 4389.26 5264.94 4383.49 5237.84 4383.49C5209.55 4383.49 5188.87 4388.78 5175.96 4399.6C5163.06 4410.42 5156.56 4423.41 5156.56 4438.48C5156.56 4451.79 5161.21 4462.6 5170.27 4471.18C5179.33 4479.6 5202.81 4488.42 5240.73 4497.39C5278.8 4506.13 5304.85 4513.99 5319.04 4520.72C5339.64 4530.65 5354.79 4543.09 5364.65 4558.15C5374.35 4573.3 5379.24 4590.7 5379.24 4610.5C5379.24 4629.97 5373.87 4648.41 5363.21 4665.72C5352.47 4682.95 5336.99 4696.43 5316.88 4706.05C5296.6 4715.67 5273.91 4720.48 5248.74 4720.48C5216.76 4720.48 5189.91 4715.67 5168.27 4705.96C5146.62 4696.34 5129.71 4681.67 5117.45 4662.28C5105.26 4642.8 5098.69 4620.76 5098.21 4596.22Z" fill="white"/>
<path d="M5641.57 4714.16V4346.8H5897.11V4390.16H5688.46V4502.62H5883.72V4545.83H5688.46V4670.87H5905.36V4714.16H5641.57Z" fill="white"/>
<path d="M6883.2 4670.9H6958.63C6982.03 4670.9 7000.15 4668.58 7013.46 4664.17C7026.68 4659.6 7037.27 4653.19 7045.2 4645.01C7056.18 4633.47 7064.99 4618 7071.01 4598.53C7077.34 4579.04 7080.47 4555.56 7080.47 4527.75C7080.47 4489.35 7074.38 4459.85 7062.19 4439.17C7050.01 4418.49 7035.42 4404.63 7018.03 4397.73C7005.44 4392.68 6985.09 4390.11 6957.43 4390.11H6883.2V4670.9ZM6836.39 4714.19V4346.83H6958.15C6985.56 4346.83 7006.56 4348.59 7021.07 4352.11C7041.51 4356.85 7058.59 4365.67 7072.77 4378.41C7091.45 4394.77 7105.48 4415.6 7114.61 4441.1C7123.99 4466.66 7128.72 4495.76 7128.72 4528.55C7128.72 4556.44 7125.52 4581.13 7119.26 4602.69C7112.93 4624.18 7104.92 4642.05 7095.13 4656.23C7085.27 4670.34 7074.53 4681.49 7062.92 4689.51C7051.21 4697.6 7037.1 4703.77 7020.67 4707.86C7004.23 4712.11 6985.24 4714.19 6964 4714.19H6836.39Z" fill="white"/>
<path d="M7391.22 4714.16V4346.8H7646.84V4390.16H7437.87V4502.62H7633.38V4545.83H7437.87V4670.87H7654.85V4714.16H7391.22Z" fill="white"/>
<path d="M7963.75 4521.47H8055.04C8085.1 4521.47 8106.66 4515.61 8119.33 4504C8132.23 4492.21 8138.65 4475.78 8138.65 4454.62C8138.65 4439.31 8134.88 4426.08 8127.18 4415.1C8119.64 4404.2 8110.11 4396.98 8097.77 4393.46C8089.91 4391.21 8075.4 4390.09 8053.92 4390.09H7963.75V4521.47ZM7917.1 4714.17V4346.8H8050.31C8073.79 4346.8 8091.67 4348.01 8103.85 4350.34C8121.57 4353.3 8135.92 4359.07 8147.54 4367.49C8159.25 4375.99 8168.7 4387.77 8175.84 4402.99C8183.05 4418.15 8186.65 4434.81 8186.65 4453.1C8186.65 4484.27 8177.12 4510.8 8158.04 4532.37C8138.96 4554.01 8104.33 4564.83 8054.4 4564.83H7963.75V4714.17H7917.1Z" fill="white"/>
<path d="M8470.2 4563.38H8589.95L8552.99 4461.59C8541.77 4430.65 8533.44 4405.23 8527.82 4385.36C8523.42 4409 8517.17 4432.41 8508.83 4455.5L8470.2 4563.38ZM8368.32 4714.16L8503.7 4346.8H8554.28L8698.96 4714.16H8645.65L8604.37 4602.98H8456.57L8417.93 4714.16H8368.32Z" fill="white"/>
<path d="M8981.19 4508.95H9081.7C9103.03 4508.95 9119.77 4506.62 9131.81 4502.13C9143.83 4497.41 9152.96 4490.19 9159.21 4480.01C9165.63 4469.91 9168.59 4458.85 9168.59 4447.07C9168.59 4429.58 9162.5 4415.4 9150.4 4404.19C9138.37 4393.04 9119.13 4387.42 9093.09 4387.42H8981.19V4508.95ZM8934.38 4714.16V4346.86H9090.93C9122.58 4346.86 9146.55 4350.16 9162.82 4356.72C9179.25 4363.38 9192.24 4375 9202.09 4391.68C9211.95 4408.35 9216.76 4426.79 9216.76 4447.07C9216.76 4473.12 9208.83 4495.08 9192.4 4512.96C9176.29 4530.83 9151.2 4542.21 9117.21 4547.02C9129.63 4553.27 9139.02 4559.29 9145.59 4565.29C9159.05 4578.44 9172.2 4594.64 9184.38 4614.19L9245.62 4714.16H9187.03L9140.06 4637.76C9126.43 4615.72 9115.37 4598.88 9106.39 4587.1C9097.49 4575.48 9089.56 4567.3 9082.5 4562.57C9075.77 4557.93 9068.56 4554.64 9061.34 4552.87C9056.21 4551.67 9047.4 4551.03 9035.37 4551.03H8981.19V4714.16H8934.38Z" fill="white"/>
<path d="M9568.58 4714.16V4390.16H9451.95V4346.8H9732.18V4390.16H9615.23V4714.16H9568.58Z" fill="white"/>
<path d="M9976.25 4714.16V4346.8H10046.5L10130.1 4606.98C10137.8 4631.19 10143.6 4649.22 10147.1 4661.33C10151.2 4648.03 10157.2 4628.39 10165.8 4602.41L10250.5 4346.8H10313.3V4714.16H10268.4V4406.83L10165.7 4714.16H10123.3L10021.2 4401.38V4714.16H9976.25Z" fill="white"/>
<path d="M10587.3 4714.16V4346.8H10842.7V4390.16H10633.9V4502.62H10829.4V4545.83H10633.9V4670.87H10850.9V4714.16H10587.3Z" fill="white"/>
<path d="M11112.5 4714.16V4346.8H11160.5L11345.9 4635.28V4346.8H11390.9V4714.16H11343L11157.2 4425.51V4714.16H11112.5Z" fill="white"/>
<path d="M11756.7 4714.16V4390.16H11640.4V4346.8H11920.5V4390.16H11803.6V4714.16H11756.7Z" fill="white"/>
<path d="M3892.58 3567.48C3876.7 3567.24 3862.52 3568.68 3850.33 3571.73C3838.07 3574.77 3827.65 3578.7 3818.99 3583.59C3810.26 3588.64 3803.04 3594.01 3797.67 3599.87C3792.3 3605.72 3788.61 3611.41 3786.85 3617.02C3796.88 3626.07 3804.48 3638.02 3809.22 3652.45C3814.27 3666.88 3816.58 3683.15 3816.58 3701.34V3966.59H3694.92V3700.23C3694.92 3694.77 3694.19 3689.08 3692.99 3683.31C3691.86 3677.46 3689.86 3671.85 3686.66 3665.99C3683.45 3660.39 3679.12 3654.77 3673.75 3649.33C3668.06 3643.79 3661.16 3638.66 3652.75 3634.01C3656.12 3620.06 3660.84 3606.12 3667.01 3592.17C3673.27 3578.22 3681.05 3565 3690.5 3552.25C3699.88 3539.42 3710.94 3527.4 3723.69 3516.5C3736.76 3505.52 3751.42 3496.06 3768.02 3487.81C3784.52 3479.63 3803.2 3473.29 3824.04 3468.57C3844.64 3463.92 3867.4 3461.43 3892.58 3461.43C3922.4 3461.43 3948.76 3464.24 3971.93 3469.61C3995.1 3475.06 4015.22 3482.43 4032.61 3491.98C4050 3501.51 4064.51 3512.82 4076.53 3526.2C4088.64 3539.42 4098.18 3553.78 4105.71 3569.25C4113.01 3584.79 4118.14 3601.15 4121.66 3618.38C4125.03 3635.7 4126.47 3653.34 4126.47 3671.05V3966.59H4002.47V3662.79C4002.47 3651.41 4000.63 3640.1 3997.1 3628.8C3993.41 3617.58 3987.32 3607.48 3978.66 3598.34C3970.25 3589.28 3958.79 3582.07 3944.92 3576.46C3930.89 3570.86 3913.58 3567.88 3892.58 3567.48Z" fill="white"/>
<path d="M4310.66 3783.13C4312.67 3813.67 4321.08 3836.2 4335.51 3850.71C4350.02 3865.37 4370.37 3872.75 4396.58 3872.75C4403.8 3872.75 4411.25 3871.95 4419.51 3870.27C4427.69 3868.75 4435.14 3866.18 4441.79 3862.41C4448.69 3858.64 4454.22 3853.51 4458.63 3847.34C4463.04 3840.93 4465.28 3832.92 4465.28 3823.21C4465.28 3816.16 4463.19 3809.99 4459.67 3804.7C4455.9 3799.25 4450.37 3794.04 4442.84 3789.15C4435.14 3784.26 4425.76 3779.36 4414.3 3774.48C4402.76 3769.5 4389.13 3763.98 4373.43 3757.96C4349.69 3748.99 4327.42 3739.85 4306.82 3730.87C4286.21 3721.81 4268.02 3711.55 4252.71 3700.01C4237.48 3688.55 4225.46 3675.24 4216.72 3659.93C4208.06 3644.62 4203.65 3626.26 4203.65 3604.86C4203.65 3587.39 4205.98 3571.76 4210.71 3557.89C4215.75 3544.02 4222.25 3531.92 4230.83 3521.34C4239.41 3510.91 4249.34 3501.94 4260.64 3494.4C4272.11 3487.11 4284.45 3480.94 4297.59 3476.21C4310.98 3471.48 4324.77 3468.03 4339.12 3465.95C4353.22 3463.78 4367.65 3462.66 4381.92 3462.66C4409.65 3462.66 4435.3 3465.55 4458.95 3471.48C4482.43 3477.41 4502.88 3487.27 4519.95 3501.22C4537.42 3515.16 4551.13 3533.84 4561.47 3557.17C4571.57 3580.58 4577.5 3609.68 4578.62 3644.62H4459.11C4458.79 3630.27 4456.54 3618 4452.86 3607.91C4449.01 3597.81 4443.8 3589.55 4437.46 3583.22C4431.05 3576.89 4423.68 3572.24 4415.42 3569.35C4407.09 3566.47 4398.35 3565.18 4389.53 3565.18C4382.72 3565.18 4375.91 3565.91 4369.01 3567.35C4361.96 3568.87 4355.62 3571.04 4349.86 3574.16C4344.08 3577.21 4339.27 3581.14 4335.67 3585.95C4331.98 3590.91 4330.06 3596.77 4330.06 3603.66C4330.06 3609.19 4331.82 3614.16 4335.19 3618.65C4338.55 3623.14 4343.92 3627.79 4350.9 3632.28C4358.11 3636.69 4367.49 3641.33 4378.87 3646.14C4390.34 3650.71 4404.2 3656 4420.71 3661.7C4454.22 3673.8 4482.03 3685.91 4504.07 3697.93C4525.8 3709.78 4543.03 3722.29 4555.86 3735.04C4568.6 3747.95 4577.26 3761.41 4581.99 3775.68C4586.96 3789.95 4589.52 3805.26 4589.52 3821.77C4589.52 3850.39 4584.31 3874.67 4574.29 3894.39C4563.88 3914.19 4550.17 3929.98 4532.29 3942.25C4514.49 3954.35 4493.65 3963.01 4469.29 3968.46C4445.32 3973.67 4419.35 3976.4 4391.86 3976.4C4364.28 3976.4 4338.55 3972.71 4314.75 3965.57C4290.7 3958.43 4269.54 3947.06 4251.43 3931.75C4233.15 3916.27 4218.64 3896.39 4207.34 3871.95C4196.28 3847.5 4189.95 3818.01 4187.94 3783.13H4310.66Z" fill="white"/>
<path d="M4657.15 3966.54V3472.3H4779.87V3747.24C4779.87 3769.28 4782.52 3787.88 4788.29 3802.79C4793.74 3817.86 4801.03 3830.04 4810.41 3839.26C4819.39 3848.64 4829.48 3855.3 4840.87 3859.38C4852.17 3863.23 4863.79 3865.39 4875.17 3865.39C4892.56 3865.39 4907.64 3862.9 4920.22 3858.02C4932.81 3853.04 4943.07 3846.24 4950.92 3837.33C4959.02 3828.51 4964.63 3817.94 4968.55 3805.35C4972.24 3793.01 4974.09 3779.3 4974.09 3764.07V3472.3H5095.84V3775.05C5095.84 3802.63 5092.8 3828.84 5086.39 3853.36C5079.98 3878.06 5069.95 3899.54 5056.17 3917.89C5042.14 3936.33 5024.42 3950.76 5002.22 3961.42C4980.42 3972.08 4953.65 3977.45 4922.3 3977.45C4891.93 3977.45 4864.36 3971.44 4839.58 3959.25C4814.73 3947.07 4793.33 3928.31 4775.22 3902.74V3966.54H4657.15Z" fill="white"/>
<path d="M5487.56 3740C5474.17 3748.41 5460.79 3754.59 5447.24 3758.36C5433.37 3762.21 5420.79 3765.25 5409.41 3767.66C5395.22 3770.46 5380.95 3773.11 5366.84 3775.67C5352.74 3778.39 5339.99 3781.69 5328.93 3785.53C5317.47 3789.54 5308.49 3794.35 5301.44 3800.28C5294.38 3806.13 5291.02 3813.83 5291.02 3823.2C5291.02 3833.46 5293.18 3842.04 5297.75 3849.09C5302.24 3856.15 5308.09 3861.93 5315.14 3866.25C5322.43 3870.5 5330.29 3873.7 5339.35 3875.55C5348.01 3877.63 5356.98 3878.59 5365.8 3878.59C5374.38 3878.59 5384.64 3877.71 5396.34 3875.86C5407.89 3874.18 5420.71 3871.46 5434.58 3867.61V3961.96C5418.14 3966.53 5402.67 3970.21 5388.65 3972.69C5374.62 3975.11 5360.43 3976.39 5346.72 3976.39C5322.6 3976.39 5299.59 3973.66 5277.95 3968.45C5256.47 3963 5237.31 3954.59 5221.12 3942.96C5204.85 3931.26 5191.79 3916.11 5182.32 3897.43C5172.62 3878.75 5167.9 3855.99 5167.9 3829.21C5167.9 3803.08 5173.35 3781.36 5183.85 3763.89C5194.43 3746.58 5209.58 3732.14 5228.98 3720.52C5248.46 3708.98 5272.26 3699.52 5299.75 3692.31C5327.57 3684.94 5358.26 3678.52 5392.33 3672.59C5404.2 3670.35 5415.98 3667.78 5427.52 3664.89C5438.9 3661.85 5449 3658.32 5458.06 3654.15C5466.96 3650.07 5474.17 3644.94 5479.54 3639.4C5484.92 3633.63 5487.56 3626.9 5487.56 3619.37C5487.56 3607.34 5485.24 3597.8 5480.18 3591.07C5475.53 3584.1 5468.8 3578.96 5461.02 3575.43C5453.01 3571.83 5444.11 3569.66 5434.17 3568.87C5424.16 3567.9 5414.3 3567.5 5404.44 3567.5C5390.97 3567.5 5378.79 3568.7 5367.65 3571.03C5356.58 3573.35 5347.04 3577.6 5338.87 3583.77C5330.62 3589.95 5324.04 3598.52 5319.23 3609.26C5314.1 3620.08 5311.13 3633.87 5310.49 3650.71H5185.05C5185.77 3626.42 5189.06 3604.85 5195.15 3585.93C5200.76 3567.18 5208.86 3550.82 5219.12 3536.72C5229.13 3522.77 5241 3510.91 5254.87 3501.36C5268.57 3491.83 5283.64 3484.14 5300.07 3478.21C5316.35 3472.11 5333.98 3467.87 5352.41 3465.38C5371.17 3462.73 5390.49 3461.45 5410.45 3461.45C5426.16 3461.45 5441.95 3462.42 5457.66 3464.42C5473.53 3466.18 5488.6 3469.31 5503.35 3473.55C5507.51 3470.83 5511.2 3467.47 5514.25 3463.46C5517.38 3459.44 5519.78 3455.04 5521.79 3450.47C5523.79 3445.82 5525.15 3441.1 5525.95 3436.36C5526.83 3431.56 5527.31 3427.14 5527.31 3422.89H5651.56C5651.56 3433.8 5650.03 3444.54 5647.23 3455.28C5644.42 3466.1 5640.33 3476.28 5635.12 3486.14C5629.84 3495.92 5623.26 3504.74 5615.57 3512.91C5607.71 3521.25 5598.9 3528.22 5588.87 3533.99C5595.53 3544.73 5600.66 3556.77 5604.34 3569.99C5607.71 3583.21 5609.47 3598.04 5609.47 3614.55V3966.53H5487.56V3740Z" fill="white"/>
<path d="M5793.43 3783.13C5795.43 3813.67 5803.92 3836.2 5818.35 3850.71C5832.7 3865.37 5853.14 3872.75 5879.27 3872.75C5886.32 3872.75 5894.26 3871.95 5902.35 3870.27C5910.54 3868.75 5917.9 3866.18 5924.8 3862.41C5931.53 3858.64 5936.99 3853.51 5941.55 3847.34C5945.88 3840.93 5948.12 3832.92 5948.12 3823.21C5948.12 3816.16 5946.2 3809.99 5942.28 3804.7C5938.83 3799.25 5933.13 3794.04 5925.52 3789.15C5918.07 3784.26 5908.53 3779.36 5897.07 3774.48C5885.61 3769.5 5871.89 3763.98 5856.19 3757.96C5832.54 3748.99 5810.18 3739.85 5789.82 3730.87C5768.97 3721.81 5750.87 3711.55 5735.63 3700.01C5720.32 3688.55 5708.3 3675.24 5699.56 3659.93C5690.82 3644.62 5686.49 3626.26 5686.49 3604.86C5686.49 3587.39 5688.82 3571.76 5693.71 3557.89C5698.52 3544.02 5705.17 3531.92 5713.67 3521.34C5722.32 3510.91 5732.02 3501.94 5743.49 3494.4C5754.95 3487.11 5767.29 3480.94 5780.44 3476.21C5793.74 3471.48 5807.53 3468.03 5821.8 3465.95C5836.06 3463.78 5850.49 3462.66 5864.92 3462.66C5892.34 3462.66 5918.07 3465.55 5941.71 3471.48C5965.2 3477.41 5985.64 3487.27 6002.71 3501.22C6020.18 3515.16 6033.89 3533.84 6044.24 3557.17C6054.57 3580.58 6060.18 3609.68 6061.47 3644.62H5942.03C5941.55 3630.27 5939.3 3618 5935.7 3607.91C5931.85 3597.81 5926.64 3589.55 5920.23 3583.22C5913.82 3576.89 5906.44 3572.24 5898.19 3569.35C5889.7 3566.47 5881.19 3565.18 5872.06 3565.18C5865.48 3565.18 5858.59 3565.91 5851.86 3567.35C5844.8 3568.87 5838.47 3571.04 5832.54 3574.16C5826.85 3577.21 5821.88 3581.14 5818.43 3585.95C5814.9 3590.91 5812.9 3596.77 5812.9 3603.66C5812.9 3609.19 5814.59 3614.16 5817.96 3618.65C5821.32 3623.14 5826.61 3627.79 5833.66 3632.28C5840.96 3636.69 5850.1 3641.33 5861.8 3646.14C5873.26 3650.71 5887.05 3656 5903.48 3661.7C5936.99 3673.8 5964.88 3685.91 5986.76 3697.93C6008.8 3709.78 6025.88 3722.29 6038.62 3735.04C6051.45 3747.95 6060.03 3761.41 6064.99 3775.68C6069.8 3789.95 6072.28 3805.26 6072.28 3821.77C6072.28 3850.39 6067.08 3874.67 6057.05 3894.39C6046.72 3914.19 6032.77 3929.98 6015.14 3942.25C5997.34 3954.35 5976.18 3963.01 5952.05 3968.46C5928.09 3973.67 5902.04 3976.4 5874.7 3976.4C5847.13 3976.4 5821.32 3972.71 5797.51 3965.57C5773.55 3958.43 5752.47 3947.06 5734.27 3931.75C5716.07 3916.27 5701.41 3896.39 5690.26 3871.95C5679.12 3847.5 5672.55 3818.01 5670.87 3783.13H5793.43Z" fill="white"/>
<path d="M6237.34 3783.13C6239.18 3813.67 6247.6 3836.2 6262.03 3850.71C6276.69 3865.37 6296.89 3872.75 6323.02 3872.75C6330.07 3872.75 6338.01 3871.95 6346.18 3870.27C6354.2 3868.75 6361.58 3866.18 6368.47 3862.41C6375.28 3858.64 6380.73 3853.51 6385.3 3847.34C6389.63 3840.93 6391.8 3832.92 6391.8 3823.21C6391.8 3816.16 6390.03 3809.99 6386.43 3804.7C6382.58 3799.25 6376.81 3794.04 6369.28 3789.15C6361.74 3784.26 6352.28 3779.36 6340.81 3774.48C6329.44 3769.5 6315.73 3763.98 6299.86 3757.96C6276.37 3748.99 6254.17 3739.85 6233.33 3730.87C6212.64 3721.81 6194.69 3711.55 6179.3 3700.01C6164.08 3688.55 6152.05 3675.24 6143.23 3659.93C6134.58 3644.62 6130.17 3626.26 6130.17 3604.86C6130.17 3587.39 6132.49 3571.76 6137.38 3557.89C6142.19 3544.02 6148.92 3531.92 6157.42 3521.34C6165.83 3510.91 6175.86 3501.94 6187.16 3494.4C6198.62 3487.11 6211.05 3480.94 6224.11 3476.21C6237.49 3471.48 6251.36 3468.03 6265.63 3465.95C6279.82 3463.78 6294.24 3462.66 6308.68 3462.66C6336.01 3462.66 6361.74 3465.55 6385.46 3471.48C6408.95 3477.41 6429.39 3487.27 6446.38 3501.22C6463.94 3515.16 6477.73 3533.84 6487.9 3557.17C6498.32 3580.58 6503.93 3609.68 6505.22 3644.62H6385.87C6385.3 3630.27 6383.22 3618 6379.37 3607.91C6375.44 3597.81 6370.32 3589.55 6363.98 3583.22C6357.57 3576.89 6350.11 3572.24 6341.85 3569.35C6333.6 3566.47 6324.95 3565.18 6315.97 3565.18C6309.23 3565.18 6302.42 3565.91 6295.53 3567.35C6288.47 3568.87 6282.14 3571.04 6276.37 3574.16C6270.52 3577.21 6265.71 3581.14 6262.34 3585.95C6258.66 3590.91 6256.81 3596.77 6256.81 3603.66C6256.81 3609.19 6258.41 3614.16 6261.71 3618.65C6265.07 3623.14 6270.36 3627.79 6277.41 3632.28C6284.79 3636.69 6293.92 3641.33 6305.55 3646.14C6317.09 3650.71 6330.8 3656 6346.99 3661.7C6380.73 3673.8 6408.71 3685.91 6430.51 3697.93C6452.55 3709.78 6469.63 3722.29 6482.37 3735.04C6495.11 3747.95 6503.78 3761.41 6508.74 3775.68C6513.55 3789.95 6516.12 3805.26 6516.12 3821.77C6516.12 3850.39 6510.83 3874.67 6500.81 3894.39C6490.39 3914.19 6476.6 3929.98 6458.97 3942.25C6441.09 3954.35 6420.09 3963.01 6395.97 3968.46C6371.84 3973.67 6345.86 3976.4 6318.37 3976.4C6290.96 3976.4 6265.07 3972.71 6241.18 3965.57C6217.21 3958.43 6196.29 3947.06 6178.27 3931.75C6159.91 3916.27 6145.4 3896.39 6133.93 3871.95C6122.79 3847.5 6116.38 3818.01 6114.62 3783.13H6237.34Z" fill="white"/>
<path d="M6914.05 3472.33L6994.52 3749.67L7054.96 3472.33H7187.69L7056 3966.59H6951.32L6868.11 3684.59L6786.2 3966.59H6681.12L6549.73 3472.33H6682.56L6742.6 3752L6823.39 3472.33H6914.05Z" fill="white"/>
<path d="M7545.59 3740C7532.44 3748.41 7518.82 3754.59 7505.34 3758.36C7491.56 3762.21 7478.9 3765.25 7467.44 3767.66C7453.25 3770.46 7439.14 3773.11 7425.03 3775.67C7410.92 3778.39 7398.26 3781.69 7386.96 3785.53C7375.74 3789.54 7366.52 3794.35 7359.47 3800.28C7352.74 3806.13 7349.05 3813.83 7349.05 3823.2C7349.05 3833.46 7351.37 3842.04 7355.85 3849.09C7360.35 3856.15 7366.04 3861.93 7373.41 3866.25C7380.55 3870.5 7388.56 3873.7 7397.29 3875.55C7406.28 3877.63 7415.01 3878.59 7423.75 3878.59C7432.57 3878.59 7442.59 3877.71 7454.29 3875.86C7465.91 3874.18 7478.74 3871.46 7492.84 3867.61V3961.96C7476.09 3966.53 7460.7 3970.21 7446.84 3972.69C7432.57 3975.11 7418.62 3976.39 7404.67 3976.39C7380.55 3976.39 7357.7 3973.66 7336.3 3968.45C7314.42 3963 7295.58 3954.59 7279.31 3942.96C7262.88 3931.26 7249.74 3916.11 7240.43 3897.43C7230.73 3878.75 7226.25 3855.99 7226.25 3829.21C7226.25 3803.08 7231.3 3781.36 7242.04 3763.89C7252.38 3746.58 7267.52 3732.14 7287.09 3720.52C7306.72 3708.98 7330.21 3699.52 7358.02 3692.31C7385.6 3684.94 7416.46 3678.52 7450.28 3672.59C7462.3 3670.35 7474.17 3667.78 7485.63 3664.89C7496.93 3661.85 7507.19 3658.32 7516.01 3654.15C7525.07 3650.07 7532.12 3644.94 7537.41 3639.4C7542.94 3633.63 7545.59 3626.9 7545.59 3619.37C7545.59 3607.34 7543.26 3597.8 7538.37 3591.07C7533.56 3584.1 7527.15 3578.96 7518.97 3575.43C7510.96 3571.83 7502.38 3569.66 7492.2 3568.87C7482.51 3567.9 7472.48 3567.5 7462.3 3567.5C7449.16 3567.5 7436.98 3568.7 7425.83 3571.03C7414.69 3573.35 7404.99 3577.6 7396.98 3583.77C7388.72 3589.95 7382.31 3598.52 7377.1 3609.26C7372.29 3620.08 7369.33 3633.87 7368.52 3650.71H7243.16C7243.88 3626.42 7247.17 3604.85 7253.18 3585.93C7259.02 3567.18 7266.72 3550.82 7277.22 3536.72C7287.32 3522.77 7299.11 3510.91 7312.81 3501.36C7326.6 3491.83 7341.67 3484.14 7358.18 3478.21C7374.45 3472.11 7392 3467.87 7410.45 3465.38C7429.12 3462.73 7448.67 3461.45 7468.56 3461.45C7484.18 3461.45 7500.06 3462.42 7515.85 3464.42C7531.48 3466.18 7546.87 3469.31 7561.22 3473.55C7565.63 3470.83 7569.39 3467.47 7572.36 3463.46C7575.32 3459.44 7577.65 3455.04 7579.73 3450.47C7581.74 3445.82 7583.18 3441.1 7584.06 3436.36C7584.86 3431.56 7585.34 3427.14 7585.34 3422.89H7709.5C7709.5 3433.8 7708.23 3444.54 7705.25 3455.28C7702.45 3466.1 7698.37 3476.28 7693.07 3486.14C7687.7 3495.92 7681.29 3504.74 7673.67 3512.91C7665.82 3521.25 7656.92 3528.22 7646.9 3533.99C7653.64 3544.73 7658.6 3556.77 7662.21 3569.99C7665.66 3583.21 7667.66 3598.04 7667.66 3614.55V3966.53H7545.59V3740Z" fill="white"/>
<path d="M7719.36 3645.83C7719.36 3615.93 7724.65 3589.56 7735.31 3566.71C7746.29 3543.87 7760.56 3524.63 7778.19 3509C7796.06 3493.45 7816.1 3481.75 7839.11 3473.57C7862.11 3465.48 7885.6 3461.47 7909.73 3461.47C7935.7 3461.47 7960.15 3465.08 7982.83 3471.81C8005.51 3478.78 8025.07 3489.04 8041.83 3503.15C8058.42 3517.18 8071.65 3534.89 8081.18 3556.45C8090.56 3577.86 8095.37 3603.18 8095.37 3632.53V3966.54H7972.33V3648.4C7972.33 3619.94 7967.05 3599.34 7956.38 3586.51C7945.72 3573.93 7929.93 3567.44 7909.73 3567.44C7891.37 3567.44 7876.71 3574 7865.41 3587.07C7854.18 3600.14 7847.77 3619.62 7845.68 3645.83H7719.36Z" fill="white"/>
<path d="M8182.14 3966.54V3472.3H8304.69V3747.24C8304.69 3769.28 8307.5 3787.88 8313.19 3802.79C8318.8 3817.86 8326.33 3830.04 8335.39 3839.26C8344.3 3848.64 8354.47 3855.3 8365.93 3859.38C8377.24 3863.23 8388.62 3865.39 8400.08 3865.39C8417.64 3865.39 8432.62 3862.9 8445.13 3858.02C8457.8 3853.04 8467.97 3846.24 8475.83 3837.33C8484.01 3828.51 8489.62 3817.94 8493.54 3805.35C8497.3 3793.01 8499 3779.3 8499 3764.07V3472.3H8620.99V3775.05C8620.99 3802.63 8617.86 3828.84 8611.37 3853.36C8604.96 3878.06 8594.94 3899.54 8581.08 3917.89C8567.12 3936.33 8549.25 3950.76 8527.2 3961.42C8505.41 3972.08 8478.47 3977.45 8447.21 3977.45C8416.99 3977.45 8389.42 3971.44 8364.49 3959.25C8339.96 3947.07 8318.32 3928.31 8300.21 3902.74V3966.54H8182.14Z" fill="white"/>
<path d="M8166.32 3402.43L8214.26 3308.41H8614.71V3402.43H8166.32Z" fill="white"/>
<path d="M8825.57 3656.6V3811.22L8894.43 3743.41H8859.4V3667.58H9022.19V3741.08L8806.5 3966.56H8703.02V3666.3C8703.02 3643.77 8705.66 3621.65 8711.43 3599.85C8716.96 3578.13 8726.18 3557.92 8738.85 3539.49C8751.51 3521.14 8768.26 3505.02 8789.1 3491.31C8809.94 3477.77 8835.43 3467.91 8865.65 3461.41L8941.56 3512.15L9018.59 3462.7C9048.01 3469.35 9072.45 3479.45 9092.98 3493C9113.17 3506.54 9129.44 3522.42 9141.95 3540.61C9154.54 3558.73 9163.59 3578.52 9169.2 3600.09C9174.82 3621.72 9177.54 3643.77 9177.54 3666.3V3966.56H9054.74V3656.6C9054.74 3643.29 9052.1 3630.39 9046.32 3617.81C9041.03 3605.3 9031.89 3594.15 9019.87 3584.53L8968.01 3615.8C8960.23 3620.05 8951.89 3622.45 8942.84 3623.1C8933.94 3623.65 8924.65 3621.33 8914.95 3615.8L8861.72 3583.09C8849.06 3592.96 8839.84 3604.26 8833.98 3617.24C8828.38 3630.23 8825.57 3643.29 8825.57 3656.6Z" fill="white"/>
<path d="M6165.71 1635.4C6165.71 1878.6 5968.52 2075.71 5725.33 2075.71C5482.22 2075.71 5284.96 1878.6 5284.96 1635.4C5284.96 1392.12 5482.22 1195.02 5725.33 1195.02C5968.52 1195.02 6165.71 1392.12 6165.71 1635.4Z" fill="white"/>
<path d="M10916.8 1320.92C10916.8 1320.92 10393.5 1338.08 10393.5 1950.01H11178.6C11178.6 1950.01 11702.1 1932.85 11702.1 1320.92H10916.8Z" fill="white"/>
<path d="M12225.3 2830.59C12225.3 2218.59 11702.1 2201.6 11702.1 2201.6H10393.4C10393.4 2813.44 10916.9 2830.59 10916.9 2830.59H12225.3Z" fill="white"/>
<path d="M12225.3 440.291C12225.3 1052.3 11702.1 1069.45 11702.1 1069.45H10393.4C10393.4 457.364 10916.9 440.291 10916.9 440.291H12225.3Z" fill="white"/>
<path d="M1134.64 1320.92C1134.64 1320.92 611.219 1338.08 611.219 1950.01H1396.43C1396.43 1950.01 1919.6 1932.85 1919.6 1320.92H1134.64Z" fill="white"/>
<path d="M2443.16 2830.59C2443.16 2218.59 1919.58 2201.6 1919.58 2201.6H611.195C611.195 2813.44 1134.61 2830.59 1134.61 2830.59H2443.16Z" fill="white"/>
<path d="M2443.16 440.291C2443.16 1052.3 1919.58 1069.45 1919.58 1069.45H611.195C611.195 457.364 1134.61 440.291 1134.61 440.291H2443.16Z" fill="white"/>
<path d="M7070.83 2081.82L6869.72 1941.07C6867.24 1939.47 6864.75 1938.1 6862.1 1937.06C6769.28 1901.79 6680.95 1883.84 6598.71 1883.84C6427.34 1883.84 6341.33 1961.99 6339.49 1963.75L6121.14 2141.94C6010.77 2238.53 5901.11 2285.5 5786.09 2285.5C5734.55 2285.5 5682.29 2276.45 5625.94 2257.93C5468.83 2206.15 5354.37 2099.62 5353.81 2098.82L4876.16 1635.35L5353.41 1172.04C5354.37 1170.99 5468.11 1064.62 5625.94 1012.76C5682.13 994.164 5734.55 985.183 5786.09 985.183C5901.11 985.183 6010.77 1032.16 6122.1 1129.47L6337.73 1305.42C6341.33 1308.62 6427.34 1386.85 6598.71 1386.85C6680.95 1386.85 6769.28 1368.9 6862.1 1333.71C6864.75 1332.58 6867.24 1331.15 6869.56 1329.62L7070.83 1188.71C7079.81 1182.46 7085.42 1172.43 7085.82 1161.69C7086.05 1150.79 7081.41 1140.21 7072.75 1133.4L6549.42 706.722C6322.42 509.531 6057.58 405.246 5783.84 405.246C5653.76 405.246 5521.98 428.567 5391.96 474.741C5105.89 576.22 4917.04 755.851 4896.6 775.891L4443.64 1215.64L4088.95 871.278C3898.1 682.112 3704.6 550.49 3513.43 480.111C3389.83 434.503 3294.37 425.046 3236.01 425.046C3228.96 425.046 3222.3 425.202 3217.66 425.365L2745.78 425.124C2727.26 425.124 2712.83 439.554 2710.83 457.831C2666.18 847.56 2550.52 884.51 2452.17 1013.4C2444.23 1023.98 2442.79 1038.09 2448.64 1049.87C2454.57 1061.65 2466.84 1069.27 2480.06 1069.27H3234.73C3258.86 1073.04 3404.02 1040.9 3627.49 1262.85L4011.2 1635.35L3629.82 2005.51L3627.49 2007.92C3404.02 2229.72 3258.69 2197.65 3234.73 2201.58H2480.06C2480.06 2201.58 2454.57 2208.96 2448.64 2220.82C2442.79 2232.76 2442.31 2248.55 2452.17 2257.46C2608.55 2398.69 2699.05 2615.03 2710.83 2812.87C2711.79 2831.3 2727.26 2845.73 2745.78 2845.73L3216.29 2845.33C3222.3 2845.48 3228.96 2845.73 3236.01 2845.73C3294.37 2845.73 3389.67 2836.11 3513.43 2790.5C3704.6 2720.04 3898.1 2588.5 4088.63 2399.57L4443.64 2055.05L4896.44 2494.72C4917.04 2514.84 5105.57 2694.39 5391.96 2795.95C5521.98 2841.96 5653.76 2865.45 5784.01 2865.45C6057.66 2865.45 6322.42 2761.17 6548.78 2564.7L7072.75 2137.3C7081.41 2130.48 7086.05 2120.07 7085.82 2109.16C7085.42 2098.25 7079.81 2088.23 7070.83 2081.82Z" fill="white"/>
<path d="M8582.13 1757.31C8364.99 1643.33 8193.21 1443.74 8193.21 1183.46C8193.21 824.519 8482.9 617.148 8790.05 507.416C9120.22 389.58 9452.7 427.5 9744.39 612.338L9880.58 715.106L10145 931.85C10047.3 1000.78 9953.84 1075.25 9836.25 1107.4C9717.62 1139.78 9560.27 1133.45 9460.72 1051.61L9378.4 1001.03C9258.49 927.443 9030.69 897.145 8899.63 957.026C8847.05 981.069 8810.58 1034.21 8810.58 1095.77C8810.58 1173.13 8868.29 1236.94 8942.83 1246.79C8942.83 1246.79 9641.39 1453.12 9755.86 1513.39C9973 1627.78 10145 1826.9 10145 2087.24C10145 2446.19 9855.09 2653.56 9548.09 2763.21C9217.77 2881.05 8885.36 2843.21 8593.59 2658.37L8457.49 2555.77L8193.21 2338.86C8290.77 2269.93 8384.38 2195.3 8501.65 2163.31C8620.52 2131.09 8777.63 2137.42 8877.43 2219.11L8959.58 2269.69C9083.91 2331.81 9307.3 2373.57 9438.68 2313.61C9491.1 2289.73 9527.41 2236.5 9527.41 2174.94C9527.41 2097.67 9469.77 2033.7 9395.15 2023.93C9395.15 2023.93 8694.99 1816.39 8582.13 1757.31Z" fill="white"/>
<path d="M8079.75 440.308C8079.75 683.51 7882.64 880.695 7639.69 880.695C7396.41 880.695 7199.31 683.51 7199.31 440.308C7199.31 197.112 7396.41 -0.000549316 7639.69 -0.000549316C7882.64 -0.000549316 8079.75 197.112 8079.75 440.308Z" fill="white"/>
<path d="M7333.45 994.602V2830.62H7945.93V994.602C7855.43 1047.51 7750.82 1077.97 7639.65 1077.97C7528.39 1077.97 7423.79 1047.51 7333.45 994.602Z" fill="white"/>
</svg>
