<svg width="12226" height="4721" viewBox="0 0 12226 4721" fill="none" xmlns="http://www.w3.org/2000/svg">
<path d="M503.218 1321.02C503.218 1321.02 0 1338.17 0 1950.09H503.218V1321.02Z" fill="#B1B4B3"/>
<path d="M1013.39 4714.28V4390.28H897V4346.92H1177.06V4390.28H1060.04V4714.28H1013.39Z" fill="#B1B4B3"/>
<path d="M1423.88 4714.28V4346.92H1470.61V4497.77H1654.32V4346.92H1700.98V4714.28H1654.32V4541.14H1470.61V4714.28H1423.88Z" fill="#B1B4B3"/>
<path d="M1977.34 4714.28V4346.92H2232.87V4390.28H2023.98V4502.74H2219.48V4545.95H2023.98V4671H2240.89V4714.28H1977.34Z" fill="#B1B4B3"/>
<path d="M3173.02 4714.28V4346.92H3428.55V4390.28H3219.99V4502.74H3415.33V4545.95H3219.99V4671H3436.81V4714.28H3173.02Z" fill="#B1B4B3"/>
<path d="M3662.84 4714.28L3799.5 4522.87L3679.11 4346.92H3734.82L3798.86 4441.11C3812.09 4460.74 3821.62 4475.73 3827.32 4486.23C3835.01 4472.92 3844.47 4458.89 3855.21 4444.47L3926.22 4346.92H3977.04L3853.05 4520.14L3986.82 4714.28H3928.96L3840.06 4583.3C3835.01 4575.69 3829.88 4567.6 3824.67 4558.78C3816.58 4572.08 3810.96 4581.3 3807.76 4586.35L3719.03 4714.28H3662.84Z" fill="#B1B4B3"/>
<path d="M4477.47 4585.5L4524.28 4597.77C4514.5 4637.68 4496.79 4668.23 4471.54 4689.07C4445.97 4710.23 4414.78 4720.57 4378.07 4720.57C4339.84 4720.57 4308.98 4712.47 4285.17 4696.44C4261.2 4680.25 4243.25 4657.01 4230.5 4626.3C4218.24 4595.76 4212.07 4562.89 4212.07 4527.87C4212.07 4489.63 4218.88 4456.21 4232.99 4427.75C4247.09 4399.29 4267.06 4377.66 4293.03 4362.9C4319 4348.16 4347.54 4340.62 4378.71 4340.62C4413.98 4340.62 4443.8 4350 4468 4368.76C4492.13 4387.44 4508.89 4413.73 4518.26 4447.64L4472.33 4458.94C4463.92 4432.33 4452.22 4412.68 4436.59 4400.5C4421.04 4388.39 4401.32 4382.22 4377.67 4382.22C4350.58 4382.22 4328.13 4389.03 4309.62 4402.5C4291.5 4416.05 4278.68 4434.33 4271.31 4457.18C4263.69 4480.02 4260.24 4503.42 4260.24 4527.63C4260.24 4558.89 4264.49 4586.14 4273.3 4609.55C4282.12 4632.79 4295.51 4650.19 4314.19 4661.74C4332.62 4673.28 4352.58 4679.05 4373.99 4679.05C4400.44 4679.05 4422.48 4671.19 4440.75 4655.48C4458.95 4639.77 4471.13 4616.36 4477.47 4585.5Z" fill="#B1B4B3"/>
<path d="M4787.27 4346.96H4834.24V4714.32H4787.27V4346.96Z" fill="#B1B4B3"/>
<path d="M5098.21 4596.35L5142.13 4592.43C5144.14 4610.7 5149.19 4625.77 5156.72 4637.56C5164.26 4649.34 5176.12 4658.88 5192.24 4666.09C5208.34 4673.39 5226.3 4676.99 5246.5 4676.99C5264.38 4676.99 5280.17 4674.27 5293.71 4668.65C5307.5 4663.12 5317.52 4655.67 5324.25 4645.97C5330.98 4636.51 5334.35 4626.09 5334.35 4614.63C5334.35 4603.09 5330.98 4592.98 5324.57 4584.33C5318.24 4575.83 5307.5 4568.54 5292.67 4562.68C5283.37 4558.92 5262.21 4552.99 5229.83 4544.81C5197.44 4536.71 5174.68 4529.1 5161.61 4521.89C5144.78 4512.67 5132.2 4501.2 5123.94 4487.66C5115.6 4474.03 5111.6 4458.8 5111.6 4441.97C5111.6 4423.38 5116.57 4406.06 5126.67 4389.95C5136.76 4373.84 5151.67 4361.57 5170.99 4353.15C5190.39 4344.82 5212.19 4340.65 5236 4340.65C5262.05 4340.65 5285.13 4345.06 5305.17 4353.8C5325.29 4362.53 5340.52 4375.52 5351.42 4392.59C5362.09 4409.66 5367.85 4428.98 5368.66 4450.47L5323.93 4454.07C5321.37 4430.74 5313.19 4413.19 5299.4 4401.32C5285.45 4389.39 5264.94 4383.61 5237.84 4383.61C5209.55 4383.61 5188.87 4388.91 5175.96 4399.73C5163.06 4410.55 5156.56 4423.53 5156.56 4438.6C5156.56 4451.91 5161.21 4462.73 5170.27 4471.31C5179.33 4479.72 5202.81 4488.54 5240.73 4497.52C5278.8 4506.25 5304.85 4514.12 5319.04 4520.85C5339.64 4530.78 5354.79 4543.21 5364.65 4558.28C5374.35 4573.42 5379.24 4590.82 5379.24 4610.62C5379.24 4630.1 5373.87 4648.53 5363.21 4665.85C5352.47 4683.08 5336.99 4696.55 5316.88 4706.17C5296.6 4715.79 5273.91 4720.6 5248.74 4720.6C5216.76 4720.6 5189.91 4715.79 5168.27 4706.09C5146.62 4696.47 5129.71 4681.8 5117.45 4662.41C5105.26 4642.93 5098.69 4620.88 5098.21 4596.35Z" fill="#B1B4B3"/>
<path d="M5641.57 4714.28V4346.92H5897.11V4390.28H5688.46V4502.74H5883.72V4545.95H5688.46V4671H5905.36V4714.28H5641.57Z" fill="#B1B4B3"/>
<path d="M6883.2 4671.03H6958.63C6982.03 4671.03 7000.15 4668.7 7013.46 4664.3C7026.68 4659.73 7037.27 4653.32 7045.2 4645.14C7056.18 4633.6 7064.99 4618.12 7071.01 4598.65C7077.34 4579.17 7080.47 4555.69 7080.47 4527.87C7080.47 4489.48 7074.38 4459.97 7062.19 4439.29C7050.01 4418.61 7035.42 4404.75 7018.03 4397.85C7005.44 4392.8 6985.09 4390.23 6957.43 4390.23H6883.2V4671.03ZM6836.39 4714.31V4346.95H6958.15C6985.56 4346.95 7006.56 4348.71 7021.07 4352.24C7041.51 4356.97 7058.59 4365.79 7072.77 4378.53C7091.45 4394.89 7105.48 4415.73 7114.61 4441.22C7123.99 4466.79 7128.72 4495.88 7128.72 4528.67C7128.72 4556.56 7125.52 4581.25 7119.26 4602.82C7112.93 4624.3 7104.92 4642.17 7095.13 4656.36C7085.27 4670.47 7074.53 4681.61 7062.92 4689.63C7051.21 4697.72 7037.1 4703.9 7020.67 4707.99C7004.23 4712.24 6985.24 4714.31 6964 4714.31H6836.39Z" fill="#B1B4B3"/>
<path d="M7391.22 4714.28V4346.92H7646.84V4390.28H7437.87V4502.74H7633.38V4545.95H7437.87V4671H7654.85V4714.28H7391.22Z" fill="#B1B4B3"/>
<path d="M7963.75 4521.59H8055.04C8085.1 4521.59 8106.66 4515.74 8119.33 4504.12C8132.23 4492.34 8138.65 4475.9 8138.65 4454.74C8138.65 4439.44 8134.88 4426.21 8127.18 4415.22C8119.64 4404.33 8110.11 4397.11 8097.77 4393.58C8089.91 4391.34 8075.4 4390.22 8053.92 4390.22H7963.75V4521.59ZM7917.1 4714.3V4346.93H8050.31C8073.79 4346.93 8091.67 4348.14 8103.85 4350.46C8121.57 4353.42 8135.92 4359.2 8147.54 4367.61C8159.25 4376.11 8168.7 4387.89 8175.84 4403.12C8183.05 4418.28 8186.65 4434.94 8186.65 4453.22C8186.65 4484.4 8177.12 4510.93 8158.04 4532.5C8138.96 4554.13 8104.33 4564.96 8054.4 4564.96H7963.75V4714.3H7917.1Z" fill="#B1B4B3"/>
<path d="M8470.2 4563.51H8589.95L8552.99 4461.71C8541.77 4430.77 8533.44 4405.35 8527.82 4385.48C8523.42 4409.12 8517.17 4432.54 8508.83 4455.62L8470.2 4563.51ZM8368.32 4714.29L8503.7 4346.92H8554.28L8698.96 4714.29H8645.65L8604.37 4603.11H8456.57L8417.93 4714.29H8368.32Z" fill="#B1B4B3"/>
<path d="M8981.19 4509.07H9081.7C9103.03 4509.07 9119.77 4506.74 9131.81 4502.26C9143.83 4497.53 9152.96 4490.32 9159.21 4480.13C9165.63 4470.04 9168.59 4458.97 9168.59 4447.19C9168.59 4429.71 9162.5 4415.53 9150.4 4404.31C9138.37 4393.16 9119.13 4387.55 9093.09 4387.55H8981.19V4509.07ZM8934.38 4714.28V4346.99H9090.93C9122.58 4346.99 9146.55 4350.28 9162.82 4356.85C9179.25 4363.5 9192.24 4375.13 9202.09 4391.81C9211.95 4408.48 9216.76 4426.92 9216.76 4447.19C9216.76 4473.24 9208.83 4495.2 9192.4 4513.08C9176.29 4530.95 9151.2 4542.34 9117.21 4547.15C9129.63 4553.4 9139.02 4559.41 9145.59 4565.42C9159.05 4578.57 9172.2 4594.76 9184.38 4614.32L9245.62 4714.28H9187.03L9140.06 4637.89C9126.43 4615.84 9115.37 4599 9106.39 4587.22C9097.49 4575.6 9089.56 4567.42 9082.5 4562.69C9075.77 4558.05 9068.56 4554.76 9061.34 4553C9056.21 4551.8 9047.4 4551.15 9035.37 4551.15H8981.19V4714.28H8934.38Z" fill="#B1B4B3"/>
<path d="M9568.58 4714.28V4390.28H9451.95V4346.92H9732.18V4390.28H9615.23V4714.28H9568.58Z" fill="#B1B4B3"/>
<path d="M9976.25 4714.28V4346.92H10046.5L10130.1 4607.11C10137.8 4631.32 10143.6 4649.35 10147.1 4661.46C10151.2 4648.16 10157.2 4628.51 10165.8 4602.54L10250.5 4346.92H10313.3V4714.28H10268.4V4406.95L10165.7 4714.28H10123.3L10021.2 4401.51V4714.28H9976.25Z" fill="#B1B4B3"/>
<path d="M10587.3 4714.28V4346.92H10842.7V4390.28H10633.9V4502.74H10829.4V4545.95H10633.9V4671H10850.9V4714.28H10587.3Z" fill="#B1B4B3"/>
<path d="M11112.5 4714.28V4346.92H11160.5L11345.9 4635.41V4346.92H11390.9V4714.28H11343L11157.2 4425.63V4714.28H11112.5Z" fill="#B1B4B3"/>
<path d="M11756.7 4714.28V4390.28H11640.4V4346.92H11920.5V4390.28H11803.6V4714.28H11756.7Z" fill="#B1B4B3"/>
<path d="M3892.58 3567.6C3876.7 3567.36 3862.52 3568.81 3850.33 3571.85C3838.07 3574.9 3827.65 3578.82 3818.99 3583.72C3810.26 3588.77 3803.04 3594.14 3797.67 3599.99C3792.3 3605.85 3788.61 3611.54 3786.85 3617.14C3796.88 3626.2 3804.48 3638.15 3809.22 3652.58C3814.27 3667.01 3816.58 3683.28 3816.58 3701.47V3966.71H3694.92V3700.35C3694.92 3694.9 3694.19 3689.21 3692.99 3683.43C3691.86 3677.58 3689.86 3671.97 3686.66 3666.11C3683.45 3660.52 3679.12 3654.9 3673.75 3649.45C3668.06 3643.92 3661.16 3638.78 3652.75 3634.14C3656.12 3620.19 3660.84 3606.25 3667.01 3592.3C3673.27 3578.35 3681.05 3565.12 3690.5 3552.38C3699.88 3539.55 3710.94 3527.53 3723.69 3516.63C3736.76 3505.65 3751.42 3496.19 3768.02 3487.93C3784.52 3479.75 3803.2 3473.41 3824.04 3468.69C3844.64 3464.04 3867.4 3461.55 3892.58 3461.55C3922.4 3461.55 3948.76 3464.37 3971.93 3469.74C3995.1 3475.18 4015.22 3482.56 4032.61 3492.1C4050 3501.64 4064.51 3512.94 4076.53 3526.33C4088.64 3539.55 4098.18 3553.9 4105.71 3569.37C4113.01 3584.92 4118.14 3601.27 4121.66 3618.5C4125.03 3635.82 4126.47 3653.46 4126.47 3671.17V3966.71H4002.47V3662.91C4002.47 3651.53 4000.63 3640.22 3997.1 3628.93C3993.41 3617.7 3987.32 3607.61 3978.66 3598.47C3970.25 3589.41 3958.79 3582.2 3944.92 3576.58C3930.89 3570.98 3913.58 3568 3892.58 3567.6Z" fill="#B1B4B3"/>
<path d="M4310.66 3783.26C4312.67 3813.8 4321.08 3836.32 4335.51 3850.83C4350.02 3865.5 4370.37 3872.88 4396.58 3872.88C4403.8 3872.88 4411.25 3872.08 4419.51 3870.39C4427.69 3868.87 4435.14 3866.3 4441.79 3862.53C4448.69 3858.77 4454.22 3853.64 4458.63 3847.47C4463.04 3841.06 4465.28 3833.04 4465.28 3823.33C4465.28 3816.28 4463.19 3810.11 4459.67 3804.82C4455.9 3799.37 4450.37 3794.17 4442.84 3789.27C4435.14 3784.38 4425.76 3779.49 4414.3 3774.61C4402.76 3769.63 4389.13 3764.1 4373.43 3758.09C4349.69 3749.11 4327.42 3739.97 4306.82 3730.99C4286.21 3721.94 4268.02 3711.68 4252.71 3700.13C4237.48 3688.67 4225.46 3675.37 4216.72 3660.05C4208.06 3644.74 4203.65 3626.39 4203.65 3604.99C4203.65 3587.51 4205.98 3571.88 4210.71 3558.01C4215.75 3544.15 4222.25 3532.05 4230.83 3521.47C4239.41 3511.04 4249.34 3502.06 4260.64 3494.53C4272.11 3487.24 4284.45 3481.07 4297.59 3476.33C4310.98 3471.61 4324.77 3468.16 4339.12 3466.08C4353.22 3463.91 4367.65 3462.79 4381.92 3462.79C4409.65 3462.79 4435.3 3465.67 4458.95 3471.61C4482.43 3477.54 4502.88 3487.4 4519.95 3501.35C4537.42 3515.29 4551.13 3533.97 4561.47 3557.3C4571.57 3580.7 4577.5 3609.8 4578.62 3644.74H4459.11C4458.79 3630.4 4456.54 3618.13 4452.86 3608.04C4449.01 3597.94 4443.8 3589.68 4437.46 3583.35C4431.05 3577.01 4423.68 3572.36 4415.42 3569.48C4407.09 3566.6 4398.35 3565.31 4389.53 3565.31C4382.72 3565.31 4375.91 3566.03 4369.01 3567.48C4361.96 3568.99 4355.62 3571.16 4349.86 3574.29C4344.08 3577.33 4339.27 3581.26 4335.67 3586.07C4331.98 3591.04 4330.06 3596.9 4330.06 3603.79C4330.06 3609.32 4331.82 3614.29 4335.19 3618.78C4338.55 3623.26 4343.92 3627.91 4350.9 3632.4C4358.11 3636.81 4367.49 3641.46 4378.87 3646.27C4390.34 3650.84 4404.2 3656.13 4420.71 3661.82C4454.22 3673.93 4482.03 3686.03 4504.07 3698.05C4525.8 3709.91 4543.03 3722.42 4555.86 3735.16C4568.6 3748.07 4577.26 3761.54 4581.99 3775.8C4586.96 3790.07 4589.52 3805.38 4589.52 3821.9C4589.52 3850.51 4584.31 3874.8 4574.29 3894.51C4563.88 3914.32 4550.17 3930.11 4532.29 3942.38C4514.49 3954.47 4493.65 3963.13 4469.29 3968.58C4445.32 3973.79 4419.35 3976.52 4391.86 3976.52C4364.28 3976.52 4338.55 3972.83 4314.75 3965.7C4290.7 3958.56 4269.54 3947.18 4251.43 3931.87C4233.15 3916.4 4218.64 3896.52 4207.34 3872.08C4196.28 3847.62 4189.95 3818.13 4187.94 3783.26H4310.66Z" fill="#B1B4B3"/>
<path d="M4657.15 3966.67V3472.42H4779.87V3747.36C4779.87 3769.4 4782.52 3788 4788.29 3802.91C4793.74 3817.98 4801.03 3830.17 4810.41 3839.38C4819.39 3848.76 4829.48 3855.42 4840.87 3859.5C4852.17 3863.35 4863.79 3865.52 4875.17 3865.52C4892.56 3865.52 4907.64 3863.03 4920.22 3858.15C4932.81 3853.17 4943.07 3846.36 4950.92 3837.46C4959.02 3828.64 4964.63 3818.06 4968.55 3805.48C4972.24 3793.13 4974.09 3779.42 4974.09 3764.2V3472.42H5095.84V3775.17C5095.84 3802.75 5092.8 3828.96 5086.39 3853.49C5079.98 3878.18 5069.95 3899.66 5056.17 3918.02C5042.14 3936.46 5024.42 3950.89 5002.22 3961.54C4980.42 3972.21 4953.65 3977.58 4922.3 3977.58C4891.93 3977.58 4864.36 3971.56 4839.58 3959.38C4814.73 3947.2 4793.33 3928.44 4775.22 3902.87V3966.67H4657.15Z" fill="#B1B4B3"/>
<path d="M5487.56 3740.12C5474.17 3748.54 5460.79 3754.71 5447.24 3758.48C5433.37 3762.33 5420.79 3765.37 5409.41 3767.78C5395.22 3770.58 5380.95 3773.23 5366.84 3775.8C5352.74 3778.52 5339.99 3781.81 5328.93 3785.65C5317.47 3789.66 5308.49 3794.47 5301.44 3800.41C5294.38 3806.25 5291.02 3813.95 5291.02 3823.32C5291.02 3833.59 5293.18 3842.16 5297.75 3849.22C5302.24 3856.28 5308.09 3862.05 5315.14 3866.37C5322.43 3870.62 5330.29 3873.83 5339.35 3875.67C5348.01 3877.76 5356.98 3878.71 5365.8 3878.71C5374.38 3878.71 5384.64 3877.84 5396.34 3875.99C5407.89 3874.31 5420.71 3871.58 5434.58 3867.73V3962.09C5418.14 3966.65 5402.67 3970.33 5388.65 3972.82C5374.62 3975.23 5360.43 3976.52 5346.72 3976.52C5322.6 3976.52 5299.59 3973.78 5277.95 3968.58C5256.47 3963.13 5237.31 3954.71 5221.12 3943.09C5204.85 3931.38 5191.79 3916.23 5182.32 3897.56C5172.62 3878.88 5167.9 3856.12 5167.9 3829.34C5167.9 3803.21 5173.35 3781.49 5183.85 3764.02C5194.43 3746.7 5209.58 3732.27 5228.98 3720.65C5248.46 3709.11 5272.26 3699.64 5299.75 3692.43C5327.57 3685.06 5358.26 3678.65 5392.33 3672.72C5404.2 3670.47 5415.98 3667.91 5427.52 3665.02C5438.9 3661.98 5449 3658.45 5458.06 3654.28C5466.96 3650.2 5474.17 3645.06 5479.54 3639.53C5484.92 3633.75 5487.56 3627.02 5487.56 3619.49C5487.56 3607.47 5485.24 3597.92 5480.18 3591.19C5475.53 3584.22 5468.8 3579.09 5461.02 3575.56C5453.01 3571.95 5444.11 3569.79 5434.17 3568.99C5424.16 3568.03 5414.3 3567.63 5404.44 3567.63C5390.97 3567.63 5378.79 3568.83 5367.65 3571.15C5356.58 3573.48 5347.04 3577.73 5338.87 3583.9C5330.62 3590.07 5324.04 3598.65 5319.23 3609.39C5314.1 3620.21 5311.13 3634 5310.49 3650.83H5185.05C5185.77 3626.54 5189.06 3604.98 5195.15 3586.06C5200.76 3567.31 5208.86 3550.95 5219.12 3536.84C5229.13 3522.9 5241 3511.03 5254.87 3501.49C5268.57 3491.96 5283.64 3484.26 5300.07 3478.33C5316.35 3472.24 5333.98 3467.99 5352.41 3465.51C5371.17 3462.86 5390.49 3461.58 5410.45 3461.58C5426.16 3461.58 5441.95 3462.54 5457.66 3464.54C5473.53 3466.31 5488.6 3469.43 5503.35 3473.68C5507.51 3470.96 5511.2 3467.59 5514.25 3463.58C5517.38 3459.57 5519.78 3455.17 5521.79 3450.59C5523.79 3445.95 5525.15 3441.22 5525.95 3436.49C5526.83 3431.68 5527.31 3427.27 5527.31 3423.02H5651.56C5651.56 3433.93 5650.03 3444.67 5647.23 3455.41C5644.42 3466.22 5640.33 3476.4 5635.12 3486.26C5629.84 3496.04 5623.26 3504.86 5615.57 3513.04C5607.71 3521.38 5598.9 3528.34 5588.87 3534.12C5595.53 3544.86 5600.66 3556.89 5604.34 3570.11C5607.71 3583.34 5609.47 3598.16 5609.47 3614.68V3966.65H5487.56V3740.12Z" fill="#B1B4B3"/>
<path d="M5793.43 3783.26C5795.43 3813.8 5803.92 3836.32 5818.35 3850.83C5832.7 3865.5 5853.14 3872.88 5879.27 3872.88C5886.32 3872.88 5894.26 3872.08 5902.35 3870.39C5910.54 3868.87 5917.9 3866.3 5924.8 3862.53C5931.53 3858.77 5936.99 3853.64 5941.55 3847.47C5945.88 3841.06 5948.12 3833.04 5948.12 3823.33C5948.12 3816.28 5946.2 3810.11 5942.28 3804.82C5938.83 3799.37 5933.13 3794.17 5925.52 3789.27C5918.07 3784.38 5908.53 3779.49 5897.07 3774.61C5885.61 3769.63 5871.89 3764.1 5856.19 3758.09C5832.54 3749.11 5810.18 3739.97 5789.82 3730.99C5768.97 3721.94 5750.87 3711.68 5735.63 3700.13C5720.32 3688.67 5708.3 3675.37 5699.56 3660.05C5690.82 3644.74 5686.49 3626.39 5686.49 3604.99C5686.49 3587.51 5688.82 3571.88 5693.71 3558.01C5698.52 3544.15 5705.17 3532.05 5713.67 3521.47C5722.32 3511.04 5732.02 3502.06 5743.49 3494.53C5754.95 3487.24 5767.29 3481.07 5780.44 3476.33C5793.74 3471.61 5807.53 3468.16 5821.8 3466.08C5836.06 3463.91 5850.49 3462.79 5864.92 3462.79C5892.34 3462.79 5918.07 3465.67 5941.71 3471.61C5965.2 3477.54 5985.64 3487.4 6002.71 3501.35C6020.18 3515.29 6033.89 3533.97 6044.24 3557.3C6054.57 3580.7 6060.18 3609.8 6061.47 3644.74H5942.03C5941.55 3630.4 5939.3 3618.13 5935.7 3608.04C5931.85 3597.94 5926.64 3589.68 5920.23 3583.35C5913.82 3577.01 5906.44 3572.36 5898.19 3569.48C5889.7 3566.6 5881.19 3565.31 5872.06 3565.31C5865.48 3565.31 5858.59 3566.03 5851.86 3567.48C5844.8 3568.99 5838.47 3571.16 5832.54 3574.29C5826.85 3577.33 5821.88 3581.26 5818.43 3586.07C5814.9 3591.04 5812.9 3596.9 5812.9 3603.79C5812.9 3609.32 5814.59 3614.29 5817.96 3618.78C5821.32 3623.26 5826.61 3627.91 5833.66 3632.4C5840.96 3636.81 5850.1 3641.46 5861.8 3646.27C5873.26 3650.84 5887.05 3656.13 5903.48 3661.82C5936.99 3673.93 5964.88 3686.03 5986.76 3698.05C6008.8 3709.91 6025.88 3722.42 6038.62 3735.16C6051.45 3748.07 6060.03 3761.54 6064.99 3775.8C6069.8 3790.07 6072.28 3805.38 6072.28 3821.9C6072.28 3850.51 6067.08 3874.8 6057.05 3894.51C6046.72 3914.32 6032.77 3930.11 6015.14 3942.38C5997.34 3954.47 5976.18 3963.13 5952.05 3968.58C5928.09 3973.79 5902.04 3976.52 5874.7 3976.52C5847.13 3976.52 5821.32 3972.83 5797.51 3965.7C5773.55 3958.56 5752.47 3947.18 5734.27 3931.87C5716.07 3916.4 5701.41 3896.52 5690.26 3872.08C5679.12 3847.62 5672.55 3818.13 5670.87 3783.26H5793.43Z" fill="#B1B4B3"/>
<path d="M6237.34 3783.26C6239.18 3813.8 6247.6 3836.32 6262.03 3850.83C6276.69 3865.5 6296.89 3872.88 6323.02 3872.88C6330.07 3872.88 6338.01 3872.08 6346.18 3870.39C6354.2 3868.87 6361.58 3866.3 6368.47 3862.53C6375.28 3858.77 6380.73 3853.64 6385.3 3847.47C6389.63 3841.06 6391.8 3833.04 6391.8 3823.33C6391.8 3816.28 6390.03 3810.11 6386.43 3804.82C6382.58 3799.37 6376.81 3794.17 6369.28 3789.27C6361.74 3784.38 6352.28 3779.49 6340.81 3774.61C6329.44 3769.63 6315.73 3764.1 6299.86 3758.09C6276.37 3749.11 6254.17 3739.97 6233.33 3730.99C6212.64 3721.94 6194.69 3711.68 6179.3 3700.13C6164.08 3688.67 6152.05 3675.37 6143.23 3660.05C6134.58 3644.74 6130.17 3626.39 6130.17 3604.99C6130.17 3587.51 6132.49 3571.88 6137.38 3558.01C6142.19 3544.15 6148.92 3532.05 6157.42 3521.47C6165.83 3511.04 6175.86 3502.06 6187.16 3494.53C6198.62 3487.24 6211.05 3481.07 6224.11 3476.33C6237.49 3471.61 6251.36 3468.16 6265.63 3466.08C6279.82 3463.91 6294.24 3462.79 6308.68 3462.79C6336.01 3462.79 6361.74 3465.67 6385.46 3471.61C6408.95 3477.54 6429.39 3487.4 6446.38 3501.35C6463.94 3515.29 6477.73 3533.97 6487.9 3557.3C6498.32 3580.7 6503.93 3609.8 6505.22 3644.74H6385.87C6385.3 3630.4 6383.22 3618.13 6379.37 3608.04C6375.44 3597.94 6370.32 3589.68 6363.98 3583.35C6357.57 3577.01 6350.11 3572.36 6341.85 3569.48C6333.6 3566.6 6324.95 3565.31 6315.97 3565.31C6309.23 3565.31 6302.42 3566.03 6295.53 3567.48C6288.47 3568.99 6282.14 3571.16 6276.37 3574.29C6270.52 3577.33 6265.71 3581.26 6262.34 3586.07C6258.66 3591.04 6256.81 3596.9 6256.81 3603.79C6256.81 3609.32 6258.41 3614.29 6261.71 3618.78C6265.07 3623.26 6270.36 3627.91 6277.41 3632.4C6284.79 3636.81 6293.92 3641.46 6305.55 3646.27C6317.09 3650.84 6330.8 3656.13 6346.99 3661.82C6380.73 3673.93 6408.71 3686.03 6430.51 3698.05C6452.55 3709.91 6469.63 3722.42 6482.37 3735.16C6495.11 3748.07 6503.78 3761.54 6508.74 3775.8C6513.55 3790.07 6516.12 3805.38 6516.12 3821.9C6516.12 3850.51 6510.83 3874.8 6500.81 3894.51C6490.39 3914.32 6476.6 3930.11 6458.97 3942.38C6441.09 3954.47 6420.09 3963.13 6395.97 3968.58C6371.84 3973.79 6345.86 3976.52 6318.37 3976.52C6290.96 3976.52 6265.07 3972.83 6241.18 3965.7C6217.21 3958.56 6196.29 3947.18 6178.27 3931.87C6159.91 3916.4 6145.4 3896.52 6133.93 3872.08C6122.79 3847.62 6116.38 3818.13 6114.62 3783.26H6237.34Z" fill="#B1B4B3"/>
<path d="M6914.05 3472.46L6994.52 3749.8L7054.96 3472.46H7187.69L7056 3966.71H6951.32L6868.11 3684.72L6786.2 3966.71H6681.12L6549.73 3472.46H6682.56L6742.6 3752.13L6823.39 3472.46H6914.05Z" fill="#B1B4B3"/>
<path d="M7545.59 3740.12C7532.44 3748.54 7518.82 3754.71 7505.34 3758.48C7491.56 3762.33 7478.9 3765.37 7467.44 3767.78C7453.25 3770.58 7439.14 3773.23 7425.03 3775.8C7410.92 3778.52 7398.26 3781.81 7386.96 3785.65C7375.74 3789.66 7366.52 3794.47 7359.47 3800.41C7352.74 3806.25 7349.05 3813.95 7349.05 3823.32C7349.05 3833.59 7351.37 3842.16 7355.85 3849.22C7360.35 3856.28 7366.04 3862.05 7373.41 3866.37C7380.55 3870.62 7388.56 3873.83 7397.29 3875.67C7406.28 3877.76 7415.01 3878.71 7423.75 3878.71C7432.57 3878.71 7442.59 3877.84 7454.29 3875.99C7465.91 3874.31 7478.74 3871.58 7492.84 3867.73V3962.09C7476.09 3966.65 7460.7 3970.33 7446.84 3972.82C7432.57 3975.23 7418.62 3976.52 7404.67 3976.52C7380.55 3976.52 7357.7 3973.78 7336.3 3968.58C7314.42 3963.13 7295.58 3954.71 7279.31 3943.09C7262.88 3931.38 7249.74 3916.23 7240.43 3897.56C7230.73 3878.88 7226.25 3856.12 7226.25 3829.34C7226.25 3803.21 7231.3 3781.49 7242.04 3764.02C7252.38 3746.7 7267.52 3732.27 7287.09 3720.65C7306.72 3709.11 7330.21 3699.64 7358.02 3692.43C7385.6 3685.06 7416.46 3678.65 7450.28 3672.72C7462.3 3670.47 7474.17 3667.91 7485.63 3665.02C7496.93 3661.98 7507.19 3658.45 7516.01 3654.28C7525.07 3650.2 7532.12 3645.06 7537.41 3639.53C7542.94 3633.75 7545.59 3627.02 7545.59 3619.49C7545.59 3607.47 7543.26 3597.92 7538.37 3591.19C7533.56 3584.22 7527.15 3579.09 7518.97 3575.56C7510.96 3571.95 7502.38 3569.79 7492.2 3568.99C7482.51 3568.03 7472.48 3567.63 7462.3 3567.63C7449.16 3567.63 7436.98 3568.83 7425.83 3571.15C7414.69 3573.48 7404.99 3577.73 7396.98 3583.9C7388.72 3590.07 7382.31 3598.65 7377.1 3609.39C7372.29 3620.21 7369.33 3634 7368.52 3650.83H7243.16C7243.88 3626.54 7247.17 3604.98 7253.18 3586.06C7259.02 3567.31 7266.72 3550.95 7277.22 3536.84C7287.32 3522.9 7299.11 3511.03 7312.81 3501.49C7326.6 3491.96 7341.67 3484.26 7358.18 3478.33C7374.45 3472.24 7392 3467.99 7410.45 3465.51C7429.12 3462.86 7448.67 3461.58 7468.56 3461.58C7484.18 3461.58 7500.06 3462.54 7515.85 3464.54C7531.48 3466.31 7546.87 3469.43 7561.22 3473.68C7565.63 3470.96 7569.39 3467.59 7572.36 3463.58C7575.32 3459.57 7577.65 3455.17 7579.73 3450.59C7581.74 3445.95 7583.18 3441.22 7584.06 3436.49C7584.86 3431.68 7585.34 3427.27 7585.34 3423.02H7709.5C7709.5 3433.93 7708.23 3444.67 7705.25 3455.41C7702.45 3466.22 7698.37 3476.4 7693.07 3486.26C7687.7 3496.04 7681.29 3504.86 7673.67 3513.04C7665.82 3521.38 7656.92 3528.34 7646.9 3534.12C7653.64 3544.86 7658.6 3556.89 7662.21 3570.11C7665.66 3583.34 7667.66 3598.16 7667.66 3614.68V3966.65H7545.59V3740.12Z" fill="#B1B4B3"/>
<path d="M7719.36 3645.95C7719.36 3616.05 7724.65 3589.69 7735.31 3566.83C7746.29 3543.99 7760.56 3524.76 7778.19 3509.13C7796.06 3493.58 7816.1 3481.87 7839.11 3473.7C7862.11 3465.6 7885.6 3461.59 7909.73 3461.59C7935.7 3461.59 7960.15 3465.2 7982.83 3471.93C8005.51 3478.91 8025.07 3489.16 8041.83 3503.27C8058.42 3517.3 8071.65 3535.02 8081.18 3556.58C8090.56 3577.98 8095.37 3603.31 8095.37 3632.65V3966.66H7972.33V3648.53C7972.33 3620.06 7967.05 3599.46 7956.38 3586.63C7945.72 3574.06 7929.93 3567.57 7909.73 3567.57C7891.37 3567.57 7876.71 3574.13 7865.41 3587.2C7854.18 3600.27 7847.77 3619.74 7845.68 3645.95H7719.36Z" fill="#B1B4B3"/>
<path d="M8182.14 3966.67V3472.42H8304.69V3747.36C8304.69 3769.4 8307.5 3788 8313.19 3802.91C8318.8 3817.98 8326.33 3830.17 8335.39 3839.38C8344.3 3848.76 8354.47 3855.42 8365.93 3859.5C8377.24 3863.35 8388.62 3865.52 8400.08 3865.52C8417.64 3865.52 8432.62 3863.03 8445.13 3858.15C8457.8 3853.17 8467.97 3846.36 8475.83 3837.46C8484.01 3828.64 8489.62 3818.06 8493.54 3805.48C8497.3 3793.13 8499 3779.42 8499 3764.2V3472.42H8620.99V3775.17C8620.99 3802.75 8617.86 3828.96 8611.37 3853.49C8604.96 3878.18 8594.94 3899.66 8581.08 3918.02C8567.12 3936.46 8549.25 3950.89 8527.2 3961.54C8505.41 3972.21 8478.47 3977.58 8447.21 3977.58C8416.99 3977.58 8389.42 3971.56 8364.49 3959.38C8339.96 3947.2 8318.32 3928.44 8300.21 3902.87V3966.67H8182.14Z" fill="#B1B4B3"/>
<path d="M8166.32 3402.55L8214.26 3308.53H8614.71V3402.55H8166.32Z" fill="#B1B4B3"/>
<path d="M8825.57 3656.72V3811.35L8894.43 3743.53H8859.4V3667.7H9022.19V3741.21L8806.5 3966.69H8703.02V3666.42C8703.02 3643.9 8705.66 3621.77 8711.43 3599.97C8716.96 3578.25 8726.18 3558.05 8738.85 3539.61C8751.51 3521.26 8768.26 3505.14 8789.1 3491.44C8809.94 3477.89 8835.43 3468.03 8865.65 3461.54L8941.56 3512.28L9018.59 3462.83C9048.01 3469.48 9072.45 3479.57 9092.98 3493.12C9113.17 3506.67 9129.44 3522.54 9141.95 3540.74C9154.54 3558.85 9163.59 3578.64 9169.2 3600.21C9174.82 3621.85 9177.54 3643.9 9177.54 3666.42V3966.69H9054.74V3656.72C9054.74 3643.42 9052.1 3630.51 9046.32 3617.93C9041.03 3605.43 9031.89 3594.28 9019.87 3584.66L8968.01 3615.93C8960.23 3620.17 8951.89 3622.58 8942.84 3623.22C8933.94 3623.78 8924.65 3621.46 8914.95 3615.93L8861.72 3583.22C8849.06 3593.08 8839.84 3604.39 8833.98 3617.36C8828.38 3630.35 8825.57 3643.42 8825.57 3656.72Z" fill="#B1B4B3"/>
<path d="M6165.71 1635.52C6165.71 1878.72 5968.52 2075.84 5725.33 2075.84C5482.22 2075.84 5284.96 1878.72 5284.96 1635.52C5284.96 1392.25 5482.22 1195.14 5725.33 1195.14C5968.52 1195.14 6165.71 1392.25 6165.71 1635.52Z" fill="#B1B4B3"/>
<path d="M10916.8 1320.94C10916.8 1320.94 10393.5 1338.1 10393.5 1950.02H11178.6C11178.6 1950.02 11702.1 1932.87 11702.1 1320.94H10916.8Z" fill="#B1B4B3"/>
<path d="M12225.3 2830.72C12225.3 2218.72 11702.1 2201.73 11702.1 2201.73H10393.4C10393.4 2813.57 10916.9 2830.72 10916.9 2830.72H12225.3Z" fill="#B1B4B3"/>
<path d="M12225.3 440.307C12225.3 1052.31 11702.1 1069.47 11702.1 1069.47H10393.4C10393.4 457.379 10916.9 440.307 10916.9 440.307H12225.3Z" fill="#B1B4B3"/>
<path d="M1134.64 1320.94C1134.64 1320.94 611.219 1338.1 611.219 1950.02H1396.43C1396.43 1950.02 1919.6 1932.87 1919.6 1320.94H1134.64Z" fill="#B1B4B3"/>
<path d="M2443.16 2830.72C2443.16 2218.72 1919.58 2201.73 1919.58 2201.73H611.195C611.195 2813.57 1134.61 2830.72 1134.61 2830.72H2443.16Z" fill="#B1B4B3"/>
<path d="M2443.16 440.307C2443.16 1052.31 1919.58 1069.47 1919.58 1069.47H611.195C611.195 457.379 1134.61 440.307 1134.61 440.307H2443.16Z" fill="#B1B4B3"/>
<path d="M7070.83 2081.95L6869.72 1941.19C6867.24 1939.59 6864.75 1938.23 6862.1 1937.18C6769.28 1901.91 6680.95 1883.96 6598.71 1883.96C6427.34 1883.96 6341.33 1962.11 6339.49 1963.88L6121.14 2142.06C6010.77 2238.65 5901.11 2285.63 5786.09 2285.63C5734.55 2285.63 5682.29 2276.57 5625.94 2258.06C5468.83 2206.27 5354.37 2099.75 5353.81 2098.94L4876.16 1635.47L5353.41 1172.16C5354.37 1171.11 5468.11 1064.75 5625.94 1012.89C5682.13 994.289 5734.55 985.308 5786.09 985.308C5901.11 985.308 6010.77 1032.28 6122.1 1129.6L6337.73 1305.54C6341.33 1308.74 6427.34 1386.98 6598.71 1386.98C6680.95 1386.98 6769.28 1369.03 6862.1 1333.84C6864.75 1332.71 6867.24 1331.27 6869.56 1329.75L7070.83 1188.83C7079.81 1182.58 7085.42 1172.56 7085.82 1161.82C7086.05 1150.92 7081.41 1140.33 7072.75 1133.53L6549.42 706.847C6322.42 509.656 6057.58 405.371 5783.84 405.371C5653.76 405.371 5521.98 428.692 5391.96 474.866C5105.89 576.345 4917.04 755.976 4896.6 776.016L4443.64 1215.77L4088.95 871.403C3898.1 682.237 3704.6 550.615 3513.43 480.236C3389.83 434.628 3294.37 425.171 3236.01 425.171C3228.96 425.171 3222.3 425.327 3217.66 425.49L2745.78 425.249C2727.26 425.249 2712.83 439.679 2710.83 457.956C2666.18 847.685 2550.52 884.635 2452.17 1013.52C2444.23 1024.11 2442.79 1038.21 2448.64 1050C2454.57 1061.78 2466.84 1069.4 2480.06 1069.4H3234.73C3258.86 1073.16 3404.02 1041.02 3627.49 1262.97L4011.2 1635.47L3629.82 2005.64L3627.49 2008.05C3404.02 2229.84 3258.69 2197.77 3234.73 2201.71H2480.06C2480.06 2201.71 2454.57 2209.08 2448.64 2220.94C2442.79 2232.89 2442.31 2248.68 2452.17 2257.58C2608.55 2398.82 2699.05 2615.16 2710.83 2812.99C2711.79 2831.42 2727.26 2845.85 2745.78 2845.85L3216.29 2845.45C3222.3 2845.61 3228.96 2845.85 3236.01 2845.85C3294.37 2845.85 3389.67 2836.23 3513.43 2790.63C3704.6 2720.17 3898.1 2588.63 4088.63 2399.69L4443.64 2055.18L4896.44 2494.84C4917.04 2514.97 5105.57 2694.52 5391.96 2796.08C5521.98 2842.09 5653.76 2865.57 5784.01 2865.57C6057.66 2865.57 6322.42 2761.29 6548.78 2564.82L7072.75 2137.42C7081.41 2130.61 7086.05 2120.19 7085.82 2109.28C7085.42 2098.38 7079.81 2088.36 7070.83 2081.95Z" fill="#B1B4B3"/>
<path d="M8582.13 1757.44C8364.99 1643.45 8193.21 1443.86 8193.21 1183.59C8193.21 824.644 8482.9 617.273 8790.05 507.541C9120.22 389.705 9452.7 427.625 9744.39 612.463L9880.58 715.231L10145 931.975C10047.3 1000.91 9953.84 1075.38 9836.25 1107.52C9717.62 1139.91 9560.27 1133.57 9460.72 1051.73L9378.4 1001.15C9258.49 927.568 9030.69 897.27 8899.63 957.151C8847.05 981.194 8810.58 1034.33 8810.58 1095.89C8810.58 1173.25 8868.29 1237.06 8942.83 1246.92C8942.83 1246.92 9641.39 1453.24 9755.86 1513.52C9973 1627.9 10145 1827.02 10145 2087.37C10145 2446.32 9855.09 2653.68 9548.09 2763.34C9217.77 2881.17 8885.36 2843.34 8593.59 2658.49L8457.49 2555.89L8193.21 2338.98C8290.77 2270.05 8384.38 2195.42 8501.65 2163.44C8620.52 2131.21 8777.63 2137.55 8877.43 2219.23L8959.58 2269.81C9083.91 2331.93 9307.3 2373.7 9438.68 2313.73C9491.1 2289.85 9527.41 2236.62 9527.41 2175.06C9527.41 2097.8 9469.77 2033.83 9395.15 2024.05C9395.15 2024.05 8694.99 1816.52 8582.13 1757.44Z" fill="#B1B4B3"/>
<path d="M8079.75 440.308C8079.75 683.51 7882.64 880.695 7639.69 880.695C7396.41 880.695 7199.31 683.51 7199.31 440.308C7199.31 197.112 7396.41 -0.000549316 7639.69 -0.000549316C7882.64 -0.000549316 8079.75 197.112 8079.75 440.308Z" fill="#B1B4B3"/>
<path d="M7333.45 994.727V2830.74H7945.93V994.727C7855.43 1047.63 7750.82 1078.09 7639.65 1078.09C7528.39 1078.09 7423.79 1047.63 7333.45 994.727Z" fill="#B1B4B3"/>
<path d="M1013.39 4714.28V4390.28H897V4346.92H1177.06V4390.28H1060.04V4714.28H1013.39Z" fill="#B1B4B3"/>
<path d="M1423.88 4714.28V4346.92H1470.61V4497.77H1654.32V4346.92H1700.98V4714.28H1654.32V4541.14H1470.61V4714.28H1423.88Z" fill="#B1B4B3"/>
<path d="M1977.34 4714.28V4346.92H2232.87V4390.28H2023.98V4502.74H2219.48V4545.95H2023.98V4671H2240.89V4714.28H1977.34Z" fill="#B1B4B3"/>
<path d="M3173.02 4714.28V4346.92H3428.55V4390.28H3219.99V4502.74H3415.33V4545.95H3219.99V4671H3436.81V4714.28H3173.02Z" fill="#B1B4B3"/>
<path d="M3662.84 4714.28L3799.5 4522.87L3679.11 4346.92H3734.82L3798.86 4441.11C3812.09 4460.74 3821.62 4475.73 3827.32 4486.23C3835.01 4472.92 3844.47 4458.89 3855.21 4444.47L3926.22 4346.92H3977.04L3853.05 4520.14L3986.82 4714.28H3928.96L3840.06 4583.3C3835.01 4575.69 3829.88 4567.6 3824.67 4558.78C3816.58 4572.08 3810.96 4581.3 3807.76 4586.35L3719.03 4714.28H3662.84Z" fill="#B1B4B3"/>
<path d="M4477.47 4585.5L4524.28 4597.77C4514.5 4637.68 4496.79 4668.23 4471.54 4689.07C4445.97 4710.23 4414.78 4720.57 4378.07 4720.57C4339.84 4720.57 4308.98 4712.47 4285.17 4696.44C4261.2 4680.25 4243.25 4657.01 4230.5 4626.3C4218.24 4595.76 4212.07 4562.89 4212.07 4527.87C4212.07 4489.63 4218.88 4456.21 4232.99 4427.75C4247.09 4399.29 4267.06 4377.66 4293.03 4362.9C4319 4348.16 4347.54 4340.62 4378.71 4340.62C4413.98 4340.62 4443.8 4350 4468 4368.76C4492.13 4387.44 4508.89 4413.73 4518.26 4447.64L4472.33 4458.94C4463.92 4432.33 4452.22 4412.68 4436.59 4400.5C4421.04 4388.39 4401.32 4382.22 4377.67 4382.22C4350.58 4382.22 4328.13 4389.03 4309.62 4402.5C4291.5 4416.05 4278.68 4434.33 4271.31 4457.18C4263.69 4480.02 4260.24 4503.42 4260.24 4527.63C4260.24 4558.89 4264.49 4586.14 4273.3 4609.55C4282.12 4632.79 4295.51 4650.19 4314.19 4661.74C4332.62 4673.28 4352.58 4679.05 4373.99 4679.05C4400.44 4679.05 4422.48 4671.19 4440.75 4655.48C4458.95 4639.77 4471.13 4616.36 4477.47 4585.5Z" fill="#B1B4B3"/>
<path d="M4787.27 4346.96H4834.24V4714.32H4787.27V4346.96Z" fill="#B1B4B3"/>
<path d="M5098.21 4596.35L5142.13 4592.43C5144.14 4610.7 5149.19 4625.77 5156.72 4637.56C5164.26 4649.34 5176.12 4658.88 5192.24 4666.09C5208.34 4673.39 5226.3 4676.99 5246.5 4676.99C5264.38 4676.99 5280.17 4674.27 5293.71 4668.65C5307.5 4663.12 5317.52 4655.67 5324.25 4645.97C5330.98 4636.51 5334.35 4626.09 5334.35 4614.63C5334.35 4603.09 5330.98 4592.98 5324.57 4584.33C5318.24 4575.83 5307.5 4568.54 5292.67 4562.68C5283.37 4558.92 5262.21 4552.99 5229.83 4544.81C5197.44 4536.71 5174.68 4529.1 5161.61 4521.89C5144.78 4512.67 5132.2 4501.2 5123.94 4487.66C5115.6 4474.03 5111.6 4458.8 5111.6 4441.97C5111.6 4423.38 5116.57 4406.06 5126.67 4389.95C5136.76 4373.84 5151.67 4361.57 5170.99 4353.15C5190.39 4344.82 5212.19 4340.65 5236 4340.65C5262.05 4340.65 5285.13 4345.06 5305.17 4353.8C5325.29 4362.53 5340.52 4375.52 5351.42 4392.59C5362.09 4409.66 5367.85 4428.98 5368.66 4450.47L5323.93 4454.07C5321.37 4430.74 5313.19 4413.19 5299.4 4401.32C5285.45 4389.39 5264.94 4383.61 5237.84 4383.61C5209.55 4383.61 5188.87 4388.91 5175.96 4399.73C5163.06 4410.55 5156.56 4423.53 5156.56 4438.6C5156.56 4451.91 5161.21 4462.73 5170.27 4471.31C5179.33 4479.72 5202.81 4488.54 5240.73 4497.52C5278.8 4506.25 5304.85 4514.12 5319.04 4520.85C5339.64 4530.78 5354.79 4543.21 5364.65 4558.28C5374.35 4573.42 5379.24 4590.82 5379.24 4610.62C5379.24 4630.1 5373.87 4648.53 5363.21 4665.85C5352.47 4683.08 5336.99 4696.55 5316.88 4706.17C5296.6 4715.79 5273.91 4720.6 5248.74 4720.6C5216.76 4720.6 5189.91 4715.79 5168.27 4706.09C5146.62 4696.47 5129.71 4681.8 5117.45 4662.41C5105.26 4642.93 5098.69 4620.88 5098.21 4596.35Z" fill="#B1B4B3"/>
<path d="M5641.57 4714.28V4346.92H5897.11V4390.28H5688.46V4502.74H5883.72V4545.95H5688.46V4671H5905.36V4714.28H5641.57Z" fill="#B1B4B3"/>
<path d="M6883.2 4671.03H6958.63C6982.03 4671.03 7000.15 4668.7 7013.46 4664.3C7026.68 4659.73 7037.27 4653.32 7045.2 4645.14C7056.18 4633.6 7064.99 4618.12 7071.01 4598.65C7077.34 4579.17 7080.47 4555.69 7080.47 4527.87C7080.47 4489.48 7074.38 4459.97 7062.19 4439.29C7050.01 4418.61 7035.42 4404.75 7018.03 4397.85C7005.44 4392.8 6985.09 4390.23 6957.43 4390.23H6883.2V4671.03ZM6836.39 4714.31V4346.95H6958.15C6985.56 4346.95 7006.56 4348.71 7021.07 4352.24C7041.51 4356.97 7058.59 4365.79 7072.77 4378.53C7091.45 4394.89 7105.48 4415.73 7114.61 4441.22C7123.99 4466.79 7128.72 4495.88 7128.72 4528.67C7128.72 4556.56 7125.52 4581.25 7119.26 4602.82C7112.93 4624.3 7104.92 4642.17 7095.13 4656.36C7085.27 4670.47 7074.53 4681.61 7062.92 4689.63C7051.21 4697.72 7037.1 4703.9 7020.67 4707.99C7004.23 4712.24 6985.24 4714.31 6964 4714.31H6836.39Z" fill="#B1B4B3"/>
<path d="M7391.22 4714.28V4346.92H7646.84V4390.28H7437.87V4502.74H7633.38V4545.95H7437.87V4671H7654.85V4714.28H7391.22Z" fill="#B1B4B3"/>
<path d="M7963.75 4521.59H8055.04C8085.1 4521.59 8106.66 4515.74 8119.33 4504.12C8132.23 4492.34 8138.65 4475.9 8138.65 4454.74C8138.65 4439.44 8134.88 4426.21 8127.18 4415.22C8119.64 4404.33 8110.11 4397.11 8097.77 4393.58C8089.91 4391.34 8075.4 4390.22 8053.92 4390.22H7963.75V4521.59ZM7917.1 4714.3V4346.93H8050.31C8073.79 4346.93 8091.67 4348.14 8103.85 4350.46C8121.57 4353.42 8135.92 4359.2 8147.54 4367.61C8159.25 4376.11 8168.7 4387.89 8175.84 4403.12C8183.05 4418.28 8186.65 4434.94 8186.65 4453.22C8186.65 4484.4 8177.12 4510.93 8158.04 4532.5C8138.96 4554.13 8104.33 4564.96 8054.4 4564.96H7963.75V4714.3H7917.1Z" fill="#B1B4B3"/>
<path d="M8470.2 4563.51H8589.95L8552.99 4461.71C8541.77 4430.77 8533.44 4405.35 8527.82 4385.48C8523.42 4409.12 8517.17 4432.54 8508.83 4455.62L8470.2 4563.51ZM8368.32 4714.29L8503.7 4346.92H8554.28L8698.96 4714.29H8645.65L8604.37 4603.11H8456.57L8417.93 4714.29H8368.32Z" fill="#B1B4B3"/>
<path d="M8981.19 4509.07H9081.7C9103.03 4509.07 9119.77 4506.74 9131.81 4502.26C9143.83 4497.53 9152.96 4490.32 9159.21 4480.13C9165.63 4470.04 9168.59 4458.97 9168.59 4447.19C9168.59 4429.71 9162.5 4415.53 9150.4 4404.31C9138.37 4393.16 9119.13 4387.55 9093.09 4387.55H8981.19V4509.07ZM8934.38 4714.28V4346.99H9090.93C9122.58 4346.99 9146.55 4350.28 9162.82 4356.85C9179.25 4363.5 9192.24 4375.13 9202.09 4391.81C9211.95 4408.48 9216.76 4426.92 9216.76 4447.19C9216.76 4473.24 9208.83 4495.2 9192.4 4513.08C9176.29 4530.95 9151.2 4542.34 9117.21 4547.15C9129.63 4553.4 9139.02 4559.41 9145.59 4565.42C9159.05 4578.57 9172.2 4594.76 9184.38 4614.32L9245.62 4714.28H9187.03L9140.06 4637.89C9126.43 4615.84 9115.37 4599 9106.39 4587.22C9097.49 4575.6 9089.56 4567.42 9082.5 4562.69C9075.77 4558.05 9068.56 4554.76 9061.34 4553C9056.21 4551.8 9047.4 4551.15 9035.37 4551.15H8981.19V4714.28H8934.38Z" fill="#B1B4B3"/>
<path d="M9568.58 4714.28V4390.28H9451.95V4346.92H9732.18V4390.28H9615.23V4714.28H9568.58Z" fill="#B1B4B3"/>
<path d="M9976.25 4714.28V4346.92H10046.5L10130.1 4607.11C10137.8 4631.32 10143.6 4649.35 10147.1 4661.46C10151.2 4648.16 10157.2 4628.51 10165.8 4602.54L10250.5 4346.92H10313.3V4714.28H10268.4V4406.95L10165.7 4714.28H10123.3L10021.2 4401.51V4714.28H9976.25Z" fill="#B1B4B3"/>
<path d="M10587.3 4714.28V4346.92H10842.7V4390.28H10633.9V4502.74H10829.4V4545.95H10633.9V4671H10850.9V4714.28H10587.3Z" fill="#B1B4B3"/>
<path d="M11112.5 4714.28V4346.92H11160.5L11345.9 4635.41V4346.92H11390.9V4714.28H11343L11157.2 4425.63V4714.28H11112.5Z" fill="#B1B4B3"/>
<path d="M11756.7 4714.28V4390.28H11640.4V4346.92H11920.5V4390.28H11803.6V4714.28H11756.7Z" fill="#B1B4B3"/>
<path d="M3892.58 3567.6C3876.7 3567.36 3862.52 3568.81 3850.33 3571.85C3838.07 3574.9 3827.65 3578.82 3818.99 3583.72C3810.26 3588.77 3803.04 3594.14 3797.67 3599.99C3792.3 3605.85 3788.61 3611.54 3786.85 3617.14C3796.88 3626.2 3804.48 3638.15 3809.22 3652.58C3814.27 3667.01 3816.58 3683.28 3816.58 3701.47V3966.71H3694.92V3700.35C3694.92 3694.9 3694.19 3689.21 3692.99 3683.43C3691.86 3677.58 3689.86 3671.97 3686.66 3666.11C3683.45 3660.52 3679.12 3654.9 3673.75 3649.45C3668.06 3643.92 3661.16 3638.78 3652.75 3634.14C3656.12 3620.19 3660.84 3606.25 3667.01 3592.3C3673.27 3578.35 3681.05 3565.12 3690.5 3552.38C3699.88 3539.55 3710.94 3527.53 3723.69 3516.63C3736.76 3505.65 3751.42 3496.19 3768.02 3487.93C3784.52 3479.75 3803.2 3473.41 3824.04 3468.69C3844.64 3464.04 3867.4 3461.55 3892.58 3461.55C3922.4 3461.55 3948.76 3464.37 3971.93 3469.74C3995.1 3475.18 4015.22 3482.56 4032.61 3492.1C4050 3501.64 4064.51 3512.94 4076.53 3526.33C4088.64 3539.55 4098.18 3553.9 4105.71 3569.37C4113.01 3584.92 4118.14 3601.27 4121.66 3618.5C4125.03 3635.82 4126.47 3653.46 4126.47 3671.17V3966.71H4002.47V3662.91C4002.47 3651.53 4000.63 3640.22 3997.1 3628.93C3993.41 3617.7 3987.32 3607.61 3978.66 3598.47C3970.25 3589.41 3958.79 3582.2 3944.92 3576.58C3930.89 3570.98 3913.58 3568 3892.58 3567.6Z" fill="#B1B4B3"/>
<path d="M4310.66 3783.26C4312.67 3813.8 4321.08 3836.32 4335.51 3850.83C4350.02 3865.5 4370.37 3872.88 4396.58 3872.88C4403.8 3872.88 4411.25 3872.08 4419.51 3870.39C4427.69 3868.87 4435.14 3866.3 4441.79 3862.53C4448.69 3858.77 4454.22 3853.64 4458.63 3847.47C4463.04 3841.06 4465.28 3833.04 4465.28 3823.33C4465.28 3816.28 4463.19 3810.11 4459.67 3804.82C4455.9 3799.37 4450.37 3794.17 4442.84 3789.27C4435.14 3784.38 4425.76 3779.49 4414.3 3774.61C4402.76 3769.63 4389.13 3764.1 4373.43 3758.09C4349.69 3749.11 4327.42 3739.97 4306.82 3730.99C4286.21 3721.94 4268.02 3711.68 4252.71 3700.13C4237.48 3688.67 4225.46 3675.37 4216.72 3660.05C4208.06 3644.74 4203.65 3626.39 4203.65 3604.99C4203.65 3587.51 4205.98 3571.88 4210.71 3558.01C4215.75 3544.15 4222.25 3532.05 4230.83 3521.47C4239.41 3511.04 4249.34 3502.06 4260.64 3494.53C4272.11 3487.24 4284.45 3481.07 4297.59 3476.33C4310.98 3471.61 4324.77 3468.16 4339.12 3466.08C4353.22 3463.91 4367.65 3462.79 4381.92 3462.79C4409.65 3462.79 4435.3 3465.67 4458.95 3471.61C4482.43 3477.54 4502.88 3487.4 4519.95 3501.35C4537.42 3515.29 4551.13 3533.97 4561.47 3557.3C4571.57 3580.7 4577.5 3609.8 4578.62 3644.74H4459.11C4458.79 3630.4 4456.54 3618.13 4452.86 3608.04C4449.01 3597.94 4443.8 3589.68 4437.46 3583.35C4431.05 3577.01 4423.68 3572.36 4415.42 3569.48C4407.09 3566.6 4398.35 3565.31 4389.53 3565.31C4382.72 3565.31 4375.91 3566.03 4369.01 3567.48C4361.96 3568.99 4355.62 3571.16 4349.86 3574.29C4344.08 3577.33 4339.27 3581.26 4335.67 3586.07C4331.98 3591.04 4330.06 3596.9 4330.06 3603.79C4330.06 3609.32 4331.82 3614.29 4335.19 3618.78C4338.55 3623.26 4343.92 3627.91 4350.9 3632.4C4358.11 3636.81 4367.49 3641.46 4378.87 3646.27C4390.34 3650.84 4404.2 3656.13 4420.71 3661.82C4454.22 3673.93 4482.03 3686.03 4504.07 3698.05C4525.8 3709.91 4543.03 3722.42 4555.86 3735.16C4568.6 3748.07 4577.26 3761.54 4581.99 3775.8C4586.96 3790.07 4589.52 3805.38 4589.52 3821.9C4589.52 3850.51 4584.31 3874.8 4574.29 3894.51C4563.88 3914.32 4550.17 3930.11 4532.29 3942.38C4514.49 3954.47 4493.65 3963.13 4469.29 3968.58C4445.32 3973.79 4419.35 3976.52 4391.86 3976.52C4364.28 3976.52 4338.55 3972.83 4314.75 3965.7C4290.7 3958.56 4269.54 3947.18 4251.43 3931.87C4233.15 3916.4 4218.64 3896.52 4207.34 3872.08C4196.28 3847.62 4189.95 3818.13 4187.94 3783.26H4310.66Z" fill="#B1B4B3"/>
<path d="M4657.15 3966.67V3472.42H4779.87V3747.36C4779.87 3769.4 4782.52 3788 4788.29 3802.91C4793.74 3817.98 4801.03 3830.17 4810.41 3839.38C4819.39 3848.76 4829.48 3855.42 4840.87 3859.5C4852.17 3863.35 4863.79 3865.52 4875.17 3865.52C4892.56 3865.52 4907.64 3863.03 4920.22 3858.15C4932.81 3853.17 4943.07 3846.36 4950.92 3837.46C4959.02 3828.64 4964.63 3818.06 4968.55 3805.48C4972.24 3793.13 4974.09 3779.42 4974.09 3764.2V3472.42H5095.84V3775.17C5095.84 3802.75 5092.8 3828.96 5086.39 3853.49C5079.98 3878.18 5069.95 3899.66 5056.17 3918.02C5042.14 3936.46 5024.42 3950.89 5002.22 3961.54C4980.42 3972.21 4953.65 3977.58 4922.3 3977.58C4891.93 3977.58 4864.36 3971.56 4839.58 3959.38C4814.73 3947.2 4793.33 3928.44 4775.22 3902.87V3966.67H4657.15Z" fill="#B1B4B3"/>
<path d="M5487.56 3740.12C5474.17 3748.54 5460.79 3754.71 5447.24 3758.48C5433.37 3762.33 5420.79 3765.37 5409.41 3767.78C5395.22 3770.58 5380.95 3773.23 5366.84 3775.8C5352.74 3778.52 5339.99 3781.81 5328.93 3785.65C5317.47 3789.66 5308.49 3794.47 5301.44 3800.41C5294.38 3806.25 5291.02 3813.95 5291.02 3823.32C5291.02 3833.59 5293.18 3842.16 5297.75 3849.22C5302.24 3856.28 5308.09 3862.05 5315.14 3866.37C5322.43 3870.62 5330.29 3873.83 5339.35 3875.67C5348.01 3877.76 5356.98 3878.71 5365.8 3878.71C5374.38 3878.71 5384.64 3877.84 5396.34 3875.99C5407.89 3874.31 5420.71 3871.58 5434.58 3867.73V3962.09C5418.14 3966.65 5402.67 3970.33 5388.65 3972.82C5374.62 3975.23 5360.43 3976.52 5346.72 3976.52C5322.6 3976.52 5299.59 3973.78 5277.95 3968.58C5256.47 3963.13 5237.31 3954.71 5221.12 3943.09C5204.85 3931.38 5191.79 3916.23 5182.32 3897.56C5172.62 3878.88 5167.9 3856.12 5167.9 3829.34C5167.9 3803.21 5173.35 3781.49 5183.85 3764.02C5194.43 3746.7 5209.58 3732.27 5228.98 3720.65C5248.46 3709.11 5272.26 3699.64 5299.75 3692.43C5327.57 3685.06 5358.26 3678.65 5392.33 3672.72C5404.2 3670.47 5415.98 3667.91 5427.52 3665.02C5438.9 3661.98 5449 3658.45 5458.06 3654.28C5466.96 3650.2 5474.17 3645.06 5479.54 3639.53C5484.92 3633.75 5487.56 3627.02 5487.56 3619.49C5487.56 3607.47 5485.24 3597.92 5480.18 3591.19C5475.53 3584.22 5468.8 3579.09 5461.02 3575.56C5453.01 3571.95 5444.11 3569.79 5434.17 3568.99C5424.16 3568.03 5414.3 3567.63 5404.44 3567.63C5390.97 3567.63 5378.79 3568.83 5367.65 3571.15C5356.58 3573.48 5347.04 3577.73 5338.87 3583.9C5330.62 3590.07 5324.04 3598.65 5319.23 3609.39C5314.1 3620.21 5311.13 3634 5310.49 3650.83H5185.05C5185.77 3626.54 5189.06 3604.98 5195.15 3586.06C5200.76 3567.31 5208.86 3550.95 5219.12 3536.84C5229.13 3522.9 5241 3511.03 5254.87 3501.49C5268.57 3491.96 5283.64 3484.26 5300.07 3478.33C5316.35 3472.24 5333.98 3467.99 5352.41 3465.51C5371.17 3462.86 5390.49 3461.58 5410.45 3461.58C5426.16 3461.58 5441.95 3462.54 5457.66 3464.54C5473.53 3466.31 5488.6 3469.43 5503.35 3473.68C5507.51 3470.96 5511.2 3467.59 5514.25 3463.58C5517.38 3459.57 5519.78 3455.17 5521.79 3450.59C5523.79 3445.95 5525.15 3441.22 5525.95 3436.49C5526.83 3431.68 5527.31 3427.27 5527.31 3423.02H5651.56C5651.56 3433.93 5650.03 3444.67 5647.23 3455.41C5644.42 3466.22 5640.33 3476.4 5635.12 3486.26C5629.84 3496.04 5623.26 3504.86 5615.57 3513.04C5607.71 3521.38 5598.9 3528.34 5588.87 3534.12C5595.53 3544.86 5600.66 3556.89 5604.34 3570.11C5607.71 3583.34 5609.47 3598.16 5609.47 3614.68V3966.65H5487.56V3740.12Z" fill="#B1B4B3"/>
<path d="M5793.43 3783.26C5795.43 3813.8 5803.92 3836.32 5818.35 3850.83C5832.7 3865.5 5853.14 3872.88 5879.27 3872.88C5886.32 3872.88 5894.26 3872.08 5902.35 3870.39C5910.54 3868.87 5917.9 3866.3 5924.8 3862.53C5931.53 3858.77 5936.99 3853.64 5941.55 3847.47C5945.88 3841.06 5948.12 3833.04 5948.12 3823.33C5948.12 3816.28 5946.2 3810.11 5942.28 3804.82C5938.83 3799.37 5933.13 3794.17 5925.52 3789.27C5918.07 3784.38 5908.53 3779.49 5897.07 3774.61C5885.61 3769.63 5871.89 3764.1 5856.19 3758.09C5832.54 3749.11 5810.18 3739.97 5789.82 3730.99C5768.97 3721.94 5750.87 3711.68 5735.63 3700.13C5720.32 3688.67 5708.3 3675.37 5699.56 3660.05C5690.82 3644.74 5686.49 3626.39 5686.49 3604.99C5686.49 3587.51 5688.82 3571.88 5693.71 3558.01C5698.52 3544.15 5705.17 3532.05 5713.67 3521.47C5722.32 3511.04 5732.02 3502.06 5743.49 3494.53C5754.95 3487.24 5767.29 3481.07 5780.44 3476.33C5793.74 3471.61 5807.53 3468.16 5821.8 3466.08C5836.06 3463.91 5850.49 3462.79 5864.92 3462.79C5892.34 3462.79 5918.07 3465.67 5941.71 3471.61C5965.2 3477.54 5985.64 3487.4 6002.71 3501.35C6020.18 3515.29 6033.89 3533.97 6044.24 3557.3C6054.57 3580.7 6060.18 3609.8 6061.47 3644.74H5942.03C5941.55 3630.4 5939.3 3618.13 5935.7 3608.04C5931.85 3597.94 5926.64 3589.68 5920.23 3583.35C5913.82 3577.01 5906.44 3572.36 5898.19 3569.48C5889.7 3566.6 5881.19 3565.31 5872.06 3565.31C5865.48 3565.31 5858.59 3566.03 5851.86 3567.48C5844.8 3568.99 5838.47 3571.16 5832.54 3574.29C5826.85 3577.33 5821.88 3581.26 5818.43 3586.07C5814.9 3591.04 5812.9 3596.9 5812.9 3603.79C5812.9 3609.32 5814.59 3614.29 5817.96 3618.78C5821.32 3623.26 5826.61 3627.91 5833.66 3632.4C5840.96 3636.81 5850.1 3641.46 5861.8 3646.27C5873.26 3650.84 5887.05 3656.13 5903.48 3661.82C5936.99 3673.93 5964.88 3686.03 5986.76 3698.05C6008.8 3709.91 6025.88 3722.42 6038.62 3735.16C6051.45 3748.07 6060.03 3761.54 6064.99 3775.8C6069.8 3790.07 6072.28 3805.38 6072.28 3821.9C6072.28 3850.51 6067.08 3874.8 6057.05 3894.51C6046.72 3914.32 6032.77 3930.11 6015.14 3942.38C5997.34 3954.47 5976.18 3963.13 5952.05 3968.58C5928.09 3973.79 5902.04 3976.52 5874.7 3976.52C5847.13 3976.52 5821.32 3972.83 5797.51 3965.7C5773.55 3958.56 5752.47 3947.18 5734.27 3931.87C5716.07 3916.4 5701.41 3896.52 5690.26 3872.08C5679.12 3847.62 5672.55 3818.13 5670.87 3783.26H5793.43Z" fill="#B1B4B3"/>
<path d="M6237.34 3783.26C6239.18 3813.8 6247.6 3836.32 6262.03 3850.83C6276.69 3865.5 6296.89 3872.88 6323.02 3872.88C6330.07 3872.88 6338.01 3872.08 6346.18 3870.39C6354.2 3868.87 6361.58 3866.3 6368.47 3862.53C6375.28 3858.77 6380.73 3853.64 6385.3 3847.47C6389.63 3841.06 6391.8 3833.04 6391.8 3823.33C6391.8 3816.28 6390.03 3810.11 6386.43 3804.82C6382.58 3799.37 6376.81 3794.17 6369.28 3789.27C6361.74 3784.38 6352.28 3779.49 6340.81 3774.61C6329.44 3769.63 6315.73 3764.1 6299.86 3758.09C6276.37 3749.11 6254.17 3739.97 6233.33 3730.99C6212.64 3721.94 6194.69 3711.68 6179.3 3700.13C6164.08 3688.67 6152.05 3675.37 6143.23 3660.05C6134.58 3644.74 6130.17 3626.39 6130.17 3604.99C6130.17 3587.51 6132.49 3571.88 6137.38 3558.01C6142.19 3544.15 6148.92 3532.05 6157.42 3521.47C6165.83 3511.04 6175.86 3502.06 6187.16 3494.53C6198.62 3487.24 6211.05 3481.07 6224.11 3476.33C6237.49 3471.61 6251.36 3468.16 6265.63 3466.08C6279.82 3463.91 6294.24 3462.79 6308.68 3462.79C6336.01 3462.79 6361.74 3465.67 6385.46 3471.61C6408.95 3477.54 6429.39 3487.4 6446.38 3501.35C6463.94 3515.29 6477.73 3533.97 6487.9 3557.3C6498.32 3580.7 6503.93 3609.8 6505.22 3644.74H6385.87C6385.3 3630.4 6383.22 3618.13 6379.37 3608.04C6375.44 3597.94 6370.32 3589.68 6363.98 3583.35C6357.57 3577.01 6350.11 3572.36 6341.85 3569.48C6333.6 3566.6 6324.95 3565.31 6315.97 3565.31C6309.23 3565.31 6302.42 3566.03 6295.53 3567.48C6288.47 3568.99 6282.14 3571.16 6276.37 3574.29C6270.52 3577.33 6265.71 3581.26 6262.34 3586.07C6258.66 3591.04 6256.81 3596.9 6256.81 3603.79C6256.81 3609.32 6258.41 3614.29 6261.71 3618.78C6265.07 3623.26 6270.36 3627.91 6277.41 3632.4C6284.79 3636.81 6293.92 3641.46 6305.55 3646.27C6317.09 3650.84 6330.8 3656.13 6346.99 3661.82C6380.73 3673.93 6408.71 3686.03 6430.51 3698.05C6452.55 3709.91 6469.63 3722.42 6482.37 3735.16C6495.11 3748.07 6503.78 3761.54 6508.74 3775.8C6513.55 3790.07 6516.12 3805.38 6516.12 3821.9C6516.12 3850.51 6510.83 3874.8 6500.81 3894.51C6490.39 3914.32 6476.6 3930.11 6458.97 3942.38C6441.09 3954.47 6420.09 3963.13 6395.97 3968.58C6371.84 3973.79 6345.86 3976.52 6318.37 3976.52C6290.96 3976.52 6265.07 3972.83 6241.18 3965.7C6217.21 3958.56 6196.29 3947.18 6178.27 3931.87C6159.91 3916.4 6145.4 3896.52 6133.93 3872.08C6122.79 3847.62 6116.38 3818.13 6114.62 3783.26H6237.34Z" fill="#B1B4B3"/>
<path d="M6914.05 3472.46L6994.52 3749.8L7054.96 3472.46H7187.69L7056 3966.71H6951.32L6868.11 3684.72L6786.2 3966.71H6681.12L6549.73 3472.46H6682.56L6742.6 3752.13L6823.39 3472.46H6914.05Z" fill="#B1B4B3"/>
<path d="M7545.59 3740.12C7532.44 3748.54 7518.82 3754.71 7505.34 3758.48C7491.56 3762.33 7478.9 3765.37 7467.44 3767.78C7453.25 3770.58 7439.14 3773.23 7425.03 3775.8C7410.92 3778.52 7398.26 3781.81 7386.96 3785.65C7375.74 3789.66 7366.52 3794.47 7359.47 3800.41C7352.74 3806.25 7349.05 3813.95 7349.05 3823.32C7349.05 3833.59 7351.37 3842.16 7355.85 3849.22C7360.35 3856.28 7366.04 3862.05 7373.41 3866.37C7380.55 3870.62 7388.56 3873.83 7397.29 3875.67C7406.28 3877.76 7415.01 3878.71 7423.75 3878.71C7432.57 3878.71 7442.59 3877.84 7454.29 3875.99C7465.91 3874.31 7478.74 3871.58 7492.84 3867.73V3962.09C7476.09 3966.65 7460.7 3970.33 7446.84 3972.82C7432.57 3975.23 7418.62 3976.52 7404.67 3976.52C7380.55 3976.52 7357.7 3973.78 7336.3 3968.58C7314.42 3963.13 7295.58 3954.71 7279.31 3943.09C7262.88 3931.38 7249.74 3916.23 7240.43 3897.56C7230.73 3878.88 7226.25 3856.12 7226.25 3829.34C7226.25 3803.21 7231.3 3781.49 7242.04 3764.02C7252.38 3746.7 7267.52 3732.27 7287.09 3720.65C7306.72 3709.11 7330.21 3699.64 7358.02 3692.43C7385.6 3685.06 7416.46 3678.65 7450.28 3672.72C7462.3 3670.47 7474.17 3667.91 7485.63 3665.02C7496.93 3661.98 7507.19 3658.45 7516.01 3654.28C7525.07 3650.2 7532.12 3645.06 7537.41 3639.53C7542.94 3633.75 7545.59 3627.02 7545.59 3619.49C7545.59 3607.47 7543.26 3597.92 7538.37 3591.19C7533.56 3584.22 7527.15 3579.09 7518.97 3575.56C7510.96 3571.95 7502.38 3569.79 7492.2 3568.99C7482.51 3568.03 7472.48 3567.63 7462.3 3567.63C7449.16 3567.63 7436.98 3568.83 7425.83 3571.15C7414.69 3573.48 7404.99 3577.73 7396.98 3583.9C7388.72 3590.07 7382.31 3598.65 7377.1 3609.39C7372.29 3620.21 7369.33 3634 7368.52 3650.83H7243.16C7243.88 3626.54 7247.17 3604.98 7253.18 3586.06C7259.02 3567.31 7266.72 3550.95 7277.22 3536.84C7287.32 3522.9 7299.11 3511.03 7312.81 3501.49C7326.6 3491.96 7341.67 3484.26 7358.18 3478.33C7374.45 3472.24 7392 3467.99 7410.45 3465.51C7429.12 3462.86 7448.67 3461.58 7468.56 3461.58C7484.18 3461.58 7500.06 3462.54 7515.85 3464.54C7531.48 3466.31 7546.87 3469.43 7561.22 3473.68C7565.63 3470.96 7569.39 3467.59 7572.36 3463.58C7575.32 3459.57 7577.65 3455.17 7579.73 3450.59C7581.74 3445.95 7583.18 3441.22 7584.06 3436.49C7584.86 3431.68 7585.34 3427.27 7585.34 3423.02H7709.5C7709.5 3433.93 7708.23 3444.67 7705.25 3455.41C7702.45 3466.22 7698.37 3476.4 7693.07 3486.26C7687.7 3496.04 7681.29 3504.86 7673.67 3513.04C7665.82 3521.38 7656.92 3528.34 7646.9 3534.12C7653.64 3544.86 7658.6 3556.89 7662.21 3570.11C7665.66 3583.34 7667.66 3598.16 7667.66 3614.68V3966.65H7545.59V3740.12Z" fill="#B1B4B3"/>
<path d="M7719.36 3645.95C7719.36 3616.05 7724.65 3589.69 7735.31 3566.83C7746.29 3543.99 7760.56 3524.76 7778.19 3509.13C7796.06 3493.58 7816.1 3481.87 7839.11 3473.7C7862.11 3465.6 7885.6 3461.59 7909.73 3461.59C7935.7 3461.59 7960.15 3465.2 7982.83 3471.93C8005.51 3478.91 8025.07 3489.16 8041.83 3503.27C8058.42 3517.3 8071.65 3535.02 8081.18 3556.58C8090.56 3577.98 8095.37 3603.31 8095.37 3632.65V3966.66H7972.33V3648.53C7972.33 3620.06 7967.05 3599.46 7956.38 3586.63C7945.72 3574.06 7929.93 3567.57 7909.73 3567.57C7891.37 3567.57 7876.71 3574.13 7865.41 3587.2C7854.18 3600.27 7847.77 3619.74 7845.68 3645.95H7719.36Z" fill="#B1B4B3"/>
<path d="M8182.14 3966.67V3472.42H8304.69V3747.36C8304.69 3769.4 8307.5 3788 8313.19 3802.91C8318.8 3817.98 8326.33 3830.17 8335.39 3839.38C8344.3 3848.76 8354.47 3855.42 8365.93 3859.5C8377.24 3863.35 8388.62 3865.52 8400.08 3865.52C8417.64 3865.52 8432.62 3863.03 8445.13 3858.15C8457.8 3853.17 8467.97 3846.36 8475.83 3837.46C8484.01 3828.64 8489.62 3818.06 8493.54 3805.48C8497.3 3793.13 8499 3779.42 8499 3764.2V3472.42H8620.99V3775.17C8620.99 3802.75 8617.86 3828.96 8611.37 3853.49C8604.96 3878.18 8594.94 3899.66 8581.08 3918.02C8567.12 3936.46 8549.25 3950.89 8527.2 3961.54C8505.41 3972.21 8478.47 3977.58 8447.21 3977.58C8416.99 3977.58 8389.42 3971.56 8364.49 3959.38C8339.96 3947.2 8318.32 3928.44 8300.21 3902.87V3966.67H8182.14Z" fill="#B1B4B3"/>
<path d="M8166.32 3402.55L8214.26 3308.53H8614.71V3402.55H8166.32Z" fill="#B1B4B3"/>
<path d="M8825.57 3656.72V3811.35L8894.43 3743.53H8859.4V3667.7H9022.19V3741.21L8806.5 3966.69H8703.02V3666.42C8703.02 3643.9 8705.66 3621.77 8711.43 3599.97C8716.96 3578.25 8726.18 3558.05 8738.85 3539.61C8751.51 3521.26 8768.26 3505.14 8789.1 3491.44C8809.94 3477.89 8835.43 3468.03 8865.65 3461.54L8941.56 3512.28L9018.59 3462.83C9048.01 3469.48 9072.45 3479.57 9092.98 3493.12C9113.17 3506.67 9129.44 3522.54 9141.95 3540.74C9154.54 3558.85 9163.59 3578.64 9169.2 3600.21C9174.82 3621.85 9177.54 3643.9 9177.54 3666.42V3966.69H9054.74V3656.72C9054.74 3643.42 9052.1 3630.51 9046.32 3617.93C9041.03 3605.43 9031.89 3594.28 9019.87 3584.66L8968.01 3615.93C8960.23 3620.17 8951.89 3622.58 8942.84 3623.22C8933.94 3623.78 8924.65 3621.46 8914.95 3615.93L8861.72 3583.22C8849.06 3593.08 8839.84 3604.39 8833.98 3617.36C8828.38 3630.35 8825.57 3643.42 8825.57 3656.72Z" fill="#B1B4B3"/>
<path d="M6165.71 1635.52C6165.71 1878.72 5968.52 2075.84 5725.33 2075.84C5482.22 2075.84 5284.96 1878.72 5284.96 1635.52C5284.96 1392.25 5482.22 1195.14 5725.33 1195.14C5968.52 1195.14 6165.71 1392.25 6165.71 1635.52Z" fill="#B1B4B3"/>
<path d="M10916.8 1320.94C10916.8 1320.94 10393.5 1338.1 10393.5 1950.02H11178.6C11178.6 1950.02 11702.1 1932.87 11702.1 1320.94H10916.8Z" fill="#B1B4B3"/>
<path d="M12225.3 2830.72C12225.3 2218.72 11702.1 2201.73 11702.1 2201.73H10393.4C10393.4 2813.57 10916.9 2830.72 10916.9 2830.72H12225.3Z" fill="#B1B4B3"/>
<path d="M12225.3 440.307C12225.3 1052.31 11702.1 1069.47 11702.1 1069.47H10393.4C10393.4 457.379 10916.9 440.307 10916.9 440.307H12225.3Z" fill="#B1B4B3"/>
<path d="M1134.64 1320.94C1134.64 1320.94 611.219 1338.1 611.219 1950.02H1396.43C1396.43 1950.02 1919.6 1932.87 1919.6 1320.94H1134.64Z" fill="#B1B4B3"/>
<path d="M2443.16 2830.72C2443.16 2218.72 1919.58 2201.73 1919.58 2201.73H611.195C611.195 2813.57 1134.61 2830.72 1134.61 2830.72H2443.16Z" fill="#B1B4B3"/>
<path d="M2443.16 440.307C2443.16 1052.31 1919.58 1069.47 1919.58 1069.47H611.195C611.195 457.379 1134.61 440.307 1134.61 440.307H2443.16Z" fill="#B1B4B3"/>
<path d="M7070.83 2081.95L6869.72 1941.19C6867.24 1939.59 6864.75 1938.23 6862.1 1937.18C6769.28 1901.91 6680.95 1883.96 6598.71 1883.96C6427.34 1883.96 6341.33 1962.11 6339.49 1963.88L6121.14 2142.06C6010.77 2238.65 5901.11 2285.63 5786.09 2285.63C5734.55 2285.63 5682.29 2276.57 5625.94 2258.06C5468.83 2206.27 5354.37 2099.75 5353.81 2098.94L4876.16 1635.47L5353.41 1172.16C5354.37 1171.11 5468.11 1064.75 5625.94 1012.89C5682.13 994.289 5734.55 985.308 5786.09 985.308C5901.11 985.308 6010.77 1032.28 6122.1 1129.6L6337.73 1305.54C6341.33 1308.74 6427.34 1386.98 6598.71 1386.98C6680.95 1386.98 6769.28 1369.03 6862.1 1333.84C6864.75 1332.71 6867.24 1331.27 6869.56 1329.75L7070.83 1188.83C7079.81 1182.58 7085.42 1172.56 7085.82 1161.82C7086.05 1150.92 7081.41 1140.33 7072.75 1133.53L6549.42 706.847C6322.42 509.656 6057.58 405.371 5783.84 405.371C5653.76 405.371 5521.98 428.692 5391.96 474.866C5105.89 576.345 4917.04 755.976 4896.6 776.016L4443.64 1215.77L4088.95 871.403C3898.1 682.237 3704.6 550.615 3513.43 480.236C3389.83 434.628 3294.37 425.171 3236.01 425.171C3228.96 425.171 3222.3 425.327 3217.66 425.49L2745.78 425.249C2727.26 425.249 2712.83 439.679 2710.83 457.956C2666.18 847.685 2550.52 884.635 2452.17 1013.52C2444.23 1024.11 2442.79 1038.21 2448.64 1050C2454.57 1061.78 2466.84 1069.4 2480.06 1069.4H3234.73C3258.86 1073.16 3404.02 1041.02 3627.49 1262.97L4011.2 1635.47L3629.82 2005.64L3627.49 2008.05C3404.02 2229.84 3258.69 2197.77 3234.73 2201.71H2480.06C2480.06 2201.71 2454.57 2209.08 2448.64 2220.94C2442.79 2232.89 2442.31 2248.68 2452.17 2257.58C2608.55 2398.82 2699.05 2615.16 2710.83 2812.99C2711.79 2831.42 2727.26 2845.85 2745.78 2845.85L3216.29 2845.45C3222.3 2845.61 3228.96 2845.85 3236.01 2845.85C3294.37 2845.85 3389.67 2836.23 3513.43 2790.63C3704.6 2720.17 3898.1 2588.63 4088.63 2399.69L4443.64 2055.18L4896.44 2494.84C4917.04 2514.97 5105.57 2694.52 5391.96 2796.08C5521.98 2842.09 5653.76 2865.57 5784.01 2865.57C6057.66 2865.57 6322.42 2761.29 6548.78 2564.82L7072.75 2137.42C7081.41 2130.61 7086.05 2120.19 7085.82 2109.28C7085.42 2098.38 7079.81 2088.36 7070.83 2081.95Z" fill="#B1B4B3"/>
<path d="M8582.13 1757.44C8364.99 1643.45 8193.21 1443.86 8193.21 1183.59C8193.21 824.644 8482.9 617.273 8790.05 507.541C9120.22 389.705 9452.7 427.625 9744.39 612.463L9880.58 715.231L10145 931.975C10047.3 1000.91 9953.84 1075.38 9836.25 1107.52C9717.62 1139.91 9560.27 1133.57 9460.72 1051.73L9378.4 1001.15C9258.49 927.568 9030.69 897.27 8899.63 957.151C8847.05 981.194 8810.58 1034.33 8810.58 1095.89C8810.58 1173.25 8868.29 1237.06 8942.83 1246.92C8942.83 1246.92 9641.39 1453.24 9755.86 1513.52C9973 1627.9 10145 1827.02 10145 2087.37C10145 2446.32 9855.09 2653.68 9548.09 2763.34C9217.77 2881.17 8885.36 2843.34 8593.59 2658.49L8457.49 2555.89L8193.21 2338.98C8290.77 2270.05 8384.38 2195.42 8501.65 2163.44C8620.52 2131.21 8777.63 2137.55 8877.43 2219.23L8959.58 2269.81C9083.91 2331.93 9307.3 2373.7 9438.68 2313.73C9491.1 2289.85 9527.41 2236.62 9527.41 2175.06C9527.41 2097.8 9469.77 2033.83 9395.15 2024.05C9395.15 2024.05 8694.99 1816.52 8582.13 1757.44Z" fill="#B1B4B3"/>
<path d="M8079.75 440.308C8079.75 683.51 7882.64 880.695 7639.69 880.695C7396.41 880.695 7199.31 683.51 7199.31 440.308C7199.31 197.112 7396.41 -0.000549316 7639.69 -0.000549316C7882.64 -0.000549316 8079.75 197.112 8079.75 440.308Z" fill="#B1B4B3"/>
<path d="M7333.45 994.727V2830.74H7945.93V994.727C7855.43 1047.63 7750.82 1078.09 7639.65 1078.09C7528.39 1078.09 7423.79 1047.63 7333.45 994.727Z" fill="#B1B4B3"/>
</svg>
