<svg width="12226" height="4721" viewBox="0 0 12226 4721" fill="none" xmlns="http://www.w3.org/2000/svg">
<path d="M503.218 1321.02C503.218 1321.02 0 1338.18 0 1950.1H503.218V1321.02Z" fill="#004B98"/>
<path d="M1013.39 4714.34V4390.35H897V4346.99H1177.06V4390.35H1060.04V4714.34H1013.39Z" fill="#004B98"/>
<path d="M1423.88 4714.34V4346.99H1470.61V4497.83H1654.32V4346.99H1700.98V4714.34H1654.32V4541.2H1470.61V4714.34H1423.88Z" fill="#004B98"/>
<path d="M1977.34 4714.34V4346.99H2232.87V4390.35H2023.98V4502.81H2219.48V4546.01H2023.98V4671.06H2240.89V4714.34H1977.34Z" fill="#004B98"/>
<path d="M3173.02 4714.34V4346.99H3428.55V4390.35H3219.99V4502.81H3415.33V4546.01H3219.99V4671.06H3436.81V4714.34H3173.02Z" fill="#004B98"/>
<path d="M3662.84 4714.34L3799.5 4522.93L3679.11 4346.99H3734.82L3798.86 4441.17C3812.09 4460.81 3821.62 4475.8 3827.32 4486.29C3835.01 4472.98 3844.47 4458.96 3855.21 4444.53L3926.22 4346.99H3977.04L3853.05 4520.2L3986.82 4714.34H3928.96L3840.06 4583.37C3835.01 4575.76 3829.88 4567.66 3824.67 4558.84C3816.58 4572.15 3810.96 4581.36 3807.76 4586.41L3719.03 4714.34H3662.84Z" fill="#004B98"/>
<path d="M4477.47 4585.57L4524.28 4597.84C4514.5 4637.75 4496.79 4668.3 4471.54 4689.14C4445.97 4710.3 4414.78 4720.64 4378.07 4720.64C4339.84 4720.64 4308.98 4712.54 4285.17 4696.51C4261.2 4680.32 4243.25 4657.08 4230.5 4626.37C4218.24 4595.83 4212.07 4562.96 4212.07 4527.94C4212.07 4489.7 4218.88 4456.28 4232.99 4427.82C4247.09 4399.37 4267.06 4377.73 4293.03 4362.97C4319 4348.23 4347.54 4340.69 4378.71 4340.69C4413.98 4340.69 4443.8 4350.07 4468 4368.83C4492.13 4387.51 4508.89 4413.8 4518.26 4447.71L4472.33 4459.01C4463.92 4432.4 4452.22 4412.75 4436.59 4400.57C4421.04 4388.46 4401.32 4382.29 4377.67 4382.29C4350.58 4382.29 4328.13 4389.1 4309.62 4402.57C4291.5 4416.12 4278.68 4434.4 4271.31 4457.25C4263.69 4480.09 4260.24 4503.49 4260.24 4527.7C4260.24 4558.96 4264.49 4586.21 4273.3 4609.62C4282.12 4632.86 4295.51 4650.26 4314.19 4661.81C4332.62 4673.35 4352.58 4679.12 4373.99 4679.12C4400.44 4679.12 4422.48 4671.26 4440.75 4655.55C4458.95 4639.84 4471.13 4616.43 4477.47 4585.57Z" fill="#004B98"/>
<path d="M4787.27 4347.02H4834.25V4714.38H4787.27V4347.02Z" fill="#004B98"/>
<path d="M5098.21 4596.41L5142.13 4592.49C5144.14 4610.76 5149.19 4625.83 5156.72 4637.62C5164.26 4649.4 5176.12 4658.94 5192.24 4666.15C5208.34 4673.45 5226.3 4677.06 5246.5 4677.06C5264.38 4677.06 5280.17 4674.33 5293.71 4668.72C5307.5 4663.19 5317.52 4655.73 5324.25 4646.03C5330.98 4636.58 5334.35 4626.15 5334.35 4614.69C5334.35 4603.15 5330.98 4593.05 5324.57 4584.39C5318.24 4575.9 5307.5 4568.6 5292.67 4562.75C5283.37 4558.98 5262.21 4553.05 5229.83 4544.87C5197.44 4536.78 5174.68 4529.16 5161.61 4521.95C5144.78 4512.73 5132.2 4501.27 5123.94 4487.72C5115.6 4474.1 5111.6 4458.87 5111.6 4442.03C5111.6 4423.44 5116.57 4406.13 5126.67 4390.01C5136.76 4373.9 5151.67 4361.63 5170.99 4353.22C5190.39 4344.88 5212.19 4340.71 5236 4340.71C5262.05 4340.71 5285.13 4345.12 5305.17 4353.86C5325.29 4362.59 5340.52 4375.58 5351.42 4392.65C5362.09 4409.73 5367.85 4429.04 5368.66 4450.53L5323.93 4454.13C5321.37 4430.81 5313.19 4413.25 5299.4 4401.39C5285.45 4389.45 5264.94 4383.68 5237.84 4383.68C5209.55 4383.68 5188.87 4388.97 5175.96 4399.79C5163.06 4410.61 5156.56 4423.6 5156.56 4438.66C5156.56 4451.97 5161.21 4462.79 5170.27 4471.37C5179.33 4479.79 5202.81 4488.61 5240.73 4497.58C5278.8 4506.32 5304.85 4514.18 5319.04 4520.91C5339.64 4530.84 5354.79 4543.27 5364.65 4558.34C5374.35 4573.49 5379.24 4590.88 5379.24 4610.68C5379.24 4630.16 5373.87 4648.59 5363.21 4665.91C5352.47 4683.14 5336.99 4696.61 5316.88 4706.23C5296.6 4715.85 5273.91 4720.66 5248.74 4720.66C5216.76 4720.66 5189.91 4715.85 5168.27 4706.15C5146.62 4696.53 5129.71 4681.86 5117.45 4662.47C5105.26 4642.99 5098.69 4620.94 5098.21 4596.41Z" fill="#004B98"/>
<path d="M5641.57 4714.34V4346.99H5897.11V4390.35H5688.46V4502.81H5883.72V4546.01H5688.46V4671.06H5905.36V4714.34H5641.57Z" fill="#004B98"/>
<path d="M6883.2 4671.09H6958.62C6982.03 4671.09 7000.15 4668.77 7013.45 4664.36C7026.68 4659.79 7037.26 4653.38 7045.2 4645.2C7056.18 4633.66 7064.99 4618.19 7071 4598.71C7077.34 4579.23 7080.47 4555.75 7080.47 4527.94C7080.47 4489.54 7074.37 4460.04 7062.18 4439.36C7050.01 4418.67 7035.41 4404.81 7018.02 4397.92C7005.44 4392.86 6985.08 4390.29 6957.43 4390.29H6883.2V4671.09ZM6836.39 4714.38V4347.02H6958.14C6985.56 4347.02 7006.56 4348.77 7021.06 4352.3C7041.51 4357.03 7058.58 4365.85 7072.77 4378.6C7091.45 4394.95 7105.47 4415.79 7114.61 4441.28C7123.99 4466.85 7128.71 4495.95 7128.71 4528.74C7128.71 4556.63 7125.51 4581.31 7119.26 4602.88C7112.92 4624.36 7104.91 4642.24 7095.13 4656.42C7085.27 4670.53 7074.53 4681.67 7062.91 4689.69C7051.2 4697.78 7037.1 4703.96 7020.67 4708.05C7004.23 4712.3 6985.24 4714.38 6964 4714.38H6836.39Z" fill="#004B98"/>
<path d="M7391.23 4714.34V4346.99H7646.84V4390.35H7437.87V4502.81H7633.38V4546.01H7437.87V4671.06H7654.85V4714.34H7391.23Z" fill="#004B98"/>
<path d="M7963.75 4521.65H8055.05C8085.1 4521.65 8106.67 4515.8 8119.33 4504.18C8132.23 4492.4 8138.65 4475.97 8138.65 4454.81C8138.65 4439.5 8134.88 4426.27 8127.18 4415.29C8119.65 4404.39 8110.11 4397.17 8097.77 4393.64C8089.91 4391.4 8075.41 4390.28 8053.92 4390.28H7963.75V4521.65ZM7917.1 4714.36V4346.99H8050.32C8073.8 4346.99 8091.68 4348.2 8103.86 4350.52C8121.58 4353.48 8135.92 4359.26 8147.55 4367.67C8159.25 4376.17 8168.71 4387.95 8175.84 4403.18C8183.06 4418.34 8186.66 4435 8186.66 4453.28C8186.66 4484.46 8177.12 4510.99 8158.05 4532.56C8138.96 4554.2 8104.34 4565.02 8054.41 4565.02H7963.75V4714.36H7917.1Z" fill="#004B98"/>
<path d="M8470.19 4563.58H8589.95L8552.99 4461.78C8541.77 4430.84 8533.43 4405.43 8527.82 4385.55C8523.41 4409.19 8517.17 4432.61 8508.83 4455.69L8470.19 4563.58ZM8368.31 4714.36L8503.69 4346.99H8554.28L8698.95 4714.36H8645.65L8604.37 4603.18H8456.56L8417.93 4714.36H8368.31Z" fill="#004B98"/>
<path d="M8981.19 4509.13H9081.71C9103.03 4509.13 9119.78 4506.8 9131.81 4502.32C9143.83 4497.59 9152.96 4490.38 9159.21 4480.2C9165.63 4470.1 9168.6 4459.04 9168.6 4447.25C9168.6 4429.77 9162.51 4415.59 9150.4 4404.37C9138.38 4393.22 9119.14 4387.61 9093.09 4387.61H8981.19V4509.13ZM8934.38 4714.34V4347.05H9090.93C9122.58 4347.05 9146.55 4350.34 9162.82 4356.91C9179.25 4363.56 9192.24 4375.19 9202.1 4391.87C9211.96 4408.54 9216.77 4426.98 9216.77 4447.25C9216.77 4473.3 9208.83 4495.26 9192.4 4513.14C9176.29 4531.02 9151.2 4542.4 9117.22 4547.21C9129.64 4553.46 9139.02 4559.47 9145.6 4565.48C9159.06 4578.63 9172.2 4594.82 9184.39 4614.38L9245.63 4714.34H9187.03L9140.06 4637.95C9126.43 4615.9 9115.37 4599.07 9106.39 4587.29C9097.5 4575.67 9089.56 4567.49 9082.51 4562.75C9075.78 4558.11 9068.57 4554.83 9061.35 4553.06C9056.22 4551.86 9047.4 4551.21 9035.38 4551.21H8981.19V4714.34H8934.38Z" fill="#004B98"/>
<path d="M9568.58 4714.34V4390.35H9451.95V4346.99H9732.18V4390.35H9615.23V4714.34H9568.58Z" fill="#004B98"/>
<path d="M9976.26 4714.34V4346.99H10046.6L10130.1 4607.17C10137.8 4631.38 10143.6 4649.41 10147.1 4661.52C10151.2 4648.22 10157.2 4628.58 10165.8 4602.6L10250.5 4346.99H10313.3V4714.34H10268.4V4407.02L10165.7 4714.34H10123.3L10021.2 4401.57V4714.34H9976.26Z" fill="#004B98"/>
<path d="M10587.3 4714.34V4346.99H10842.7V4390.35H10633.9V4502.81H10829.4V4546.01H10633.9V4671.06H10850.9V4714.34H10587.3Z" fill="#004B98"/>
<path d="M11112.5 4714.34V4346.99H11160.5L11345.9 4635.47V4346.99H11390.9V4714.34H11343L11157.2 4425.7V4714.34H11112.5Z" fill="#004B98"/>
<path d="M11756.7 4714.34V4390.35H11640.4V4346.99H11920.5V4390.35H11803.6V4714.34H11756.7Z" fill="#004B98"/>
<path d="M3892.58 3567.67C3876.71 3567.42 3862.52 3568.87 3850.34 3571.92C3838.07 3574.96 3827.65 3578.89 3819 3583.78C3810.26 3588.83 3803.04 3594.2 3797.67 3600.05C3792.3 3605.91 3788.61 3611.6 3786.86 3617.2C3796.88 3626.26 3804.49 3638.21 3809.22 3652.64C3814.27 3667.07 3816.59 3683.34 3816.59 3701.53V3966.77H3694.92V3700.41C3694.92 3694.96 3694.19 3689.27 3692.99 3683.5C3691.87 3677.64 3689.86 3672.03 3686.66 3666.18C3683.45 3660.58 3679.12 3654.96 3673.76 3649.51C3668.07 3643.98 3661.17 3638.85 3652.76 3634.2C3656.12 3620.25 3660.85 3606.31 3667.02 3592.36C3673.27 3578.41 3681.05 3565.19 3690.51 3552.44C3699.89 3539.61 3710.95 3527.59 3723.69 3516.69C3736.76 3505.71 3751.42 3496.25 3768.02 3488C3784.53 3479.82 3803.21 3473.48 3824.05 3468.76C3844.65 3464.1 3867.41 3461.62 3892.58 3461.62C3922.4 3461.62 3948.77 3464.43 3971.94 3469.8C3995.1 3475.25 4015.22 3482.62 4032.61 3492.16C4050.01 3501.7 4064.52 3513 4076.54 3526.39C4088.64 3539.61 4098.18 3553.96 4105.72 3569.44C4113.01 3584.98 4118.14 3601.34 4121.66 3618.56C4125.03 3635.88 4126.48 3653.52 4126.48 3671.23V3966.77H4002.47V3662.97C4002.47 3651.6 4000.63 3640.28 3997.11 3628.99C3993.42 3617.76 3987.32 3607.67 3978.67 3598.53C3970.25 3589.47 3958.79 3582.26 3944.92 3576.65C3930.89 3571.04 3913.58 3568.06 3892.58 3567.67Z" fill="#004B98"/>
<path d="M4310.67 3783.33C4312.67 3813.87 4321.08 3836.39 4335.51 3850.9C4350.02 3865.57 4370.38 3872.95 4396.59 3872.95C4403.81 3872.95 4411.26 3872.15 4419.52 3870.46C4427.69 3868.94 4435.14 3866.37 4441.8 3862.61C4448.7 3858.84 4454.22 3853.71 4458.63 3847.54C4463.04 3841.13 4465.29 3833.11 4465.29 3823.4C4465.29 3816.35 4463.2 3810.18 4459.67 3804.89C4455.91 3799.44 4450.38 3794.24 4442.84 3789.34C4435.14 3784.45 4425.77 3779.56 4414.3 3774.68C4402.76 3769.7 4389.13 3764.17 4373.43 3758.16C4349.7 3749.18 4327.42 3740.04 4306.82 3731.06C4286.21 3722.01 4268.02 3711.75 4252.71 3700.2C4237.48 3688.74 4225.46 3675.44 4216.72 3660.12C4208.06 3644.81 4203.66 3626.46 4203.66 3605.06C4203.66 3587.58 4205.98 3571.95 4210.71 3558.08C4215.76 3544.22 4222.25 3532.12 4230.83 3521.54C4239.41 3511.11 4249.34 3502.13 4260.65 3494.6C4272.11 3487.31 4284.46 3481.14 4297.6 3476.4C4310.99 3471.68 4324.77 3468.23 4339.12 3466.15C4353.23 3463.98 4367.66 3462.86 4381.92 3462.86C4409.66 3462.86 4435.31 3465.74 4458.95 3471.68C4482.44 3477.61 4502.88 3487.47 4519.95 3501.42C4537.42 3515.36 4551.14 3534.04 4561.47 3557.37C4571.57 3580.77 4577.5 3609.87 4578.63 3644.81H4459.12C4458.79 3630.47 4456.55 3618.2 4452.86 3608.11C4449.01 3598.01 4443.8 3589.75 4437.47 3583.42C4431.06 3577.08 4423.68 3572.44 4415.42 3569.55C4407.09 3566.67 4398.35 3565.38 4389.54 3565.38C4382.72 3565.38 4375.91 3566.1 4369.02 3567.55C4361.96 3569.06 4355.63 3571.23 4349.86 3574.36C4344.09 3577.4 4339.28 3581.33 4335.67 3586.14C4331.99 3591.11 4330.06 3596.97 4330.06 3603.86C4330.06 3609.39 4331.83 3614.36 4335.19 3618.85C4338.56 3623.33 4343.93 3627.98 4350.9 3632.47C4358.11 3636.89 4367.49 3641.53 4378.88 3646.34C4390.34 3650.91 4404.21 3656.2 4420.72 3661.89C4454.22 3674 4482.03 3686.1 4504.08 3698.12C4525.8 3709.98 4543.04 3722.49 4555.86 3735.23C4568.6 3748.14 4577.26 3761.61 4581.99 3775.87C4586.96 3790.14 4589.52 3805.45 4589.52 3821.97C4589.52 3850.58 4584.32 3874.87 4574.29 3894.58C4563.88 3914.39 4550.17 3930.18 4532.29 3942.45C4514.5 3954.54 4493.66 3963.21 4469.3 3968.65C4445.32 3973.86 4419.35 3976.59 4391.86 3976.59C4364.29 3976.59 4338.56 3972.9 4314.75 3965.77C4290.7 3958.63 4269.54 3947.25 4251.43 3931.94C4233.15 3916.47 4218.65 3896.59 4207.34 3872.15C4196.28 3847.69 4189.95 3818.2 4187.95 3783.33H4310.67Z" fill="#004B98"/>
<path d="M4657.15 3966.73V3472.48H4779.86V3747.42C4779.86 3769.46 4782.51 3788.06 4788.29 3802.98C4793.73 3818.04 4801.02 3830.23 4810.4 3839.45C4819.38 3848.82 4829.48 3855.48 4840.87 3859.56C4852.17 3863.42 4863.79 3865.58 4875.17 3865.58C4892.56 3865.58 4907.63 3863.09 4920.22 3858.21C4932.8 3853.23 4943.06 3846.42 4950.92 3837.52C4959.01 3828.7 4964.62 3818.12 4968.55 3805.54C4972.24 3793.19 4974.08 3779.49 4974.08 3764.26V3472.48H5095.84V3775.24C5095.84 3802.81 5092.79 3829.02 5086.38 3853.55C5079.97 3878.24 5069.95 3899.72 5056.16 3918.08C5042.14 3936.52 5024.42 3950.95 5002.22 3961.6C4980.41 3972.27 4953.64 3977.64 4922.3 3977.64C4891.92 3977.64 4864.35 3971.63 4839.58 3959.44C4814.73 3947.26 4793.33 3928.5 4775.22 3902.93V3966.73H4657.15Z" fill="#004B98"/>
<path d="M5487.56 3740.19C5474.17 3748.61 5460.79 3754.79 5447.24 3758.55C5433.37 3762.4 5420.79 3765.44 5409.41 3767.85C5395.22 3770.65 5380.95 3773.3 5366.84 3775.87C5352.74 3778.59 5339.99 3781.88 5328.93 3785.72C5317.47 3789.73 5308.49 3794.54 5301.44 3800.48C5294.38 3806.32 5291.02 3814.02 5291.02 3823.39C5291.02 3833.66 5293.18 3842.23 5297.75 3849.29C5302.24 3856.35 5308.09 3862.12 5315.14 3866.44C5322.43 3870.69 5330.29 3873.9 5339.35 3875.74C5348.01 3877.83 5356.98 3878.78 5365.8 3878.78C5374.38 3878.78 5384.64 3877.91 5396.34 3876.06C5407.89 3874.38 5420.71 3871.65 5434.58 3867.8V3962.16C5418.14 3966.73 5402.67 3970.4 5388.65 3972.89C5374.62 3975.3 5360.43 3976.59 5346.72 3976.59C5322.6 3976.59 5299.59 3973.85 5277.95 3968.65C5256.47 3963.2 5237.31 3954.78 5221.12 3943.16C5204.85 3931.45 5191.79 3916.3 5182.32 3897.63C5172.62 3878.95 5167.9 3856.19 5167.9 3829.41C5167.9 3803.28 5173.35 3781.56 5183.85 3764.09C5194.43 3746.77 5209.58 3732.34 5228.98 3720.72C5248.46 3709.18 5272.26 3699.71 5299.75 3692.5C5327.57 3685.13 5358.26 3678.72 5392.33 3672.79C5404.2 3670.54 5415.98 3667.98 5427.52 3665.09C5438.9 3662.05 5449 3658.52 5458.06 3654.35C5466.96 3650.27 5474.17 3645.13 5479.54 3639.6C5484.92 3633.83 5487.56 3627.09 5487.56 3619.56C5487.56 3607.54 5485.24 3597.99 5480.18 3591.26C5475.53 3584.29 5468.8 3579.16 5461.02 3575.63C5453.01 3572.02 5444.11 3569.86 5434.17 3569.06C5424.16 3568.1 5414.3 3567.7 5404.44 3567.7C5390.97 3567.7 5378.79 3568.9 5367.65 3571.22C5356.58 3573.55 5347.04 3577.8 5338.87 3583.97C5330.62 3590.14 5324.04 3598.72 5319.23 3609.46C5314.1 3620.28 5311.13 3634.07 5310.49 3650.9H5185.05C5185.77 3626.61 5189.06 3605.05 5195.15 3586.13C5200.76 3567.38 5208.86 3551.02 5219.12 3536.92C5229.13 3522.97 5241 3511.1 5254.87 3501.56C5268.57 3492.03 5283.64 3484.33 5300.07 3478.4C5316.35 3472.31 5333.98 3468.06 5352.41 3465.58C5371.17 3462.93 5390.49 3461.65 5410.45 3461.65C5426.16 3461.65 5441.95 3462.61 5457.66 3464.62C5473.53 3466.38 5488.6 3469.5 5503.35 3473.75C5507.51 3471.03 5511.2 3467.66 5514.25 3463.65C5517.38 3459.64 5519.78 3455.24 5521.79 3450.66C5523.79 3446.02 5525.15 3441.29 5525.95 3436.56C5526.83 3431.75 5527.31 3427.34 5527.31 3423.09H5651.56C5651.56 3434 5650.03 3444.74 5647.23 3455.48C5644.42 3466.29 5640.33 3476.47 5635.12 3486.34C5629.84 3496.11 5623.26 3504.93 5615.57 3513.11C5607.71 3521.45 5598.9 3528.41 5588.87 3534.19C5595.53 3544.93 5600.66 3556.96 5604.34 3570.18C5607.71 3583.41 5609.47 3598.23 5609.47 3614.75V3966.73H5487.56V3740.19Z" fill="#004B98"/>
<path d="M5793.43 3783.33C5795.43 3813.87 5803.92 3836.39 5818.35 3850.9C5832.7 3865.57 5853.14 3872.95 5879.27 3872.95C5886.32 3872.95 5894.26 3872.15 5902.35 3870.46C5910.54 3868.94 5917.9 3866.37 5924.8 3862.61C5931.53 3858.84 5936.99 3853.71 5941.55 3847.54C5945.88 3841.13 5948.12 3833.11 5948.12 3823.4C5948.12 3816.35 5946.2 3810.18 5942.28 3804.89C5938.83 3799.44 5933.13 3794.24 5925.52 3789.34C5918.07 3784.45 5908.53 3779.56 5897.07 3774.68C5885.61 3769.7 5871.89 3764.17 5856.19 3758.16C5832.54 3749.18 5810.18 3740.04 5789.82 3731.06C5768.97 3722.01 5750.87 3711.75 5735.63 3700.2C5720.32 3688.74 5708.3 3675.44 5699.56 3660.12C5690.82 3644.81 5686.49 3626.46 5686.49 3605.06C5686.49 3587.58 5688.82 3571.95 5693.71 3558.08C5698.52 3544.22 5705.17 3532.12 5713.67 3521.54C5722.32 3511.11 5732.02 3502.13 5743.49 3494.6C5754.95 3487.31 5767.29 3481.14 5780.44 3476.4C5793.74 3471.68 5807.53 3468.23 5821.8 3466.15C5836.06 3463.98 5850.49 3462.86 5864.92 3462.86C5892.34 3462.86 5918.07 3465.74 5941.71 3471.68C5965.2 3477.61 5985.64 3487.47 6002.71 3501.42C6020.18 3515.36 6033.89 3534.04 6044.24 3557.37C6054.57 3580.77 6060.18 3609.87 6061.47 3644.81H5942.03C5941.55 3630.47 5939.3 3618.2 5935.7 3608.11C5931.85 3598.01 5926.64 3589.75 5920.23 3583.42C5913.82 3577.08 5906.44 3572.44 5898.19 3569.55C5889.7 3566.67 5881.19 3565.38 5872.06 3565.38C5865.48 3565.38 5858.59 3566.1 5851.86 3567.55C5844.8 3569.06 5838.47 3571.23 5832.54 3574.36C5826.85 3577.4 5821.88 3581.33 5818.43 3586.14C5814.9 3591.11 5812.9 3596.97 5812.9 3603.86C5812.9 3609.39 5814.59 3614.36 5817.96 3618.85C5821.32 3623.33 5826.61 3627.98 5833.66 3632.47C5840.96 3636.89 5850.1 3641.53 5861.8 3646.34C5873.26 3650.91 5887.05 3656.2 5903.48 3661.89C5936.99 3674 5964.88 3686.1 5986.76 3698.12C6008.8 3709.98 6025.88 3722.49 6038.62 3735.23C6051.45 3748.14 6060.03 3761.61 6064.99 3775.87C6069.8 3790.14 6072.28 3805.45 6072.28 3821.97C6072.28 3850.58 6067.08 3874.87 6057.05 3894.58C6046.72 3914.39 6032.77 3930.18 6015.14 3942.45C5997.34 3954.54 5976.18 3963.21 5952.05 3968.65C5928.09 3973.86 5902.04 3976.59 5874.7 3976.59C5847.13 3976.59 5821.32 3972.9 5797.51 3965.77C5773.55 3958.63 5752.47 3947.25 5734.27 3931.94C5716.07 3916.47 5701.41 3896.59 5690.26 3872.15C5679.12 3847.69 5672.55 3818.2 5670.87 3783.33H5793.43Z" fill="#004B98"/>
<path d="M6237.34 3783.33C6239.18 3813.87 6247.6 3836.39 6262.03 3850.9C6276.69 3865.57 6296.89 3872.95 6323.02 3872.95C6330.07 3872.95 6338.01 3872.15 6346.18 3870.46C6354.2 3868.94 6361.58 3866.37 6368.47 3862.61C6375.28 3858.84 6380.73 3853.71 6385.3 3847.54C6389.63 3841.13 6391.8 3833.11 6391.8 3823.4C6391.8 3816.35 6390.03 3810.18 6386.43 3804.89C6382.58 3799.44 6376.81 3794.24 6369.28 3789.34C6361.74 3784.45 6352.28 3779.56 6340.81 3774.68C6329.44 3769.7 6315.73 3764.17 6299.86 3758.16C6276.37 3749.18 6254.17 3740.04 6233.33 3731.06C6212.64 3722.01 6194.69 3711.75 6179.3 3700.2C6164.08 3688.74 6152.05 3675.44 6143.23 3660.12C6134.58 3644.81 6130.17 3626.46 6130.17 3605.06C6130.17 3587.58 6132.49 3571.95 6137.38 3558.08C6142.19 3544.22 6148.92 3532.12 6157.42 3521.54C6165.83 3511.11 6175.86 3502.13 6187.16 3494.6C6198.62 3487.31 6211.05 3481.14 6224.11 3476.4C6237.49 3471.68 6251.36 3468.23 6265.63 3466.15C6279.82 3463.98 6294.24 3462.86 6308.68 3462.86C6336.01 3462.86 6361.74 3465.74 6385.46 3471.68C6408.95 3477.61 6429.39 3487.47 6446.38 3501.42C6463.94 3515.36 6477.73 3534.04 6487.9 3557.37C6498.32 3580.77 6503.93 3609.87 6505.22 3644.81H6385.87C6385.3 3630.47 6383.22 3618.2 6379.37 3608.11C6375.44 3598.01 6370.32 3589.75 6363.98 3583.42C6357.57 3577.08 6350.11 3572.44 6341.85 3569.55C6333.6 3566.67 6324.95 3565.38 6315.97 3565.38C6309.23 3565.38 6302.42 3566.1 6295.53 3567.55C6288.47 3569.06 6282.14 3571.23 6276.37 3574.36C6270.52 3577.4 6265.71 3581.33 6262.34 3586.14C6258.66 3591.11 6256.81 3596.97 6256.81 3603.86C6256.81 3609.39 6258.41 3614.36 6261.71 3618.85C6265.07 3623.33 6270.36 3627.98 6277.41 3632.47C6284.79 3636.89 6293.92 3641.53 6305.55 3646.34C6317.09 3650.91 6330.8 3656.2 6346.99 3661.89C6380.73 3674 6408.71 3686.1 6430.51 3698.12C6452.55 3709.98 6469.63 3722.49 6482.37 3735.23C6495.11 3748.14 6503.78 3761.61 6508.74 3775.87C6513.55 3790.14 6516.12 3805.45 6516.12 3821.97C6516.12 3850.58 6510.83 3874.87 6500.81 3894.58C6490.39 3914.39 6476.6 3930.18 6458.97 3942.45C6441.09 3954.54 6420.09 3963.21 6395.97 3968.65C6371.84 3973.86 6345.86 3976.59 6318.37 3976.59C6290.96 3976.59 6265.07 3972.9 6241.18 3965.77C6217.21 3958.63 6196.29 3947.25 6178.27 3931.94C6159.91 3916.47 6145.4 3896.59 6133.93 3872.15C6122.79 3847.69 6116.38 3818.2 6114.62 3783.33H6237.34Z" fill="#004B98"/>
<path d="M6914.05 3472.53L6994.52 3749.87L7054.96 3472.53H7187.69L7056 3966.78H6951.32L6868.11 3684.79L6786.2 3966.78H6681.12L6549.73 3472.53H6682.56L6742.6 3752.2L6823.39 3472.53H6914.05Z" fill="#004B98"/>
<path d="M7545.59 3740.19C7532.44 3748.61 7518.82 3754.79 7505.35 3758.55C7491.56 3762.4 7478.9 3765.44 7467.44 3767.85C7453.25 3770.65 7439.14 3773.3 7425.04 3775.87C7410.93 3778.59 7398.26 3781.88 7386.96 3785.72C7375.74 3789.73 7366.52 3794.54 7359.47 3800.48C7352.74 3806.32 7349.05 3814.02 7349.05 3823.39C7349.05 3833.66 7351.37 3842.23 7355.86 3849.29C7360.35 3856.35 7366.04 3862.12 7373.41 3866.44C7380.55 3870.69 7388.56 3873.9 7397.3 3875.74C7406.28 3877.83 7415.01 3878.78 7423.76 3878.78C7432.57 3878.78 7442.59 3877.91 7454.29 3876.06C7465.92 3874.38 7478.74 3871.65 7492.85 3867.8V3962.16C7476.1 3966.73 7460.7 3970.4 7446.84 3972.89C7432.57 3975.3 7418.62 3976.59 7404.68 3976.59C7380.55 3976.59 7357.71 3973.85 7336.3 3968.65C7314.42 3963.2 7295.59 3954.78 7279.32 3943.16C7262.88 3931.45 7249.74 3916.3 7240.44 3897.63C7230.73 3878.95 7226.25 3856.19 7226.25 3829.41C7226.25 3803.28 7231.3 3781.56 7242.04 3764.09C7252.38 3746.77 7267.53 3732.34 7287.09 3720.72C7306.72 3709.18 7330.21 3699.71 7358.02 3692.5C7385.6 3685.13 7416.46 3678.72 7450.29 3672.79C7462.31 3670.54 7474.17 3667.98 7485.63 3665.09C7496.93 3662.05 7507.2 3658.52 7516.01 3654.35C7525.07 3650.27 7532.12 3645.13 7537.42 3639.6C7542.95 3633.83 7545.59 3627.09 7545.59 3619.56C7545.59 3607.54 7543.26 3597.99 7538.37 3591.26C7533.56 3584.29 7527.15 3579.16 7518.98 3575.63C7510.97 3572.02 7502.39 3569.86 7492.21 3569.06C7482.51 3568.1 7472.49 3567.7 7462.31 3567.7C7449.16 3567.7 7436.98 3568.9 7425.83 3571.22C7414.7 3573.55 7405 3577.8 7396.98 3583.97C7388.73 3590.14 7382.31 3598.72 7377.1 3609.46C7372.29 3620.28 7369.33 3634.07 7368.52 3650.9H7243.17C7243.88 3626.61 7247.17 3605.05 7253.18 3586.13C7259.03 3567.38 7266.73 3551.02 7277.23 3536.92C7287.33 3522.97 7299.11 3511.1 7312.82 3501.56C7326.6 3492.03 7341.67 3484.33 7358.19 3478.4C7374.46 3472.31 7392.01 3468.06 7410.45 3465.58C7429.13 3462.93 7448.68 3461.65 7468.56 3461.65C7484.19 3461.65 7500.06 3462.61 7515.85 3464.62C7531.48 3466.38 7546.87 3469.5 7561.22 3473.75C7565.63 3471.03 7569.39 3467.66 7572.36 3463.65C7575.32 3459.64 7577.65 3455.24 7579.74 3450.66C7581.74 3446.02 7583.19 3441.29 7584.06 3436.56C7584.86 3431.75 7585.35 3427.34 7585.35 3423.09H7709.51C7709.51 3434 7708.23 3444.74 7705.26 3455.48C7702.46 3466.29 7698.37 3476.47 7693.08 3486.34C7687.7 3496.11 7681.3 3504.93 7673.68 3513.11C7665.83 3521.45 7656.92 3528.41 7646.91 3534.19C7653.64 3544.93 7658.61 3556.96 7662.21 3570.18C7665.66 3583.41 7667.67 3598.23 7667.67 3614.75V3966.73H7545.59V3740.19Z" fill="#004B98"/>
<path d="M7719.36 3646.02C7719.36 3616.12 7724.65 3589.76 7735.31 3566.9C7746.29 3544.06 7760.56 3524.83 7778.19 3509.2C7796.06 3493.65 7816.1 3481.94 7839.11 3473.77C7862.11 3465.67 7885.6 3461.66 7909.73 3461.66C7935.7 3461.66 7960.15 3465.27 7982.83 3472C8005.51 3478.98 8025.07 3489.23 8041.83 3503.34C8058.42 3517.37 8071.65 3535.09 8081.18 3556.65C8090.56 3578.05 8095.37 3603.38 8095.37 3632.72V3966.73H7972.33V3648.6C7972.33 3620.13 7967.05 3599.53 7956.38 3586.7C7945.72 3574.13 7929.93 3567.64 7909.73 3567.64C7891.37 3567.64 7876.71 3574.2 7865.41 3587.27C7854.18 3600.34 7847.77 3619.81 7845.68 3646.02H7719.36Z" fill="#004B98"/>
<path d="M8182.14 3966.73V3472.48H8304.69V3747.42C8304.69 3769.46 8307.5 3788.06 8313.19 3802.98C8318.8 3818.04 8326.33 3830.23 8335.39 3839.45C8344.3 3848.82 8354.47 3855.48 8365.93 3859.56C8377.24 3863.42 8388.62 3865.58 8400.08 3865.58C8417.64 3865.58 8432.62 3863.09 8445.13 3858.21C8457.8 3853.23 8467.97 3846.42 8475.83 3837.52C8484.01 3828.7 8489.62 3818.12 8493.54 3805.54C8497.3 3793.19 8499 3779.49 8499 3764.26V3472.48H8620.99V3775.24C8620.99 3802.81 8617.86 3829.02 8611.37 3853.55C8604.96 3878.24 8594.94 3899.72 8581.08 3918.08C8567.12 3936.52 8549.25 3950.95 8527.2 3961.6C8505.41 3972.27 8478.47 3977.64 8447.21 3977.64C8416.99 3977.64 8389.42 3971.63 8364.49 3959.44C8339.96 3947.26 8318.32 3928.5 8300.21 3902.93V3966.73H8182.14Z" fill="#004B98"/>
<path d="M8166.32 3402.62L8214.26 3308.6H8614.71V3402.62H8166.32Z" fill="#004B98"/>
<path d="M8825.57 3656.79V3811.42L8894.43 3743.6H8859.4V3667.77H9022.19V3741.28L8806.5 3966.76H8703.02V3666.49C8703.02 3643.97 8705.66 3621.84 8711.43 3600.04C8716.96 3578.32 8726.18 3558.12 8738.85 3539.68C8751.51 3521.33 8768.26 3505.21 8789.1 3491.51C8809.94 3477.96 8835.43 3468.1 8865.65 3461.61L8941.56 3512.35L9018.59 3462.9C9048.01 3469.55 9072.45 3479.64 9092.98 3493.19C9113.17 3506.74 9129.44 3522.61 9141.95 3540.81C9154.54 3558.92 9163.59 3578.71 9169.2 3600.28C9174.82 3621.92 9177.54 3643.97 9177.54 3666.49V3966.76H9054.74V3656.79C9054.74 3643.49 9052.1 3630.58 9046.32 3618C9041.03 3605.5 9031.89 3594.35 9019.87 3584.73L8968.01 3616C8960.23 3620.24 8951.89 3622.65 8942.84 3623.29C8933.94 3623.85 8924.65 3621.53 8914.95 3616L8861.72 3583.29C8849.06 3593.15 8839.84 3604.46 8833.98 3617.44C8828.38 3630.42 8825.57 3643.49 8825.57 3656.79Z" fill="#004B98"/>
<path d="M6165.71 1635.58C6165.71 1878.79 5968.53 2075.9 5725.34 2075.9C5482.23 2075.9 5284.96 1878.79 5284.96 1635.58C5284.96 1392.31 5482.23 1195.2 5725.34 1195.2C5968.53 1195.2 6165.71 1392.31 6165.71 1635.58Z" fill="#004B98"/>
<path d="M10916.8 1320.95C10916.8 1320.95 10393.5 1338.1 10393.5 1950.03H11178.6C11178.6 1950.03 11702.1 1932.87 11702.1 1320.95H10916.8Z" fill="#004B98"/>
<path d="M12225.3 2830.78C12225.3 2218.78 11702.1 2201.79 11702.1 2201.79H10393.4C10393.4 2813.63 10916.8 2830.78 10916.8 2830.78H12225.3Z" fill="#004B98"/>
<path d="M12225.3 440.314C12225.3 1052.32 11702.1 1069.48 11702.1 1069.48H10393.4C10393.4 457.387 10916.8 440.314 10916.8 440.314H12225.3Z" fill="#004B98"/>
<path d="M1134.64 1320.95C1134.64 1320.95 611.219 1338.1 611.219 1950.03H1396.43C1396.43 1950.03 1919.6 1932.87 1919.6 1320.95H1134.64Z" fill="#004B98"/>
<path d="M2443.16 2830.78C2443.16 2218.78 1919.58 2201.79 1919.58 2201.79H611.195C611.195 2813.63 1134.61 2830.78 1134.61 2830.78H2443.16Z" fill="#004B98"/>
<path d="M2443.16 440.314C2443.16 1052.32 1919.58 1069.48 1919.58 1069.48H611.195C611.195 457.387 1134.61 440.314 1134.61 440.314H2443.16Z" fill="#004B98"/>
<path d="M7070.83 2082.01L6869.72 1941.26C6867.24 1939.65 6864.76 1938.29 6862.11 1937.25C6769.29 1901.98 6680.95 1884.02 6598.71 1884.02C6427.34 1884.02 6341.34 1962.18 6339.49 1963.94L6121.15 2142.13C6010.77 2238.72 5901.12 2285.69 5786.09 2285.69C5734.55 2285.69 5682.29 2276.64 5625.94 2258.12C5468.84 2206.33 5354.37 2099.81 5353.81 2099L4876.17 1635.54L5353.42 1172.22C5354.37 1171.18 5468.11 1064.81 5625.94 1012.95C5682.13 994.352 5734.55 985.37 5786.09 985.37C5901.12 985.37 6010.77 1032.34 6122.1 1129.66L6337.73 1305.6C6341.34 1308.81 6427.34 1387.04 6598.71 1387.04C6680.95 1387.04 6769.29 1369.09 6862.11 1333.9C6864.76 1332.77 6867.24 1331.33 6869.56 1329.81L7070.83 1188.89C7079.81 1182.65 7085.42 1172.62 7085.82 1161.88C7086.06 1150.98 7081.42 1140.4 7072.75 1133.59L6549.42 706.909C6322.42 509.718 6057.58 405.433 5783.85 405.433C5653.76 405.433 5521.98 428.755 5391.97 474.928C5105.89 576.407 4917.04 756.038 4896.61 776.079L4443.65 1215.83L4088.95 871.466C3898.1 682.299 3704.61 550.678 3513.44 480.298C3389.84 434.691 3294.37 425.233 3236.02 425.233C3228.96 425.233 3222.31 425.39 3217.66 425.552L2745.78 425.311C2727.27 425.311 2712.84 439.741 2710.83 458.018C2666.19 847.747 2550.52 884.698 2452.17 1013.59C2444.24 1024.17 2442.79 1038.27 2448.64 1050.06C2454.58 1061.84 2466.84 1069.46 2480.07 1069.46H3234.73C3258.86 1073.23 3404.02 1041.09 3627.49 1263.04L4011.21 1635.54L3629.82 2005.7L3627.49 2008.11C3404.02 2229.9 3258.7 2197.83 3234.73 2201.77H2480.07C2480.07 2201.77 2454.58 2209.15 2448.64 2221.01C2442.79 2232.95 2442.32 2248.74 2452.17 2257.64C2608.55 2398.88 2699.05 2615.22 2710.83 2813.05C2711.79 2831.49 2727.27 2845.92 2745.78 2845.92L3216.29 2845.51C3222.31 2845.67 3228.96 2845.92 3236.02 2845.92C3294.37 2845.92 3389.67 2836.3 3513.44 2790.69C3704.61 2720.23 3898.1 2588.69 4088.63 2399.76L4443.65 2055.24L4896.44 2494.9C4917.04 2515.03 5105.57 2694.58 5391.97 2796.14C5521.98 2842.15 5653.76 2865.63 5784.01 2865.63C6057.66 2865.63 6322.42 2761.35 6548.78 2564.89L7072.75 2137.48C7081.42 2130.67 7086.06 2120.25 7085.82 2109.35C7085.42 2098.44 7079.81 2088.42 7070.83 2082.01Z" fill="#004B98"/>
<path d="M8582.13 1757.51C8364.99 1643.52 8193.21 1443.93 8193.21 1183.66C8193.21 824.714 8482.9 617.344 8790.05 507.611C9120.21 389.776 9452.7 427.696 9744.38 612.534L9880.57 715.301L10145 932.045C10047.3 1000.98 9953.83 1075.45 9836.25 1107.59C9717.61 1139.98 9560.27 1133.64 9460.72 1051.8L9378.39 1001.22C9258.48 927.639 9030.68 897.34 8899.62 957.221C8847.05 981.265 8810.57 1034.4 8810.57 1095.96C8810.57 1173.32 8868.28 1237.13 8942.83 1246.99C8942.83 1246.99 9641.39 1453.31 9755.85 1513.59C9972.99 1627.98 10145 1827.09 10145 2087.44C10145 2446.39 9855.08 2653.75 9548.09 2763.41C9217.77 2881.24 8885.36 2843.41 8593.59 2658.56L8457.48 2555.96L8193.21 2339.05C8290.76 2270.12 8384.38 2195.49 8501.65 2163.51C8620.52 2131.28 8777.63 2137.62 8877.42 2219.3L8959.58 2269.88C9083.9 2332 9307.3 2373.77 9438.67 2313.8C9491.09 2289.92 9527.4 2236.69 9527.4 2175.13C9527.4 2097.87 9469.77 2033.9 9395.15 2024.12C9395.15 2024.12 8694.98 1816.59 8582.13 1757.51Z" fill="#004B98"/>
<path d="M8079.75 440.308C8079.75 683.51 7882.64 880.695 7639.69 880.695C7396.41 880.695 7199.31 683.51 7199.31 440.308C7199.31 197.112 7396.41 -0.000549316 7639.69 -0.000549316C7882.64 -0.000549316 8079.75 197.112 8079.75 440.308Z" fill="#004B98"/>
<path d="M7333.45 994.789V2830.8H7945.93V994.789C7855.43 1047.69 7750.82 1078.15 7639.65 1078.15C7528.39 1078.15 7423.79 1047.69 7333.45 994.789Z" fill="#004B98"/>
<path d="M1013.39 4714.34V4390.35H897V4346.99H1177.06V4390.35H1060.04V4714.34H1013.39Z" fill="#004B98"/>
<path d="M1423.88 4714.34V4346.99H1470.61V4497.83H1654.32V4346.99H1700.98V4714.34H1654.32V4541.2H1470.61V4714.34H1423.88Z" fill="#004B98"/>
<path d="M1977.34 4714.34V4346.99H2232.87V4390.35H2023.98V4502.81H2219.48V4546.01H2023.98V4671.06H2240.89V4714.34H1977.34Z" fill="#004B98"/>
<path d="M3173.02 4714.34V4346.99H3428.55V4390.35H3219.99V4502.81H3415.33V4546.01H3219.99V4671.06H3436.81V4714.34H3173.02Z" fill="#004B98"/>
<path d="M3662.84 4714.34L3799.5 4522.93L3679.11 4346.99H3734.82L3798.86 4441.17C3812.09 4460.81 3821.62 4475.8 3827.32 4486.29C3835.01 4472.98 3844.47 4458.96 3855.21 4444.53L3926.22 4346.99H3977.04L3853.05 4520.2L3986.82 4714.34H3928.96L3840.06 4583.37C3835.01 4575.76 3829.88 4567.66 3824.67 4558.84C3816.58 4572.15 3810.96 4581.36 3807.76 4586.41L3719.03 4714.34H3662.84Z" fill="#004B98"/>
<path d="M4477.47 4585.57L4524.28 4597.84C4514.5 4637.75 4496.79 4668.3 4471.54 4689.14C4445.97 4710.3 4414.78 4720.64 4378.07 4720.64C4339.84 4720.64 4308.98 4712.54 4285.17 4696.51C4261.2 4680.32 4243.25 4657.08 4230.5 4626.37C4218.24 4595.83 4212.07 4562.96 4212.07 4527.94C4212.07 4489.7 4218.88 4456.28 4232.99 4427.82C4247.09 4399.37 4267.06 4377.73 4293.03 4362.97C4319 4348.23 4347.54 4340.69 4378.71 4340.69C4413.98 4340.69 4443.8 4350.07 4468 4368.83C4492.13 4387.51 4508.89 4413.8 4518.26 4447.71L4472.33 4459.01C4463.92 4432.4 4452.22 4412.75 4436.59 4400.57C4421.04 4388.46 4401.32 4382.29 4377.67 4382.29C4350.58 4382.29 4328.13 4389.1 4309.62 4402.57C4291.5 4416.12 4278.68 4434.4 4271.31 4457.25C4263.69 4480.09 4260.24 4503.49 4260.24 4527.7C4260.24 4558.96 4264.49 4586.21 4273.3 4609.62C4282.12 4632.86 4295.51 4650.26 4314.19 4661.81C4332.62 4673.35 4352.58 4679.12 4373.99 4679.12C4400.44 4679.12 4422.48 4671.26 4440.75 4655.55C4458.95 4639.84 4471.13 4616.43 4477.47 4585.57Z" fill="#004B98"/>
<path d="M4787.27 4347.02H4834.25V4714.38H4787.27V4347.02Z" fill="#004B98"/>
<path d="M5098.21 4596.41L5142.13 4592.49C5144.14 4610.76 5149.19 4625.83 5156.72 4637.62C5164.26 4649.4 5176.12 4658.94 5192.24 4666.15C5208.34 4673.45 5226.3 4677.06 5246.5 4677.06C5264.38 4677.06 5280.17 4674.33 5293.71 4668.72C5307.5 4663.19 5317.52 4655.73 5324.25 4646.03C5330.98 4636.58 5334.35 4626.15 5334.35 4614.69C5334.35 4603.15 5330.98 4593.05 5324.57 4584.39C5318.24 4575.9 5307.5 4568.6 5292.67 4562.75C5283.37 4558.98 5262.21 4553.05 5229.83 4544.87C5197.44 4536.78 5174.68 4529.16 5161.61 4521.95C5144.78 4512.73 5132.2 4501.27 5123.94 4487.72C5115.6 4474.1 5111.6 4458.87 5111.6 4442.03C5111.6 4423.44 5116.57 4406.13 5126.67 4390.01C5136.76 4373.9 5151.67 4361.63 5170.99 4353.22C5190.39 4344.88 5212.19 4340.71 5236 4340.71C5262.05 4340.71 5285.13 4345.12 5305.17 4353.86C5325.29 4362.59 5340.52 4375.58 5351.42 4392.65C5362.09 4409.73 5367.85 4429.04 5368.66 4450.53L5323.93 4454.13C5321.37 4430.81 5313.19 4413.25 5299.4 4401.39C5285.45 4389.45 5264.94 4383.68 5237.84 4383.68C5209.55 4383.68 5188.87 4388.97 5175.96 4399.79C5163.06 4410.61 5156.56 4423.6 5156.56 4438.66C5156.56 4451.97 5161.21 4462.79 5170.27 4471.37C5179.33 4479.79 5202.81 4488.61 5240.73 4497.58C5278.8 4506.32 5304.85 4514.18 5319.04 4520.91C5339.64 4530.84 5354.79 4543.27 5364.65 4558.34C5374.35 4573.49 5379.24 4590.88 5379.24 4610.68C5379.24 4630.16 5373.87 4648.59 5363.21 4665.91C5352.47 4683.14 5336.99 4696.61 5316.88 4706.23C5296.6 4715.85 5273.91 4720.66 5248.74 4720.66C5216.76 4720.66 5189.91 4715.85 5168.27 4706.15C5146.62 4696.53 5129.71 4681.86 5117.45 4662.47C5105.26 4642.99 5098.69 4620.94 5098.21 4596.41Z" fill="#004B98"/>
<path d="M5641.57 4714.34V4346.99H5897.11V4390.35H5688.46V4502.81H5883.72V4546.01H5688.46V4671.06H5905.36V4714.34H5641.57Z" fill="#004B98"/>
<path d="M6883.2 4671.09H6958.62C6982.03 4671.09 7000.15 4668.77 7013.45 4664.36C7026.68 4659.79 7037.26 4653.38 7045.2 4645.2C7056.18 4633.66 7064.99 4618.19 7071 4598.71C7077.34 4579.23 7080.47 4555.75 7080.47 4527.94C7080.47 4489.54 7074.37 4460.04 7062.18 4439.36C7050.01 4418.67 7035.41 4404.81 7018.02 4397.92C7005.44 4392.86 6985.08 4390.29 6957.43 4390.29H6883.2V4671.09ZM6836.39 4714.38V4347.02H6958.14C6985.56 4347.02 7006.56 4348.77 7021.06 4352.3C7041.51 4357.03 7058.58 4365.85 7072.77 4378.6C7091.45 4394.95 7105.47 4415.79 7114.61 4441.28C7123.99 4466.85 7128.71 4495.95 7128.71 4528.74C7128.71 4556.63 7125.51 4581.31 7119.26 4602.88C7112.92 4624.36 7104.91 4642.24 7095.13 4656.42C7085.27 4670.53 7074.53 4681.67 7062.91 4689.69C7051.2 4697.78 7037.1 4703.96 7020.67 4708.05C7004.23 4712.3 6985.24 4714.38 6964 4714.38H6836.39Z" fill="#004B98"/>
<path d="M7391.23 4714.34V4346.99H7646.84V4390.35H7437.87V4502.81H7633.38V4546.01H7437.87V4671.06H7654.85V4714.34H7391.23Z" fill="#004B98"/>
<path d="M7963.75 4521.65H8055.05C8085.1 4521.65 8106.67 4515.8 8119.33 4504.18C8132.23 4492.4 8138.65 4475.97 8138.65 4454.81C8138.65 4439.5 8134.88 4426.27 8127.18 4415.29C8119.65 4404.39 8110.11 4397.17 8097.77 4393.64C8089.91 4391.4 8075.41 4390.28 8053.92 4390.28H7963.75V4521.65ZM7917.1 4714.36V4346.99H8050.32C8073.8 4346.99 8091.68 4348.2 8103.86 4350.52C8121.58 4353.48 8135.92 4359.26 8147.55 4367.67C8159.25 4376.17 8168.71 4387.95 8175.84 4403.18C8183.06 4418.34 8186.66 4435 8186.66 4453.28C8186.66 4484.46 8177.12 4510.99 8158.05 4532.56C8138.96 4554.2 8104.34 4565.02 8054.41 4565.02H7963.75V4714.36H7917.1Z" fill="#004B98"/>
<path d="M8470.19 4563.58H8589.95L8552.99 4461.78C8541.77 4430.84 8533.43 4405.43 8527.82 4385.55C8523.41 4409.19 8517.17 4432.61 8508.83 4455.69L8470.19 4563.58ZM8368.31 4714.36L8503.69 4346.99H8554.28L8698.95 4714.36H8645.65L8604.37 4603.18H8456.56L8417.93 4714.36H8368.31Z" fill="#004B98"/>
<path d="M8981.19 4509.13H9081.71C9103.03 4509.13 9119.78 4506.8 9131.81 4502.32C9143.83 4497.59 9152.96 4490.38 9159.21 4480.2C9165.63 4470.1 9168.6 4459.04 9168.6 4447.25C9168.6 4429.77 9162.51 4415.59 9150.4 4404.37C9138.38 4393.22 9119.14 4387.61 9093.09 4387.61H8981.19V4509.13ZM8934.38 4714.34V4347.05H9090.93C9122.58 4347.05 9146.55 4350.34 9162.82 4356.91C9179.25 4363.56 9192.24 4375.19 9202.1 4391.87C9211.96 4408.54 9216.77 4426.98 9216.77 4447.25C9216.77 4473.3 9208.83 4495.26 9192.4 4513.14C9176.29 4531.02 9151.2 4542.4 9117.22 4547.21C9129.64 4553.46 9139.02 4559.47 9145.6 4565.48C9159.06 4578.63 9172.2 4594.82 9184.39 4614.38L9245.63 4714.34H9187.03L9140.06 4637.95C9126.43 4615.9 9115.37 4599.07 9106.39 4587.29C9097.5 4575.67 9089.56 4567.49 9082.51 4562.75C9075.78 4558.11 9068.57 4554.83 9061.35 4553.06C9056.22 4551.86 9047.4 4551.21 9035.38 4551.21H8981.19V4714.34H8934.38Z" fill="#004B98"/>
<path d="M9568.58 4714.34V4390.35H9451.95V4346.99H9732.18V4390.35H9615.23V4714.34H9568.58Z" fill="#004B98"/>
<path d="M9976.26 4714.34V4346.99H10046.6L10130.1 4607.17C10137.8 4631.38 10143.6 4649.41 10147.1 4661.52C10151.2 4648.22 10157.2 4628.58 10165.8 4602.6L10250.5 4346.99H10313.3V4714.34H10268.4V4407.02L10165.7 4714.34H10123.3L10021.2 4401.57V4714.34H9976.26Z" fill="#004B98"/>
<path d="M10587.3 4714.34V4346.99H10842.7V4390.35H10633.9V4502.81H10829.4V4546.01H10633.9V4671.06H10850.9V4714.34H10587.3Z" fill="#004B98"/>
<path d="M11112.5 4714.34V4346.99H11160.5L11345.9 4635.47V4346.99H11390.9V4714.34H11343L11157.2 4425.7V4714.34H11112.5Z" fill="#004B98"/>
<path d="M11756.7 4714.34V4390.35H11640.4V4346.99H11920.5V4390.35H11803.6V4714.34H11756.7Z" fill="#004B98"/>
<path d="M3892.58 3567.67C3876.71 3567.42 3862.52 3568.87 3850.34 3571.92C3838.07 3574.96 3827.65 3578.89 3819 3583.78C3810.26 3588.83 3803.04 3594.2 3797.67 3600.05C3792.3 3605.91 3788.61 3611.6 3786.86 3617.2C3796.88 3626.26 3804.49 3638.21 3809.22 3652.64C3814.27 3667.07 3816.59 3683.34 3816.59 3701.53V3966.77H3694.92V3700.41C3694.92 3694.96 3694.19 3689.27 3692.99 3683.5C3691.87 3677.64 3689.86 3672.03 3686.66 3666.18C3683.45 3660.58 3679.12 3654.96 3673.76 3649.51C3668.07 3643.98 3661.17 3638.85 3652.76 3634.2C3656.12 3620.25 3660.85 3606.31 3667.02 3592.36C3673.27 3578.41 3681.05 3565.19 3690.51 3552.44C3699.89 3539.61 3710.95 3527.59 3723.69 3516.69C3736.76 3505.71 3751.42 3496.25 3768.02 3488C3784.53 3479.82 3803.21 3473.48 3824.05 3468.76C3844.65 3464.1 3867.41 3461.62 3892.58 3461.62C3922.4 3461.62 3948.77 3464.43 3971.94 3469.8C3995.1 3475.25 4015.22 3482.62 4032.61 3492.16C4050.01 3501.7 4064.52 3513 4076.54 3526.39C4088.64 3539.61 4098.18 3553.96 4105.72 3569.44C4113.01 3584.98 4118.14 3601.34 4121.66 3618.56C4125.03 3635.88 4126.48 3653.52 4126.48 3671.23V3966.77H4002.47V3662.97C4002.47 3651.6 4000.63 3640.28 3997.11 3628.99C3993.42 3617.76 3987.32 3607.67 3978.67 3598.53C3970.25 3589.47 3958.79 3582.26 3944.92 3576.65C3930.89 3571.04 3913.58 3568.06 3892.58 3567.67Z" fill="#004B98"/>
<path d="M4310.67 3783.33C4312.67 3813.87 4321.08 3836.39 4335.51 3850.9C4350.02 3865.57 4370.38 3872.95 4396.59 3872.95C4403.81 3872.95 4411.26 3872.15 4419.52 3870.46C4427.69 3868.94 4435.14 3866.37 4441.8 3862.61C4448.7 3858.84 4454.22 3853.71 4458.63 3847.54C4463.04 3841.13 4465.29 3833.11 4465.29 3823.4C4465.29 3816.35 4463.2 3810.18 4459.67 3804.89C4455.91 3799.44 4450.38 3794.24 4442.84 3789.34C4435.14 3784.45 4425.77 3779.56 4414.3 3774.68C4402.76 3769.7 4389.13 3764.17 4373.43 3758.16C4349.7 3749.18 4327.42 3740.04 4306.82 3731.06C4286.21 3722.01 4268.02 3711.75 4252.71 3700.2C4237.48 3688.74 4225.46 3675.44 4216.72 3660.12C4208.06 3644.81 4203.66 3626.46 4203.66 3605.06C4203.66 3587.58 4205.98 3571.95 4210.71 3558.08C4215.76 3544.22 4222.25 3532.12 4230.83 3521.54C4239.41 3511.11 4249.34 3502.13 4260.65 3494.6C4272.11 3487.31 4284.46 3481.14 4297.6 3476.4C4310.99 3471.68 4324.77 3468.23 4339.12 3466.15C4353.23 3463.98 4367.66 3462.86 4381.92 3462.86C4409.66 3462.86 4435.31 3465.74 4458.95 3471.68C4482.44 3477.61 4502.88 3487.47 4519.95 3501.42C4537.42 3515.36 4551.14 3534.04 4561.47 3557.37C4571.57 3580.77 4577.5 3609.87 4578.63 3644.81H4459.12C4458.79 3630.47 4456.55 3618.2 4452.86 3608.11C4449.01 3598.01 4443.8 3589.75 4437.47 3583.42C4431.06 3577.08 4423.68 3572.44 4415.42 3569.55C4407.09 3566.67 4398.35 3565.38 4389.54 3565.38C4382.72 3565.38 4375.91 3566.1 4369.02 3567.55C4361.96 3569.06 4355.63 3571.23 4349.86 3574.36C4344.09 3577.4 4339.28 3581.33 4335.67 3586.14C4331.99 3591.11 4330.06 3596.97 4330.06 3603.86C4330.06 3609.39 4331.83 3614.36 4335.19 3618.85C4338.56 3623.33 4343.93 3627.98 4350.9 3632.47C4358.11 3636.89 4367.49 3641.53 4378.88 3646.34C4390.34 3650.91 4404.21 3656.2 4420.72 3661.89C4454.22 3674 4482.03 3686.1 4504.08 3698.12C4525.8 3709.98 4543.04 3722.49 4555.86 3735.23C4568.6 3748.14 4577.26 3761.61 4581.99 3775.87C4586.96 3790.14 4589.52 3805.45 4589.52 3821.97C4589.52 3850.58 4584.32 3874.87 4574.29 3894.58C4563.88 3914.39 4550.17 3930.18 4532.29 3942.45C4514.5 3954.54 4493.66 3963.21 4469.3 3968.65C4445.32 3973.86 4419.35 3976.59 4391.86 3976.59C4364.29 3976.59 4338.56 3972.9 4314.75 3965.77C4290.7 3958.63 4269.54 3947.25 4251.43 3931.94C4233.15 3916.47 4218.65 3896.59 4207.34 3872.15C4196.28 3847.69 4189.95 3818.2 4187.95 3783.33H4310.67Z" fill="#004B98"/>
<path d="M4657.15 3966.73V3472.48H4779.86V3747.42C4779.86 3769.46 4782.51 3788.06 4788.29 3802.98C4793.73 3818.04 4801.02 3830.23 4810.4 3839.45C4819.38 3848.82 4829.48 3855.48 4840.87 3859.56C4852.17 3863.42 4863.79 3865.58 4875.17 3865.58C4892.56 3865.58 4907.63 3863.09 4920.22 3858.21C4932.8 3853.23 4943.06 3846.42 4950.92 3837.52C4959.01 3828.7 4964.62 3818.12 4968.55 3805.54C4972.24 3793.19 4974.08 3779.49 4974.08 3764.26V3472.48H5095.84V3775.24C5095.84 3802.81 5092.79 3829.02 5086.38 3853.55C5079.97 3878.24 5069.95 3899.72 5056.16 3918.08C5042.14 3936.52 5024.42 3950.95 5002.22 3961.6C4980.41 3972.27 4953.64 3977.64 4922.3 3977.64C4891.92 3977.64 4864.35 3971.63 4839.58 3959.44C4814.73 3947.26 4793.33 3928.5 4775.22 3902.93V3966.73H4657.15Z" fill="#004B98"/>
<path d="M5487.56 3740.19C5474.17 3748.61 5460.79 3754.79 5447.24 3758.55C5433.37 3762.4 5420.79 3765.44 5409.41 3767.85C5395.22 3770.65 5380.95 3773.3 5366.84 3775.87C5352.74 3778.59 5339.99 3781.88 5328.93 3785.72C5317.47 3789.73 5308.49 3794.54 5301.44 3800.48C5294.38 3806.32 5291.02 3814.02 5291.02 3823.39C5291.02 3833.66 5293.18 3842.23 5297.75 3849.29C5302.24 3856.35 5308.09 3862.12 5315.14 3866.44C5322.43 3870.69 5330.29 3873.9 5339.35 3875.74C5348.01 3877.83 5356.98 3878.78 5365.8 3878.78C5374.38 3878.78 5384.64 3877.91 5396.34 3876.06C5407.89 3874.38 5420.71 3871.65 5434.58 3867.8V3962.16C5418.14 3966.73 5402.67 3970.4 5388.65 3972.89C5374.62 3975.3 5360.43 3976.59 5346.72 3976.59C5322.6 3976.59 5299.59 3973.85 5277.95 3968.65C5256.47 3963.2 5237.31 3954.78 5221.12 3943.16C5204.85 3931.45 5191.79 3916.3 5182.32 3897.63C5172.62 3878.95 5167.9 3856.19 5167.9 3829.41C5167.9 3803.28 5173.35 3781.56 5183.85 3764.09C5194.43 3746.77 5209.58 3732.34 5228.98 3720.72C5248.46 3709.18 5272.26 3699.71 5299.75 3692.5C5327.57 3685.13 5358.26 3678.72 5392.33 3672.79C5404.2 3670.54 5415.98 3667.98 5427.52 3665.09C5438.9 3662.05 5449 3658.52 5458.06 3654.35C5466.96 3650.27 5474.17 3645.13 5479.54 3639.6C5484.92 3633.83 5487.56 3627.09 5487.56 3619.56C5487.56 3607.54 5485.24 3597.99 5480.18 3591.26C5475.53 3584.29 5468.8 3579.16 5461.02 3575.63C5453.01 3572.02 5444.11 3569.86 5434.17 3569.06C5424.16 3568.1 5414.3 3567.7 5404.44 3567.7C5390.97 3567.7 5378.79 3568.9 5367.65 3571.22C5356.58 3573.55 5347.04 3577.8 5338.87 3583.97C5330.62 3590.14 5324.04 3598.72 5319.23 3609.46C5314.1 3620.28 5311.13 3634.07 5310.49 3650.9H5185.05C5185.77 3626.61 5189.06 3605.05 5195.15 3586.13C5200.76 3567.38 5208.86 3551.02 5219.12 3536.92C5229.13 3522.97 5241 3511.1 5254.87 3501.56C5268.57 3492.03 5283.64 3484.33 5300.07 3478.4C5316.35 3472.31 5333.98 3468.06 5352.41 3465.58C5371.17 3462.93 5390.49 3461.65 5410.45 3461.65C5426.16 3461.65 5441.95 3462.61 5457.66 3464.62C5473.53 3466.38 5488.6 3469.5 5503.35 3473.75C5507.51 3471.03 5511.2 3467.66 5514.25 3463.65C5517.38 3459.64 5519.78 3455.24 5521.79 3450.66C5523.79 3446.02 5525.15 3441.29 5525.95 3436.56C5526.83 3431.75 5527.31 3427.34 5527.31 3423.09H5651.56C5651.56 3434 5650.03 3444.74 5647.23 3455.48C5644.42 3466.29 5640.33 3476.47 5635.12 3486.34C5629.84 3496.11 5623.26 3504.93 5615.57 3513.11C5607.71 3521.45 5598.9 3528.41 5588.87 3534.19C5595.53 3544.93 5600.66 3556.96 5604.34 3570.18C5607.71 3583.41 5609.47 3598.23 5609.47 3614.75V3966.73H5487.56V3740.19Z" fill="#004B98"/>
<path d="M5793.43 3783.33C5795.43 3813.87 5803.92 3836.39 5818.35 3850.9C5832.7 3865.57 5853.14 3872.95 5879.27 3872.95C5886.32 3872.95 5894.26 3872.15 5902.35 3870.46C5910.54 3868.94 5917.9 3866.37 5924.8 3862.61C5931.53 3858.84 5936.99 3853.71 5941.55 3847.54C5945.88 3841.13 5948.12 3833.11 5948.12 3823.4C5948.12 3816.35 5946.2 3810.18 5942.28 3804.89C5938.83 3799.44 5933.13 3794.24 5925.52 3789.34C5918.07 3784.45 5908.53 3779.56 5897.07 3774.68C5885.61 3769.7 5871.89 3764.17 5856.19 3758.16C5832.54 3749.18 5810.18 3740.04 5789.82 3731.06C5768.97 3722.01 5750.87 3711.75 5735.63 3700.2C5720.32 3688.74 5708.3 3675.44 5699.56 3660.12C5690.82 3644.81 5686.49 3626.46 5686.49 3605.06C5686.49 3587.58 5688.82 3571.95 5693.71 3558.08C5698.52 3544.22 5705.17 3532.12 5713.67 3521.54C5722.32 3511.11 5732.02 3502.13 5743.49 3494.6C5754.95 3487.31 5767.29 3481.14 5780.44 3476.4C5793.74 3471.68 5807.53 3468.23 5821.8 3466.15C5836.06 3463.98 5850.49 3462.86 5864.92 3462.86C5892.34 3462.86 5918.07 3465.74 5941.71 3471.68C5965.2 3477.61 5985.64 3487.47 6002.71 3501.42C6020.18 3515.36 6033.89 3534.04 6044.24 3557.37C6054.57 3580.77 6060.18 3609.87 6061.47 3644.81H5942.03C5941.55 3630.47 5939.3 3618.2 5935.7 3608.11C5931.85 3598.01 5926.64 3589.75 5920.23 3583.42C5913.82 3577.08 5906.44 3572.44 5898.19 3569.55C5889.7 3566.67 5881.19 3565.38 5872.06 3565.38C5865.48 3565.38 5858.59 3566.1 5851.86 3567.55C5844.8 3569.06 5838.47 3571.23 5832.54 3574.36C5826.85 3577.4 5821.88 3581.33 5818.43 3586.14C5814.9 3591.11 5812.9 3596.97 5812.9 3603.86C5812.9 3609.39 5814.59 3614.36 5817.96 3618.85C5821.32 3623.33 5826.61 3627.98 5833.66 3632.47C5840.96 3636.89 5850.1 3641.53 5861.8 3646.34C5873.26 3650.91 5887.05 3656.2 5903.48 3661.89C5936.99 3674 5964.88 3686.1 5986.76 3698.12C6008.8 3709.98 6025.88 3722.49 6038.62 3735.23C6051.45 3748.14 6060.03 3761.61 6064.99 3775.87C6069.8 3790.14 6072.28 3805.45 6072.28 3821.97C6072.28 3850.58 6067.08 3874.87 6057.05 3894.58C6046.72 3914.39 6032.77 3930.18 6015.14 3942.45C5997.34 3954.54 5976.18 3963.21 5952.05 3968.65C5928.09 3973.86 5902.04 3976.59 5874.7 3976.59C5847.13 3976.59 5821.32 3972.9 5797.51 3965.77C5773.55 3958.63 5752.47 3947.25 5734.27 3931.94C5716.07 3916.47 5701.41 3896.59 5690.26 3872.15C5679.12 3847.69 5672.55 3818.2 5670.87 3783.33H5793.43Z" fill="#004B98"/>
<path d="M6237.34 3783.33C6239.18 3813.87 6247.6 3836.39 6262.03 3850.9C6276.69 3865.57 6296.89 3872.95 6323.02 3872.95C6330.07 3872.95 6338.01 3872.15 6346.18 3870.46C6354.2 3868.94 6361.58 3866.37 6368.47 3862.61C6375.28 3858.84 6380.73 3853.71 6385.3 3847.54C6389.63 3841.13 6391.8 3833.11 6391.8 3823.4C6391.8 3816.35 6390.03 3810.18 6386.43 3804.89C6382.58 3799.44 6376.81 3794.24 6369.28 3789.34C6361.74 3784.45 6352.28 3779.56 6340.81 3774.68C6329.44 3769.7 6315.73 3764.17 6299.86 3758.16C6276.37 3749.18 6254.17 3740.04 6233.33 3731.06C6212.64 3722.01 6194.69 3711.75 6179.3 3700.2C6164.08 3688.74 6152.05 3675.44 6143.23 3660.12C6134.58 3644.81 6130.17 3626.46 6130.17 3605.06C6130.17 3587.58 6132.49 3571.95 6137.38 3558.08C6142.19 3544.22 6148.92 3532.12 6157.42 3521.54C6165.83 3511.11 6175.86 3502.13 6187.16 3494.6C6198.62 3487.31 6211.05 3481.14 6224.11 3476.4C6237.49 3471.68 6251.36 3468.23 6265.63 3466.15C6279.82 3463.98 6294.24 3462.86 6308.68 3462.86C6336.01 3462.86 6361.74 3465.74 6385.46 3471.68C6408.95 3477.61 6429.39 3487.47 6446.38 3501.42C6463.94 3515.36 6477.73 3534.04 6487.9 3557.37C6498.32 3580.77 6503.93 3609.87 6505.22 3644.81H6385.87C6385.3 3630.47 6383.22 3618.2 6379.37 3608.11C6375.44 3598.01 6370.32 3589.75 6363.98 3583.42C6357.57 3577.08 6350.11 3572.44 6341.85 3569.55C6333.6 3566.67 6324.95 3565.38 6315.97 3565.38C6309.23 3565.38 6302.42 3566.1 6295.53 3567.55C6288.47 3569.06 6282.14 3571.23 6276.37 3574.36C6270.52 3577.4 6265.71 3581.33 6262.34 3586.14C6258.66 3591.11 6256.81 3596.97 6256.81 3603.86C6256.81 3609.39 6258.41 3614.36 6261.71 3618.85C6265.07 3623.33 6270.36 3627.98 6277.41 3632.47C6284.79 3636.89 6293.92 3641.53 6305.55 3646.34C6317.09 3650.91 6330.8 3656.2 6346.99 3661.89C6380.73 3674 6408.71 3686.1 6430.51 3698.12C6452.55 3709.98 6469.63 3722.49 6482.37 3735.23C6495.11 3748.14 6503.78 3761.61 6508.74 3775.87C6513.55 3790.14 6516.12 3805.45 6516.12 3821.97C6516.12 3850.58 6510.83 3874.87 6500.81 3894.58C6490.39 3914.39 6476.6 3930.18 6458.97 3942.45C6441.09 3954.54 6420.09 3963.21 6395.97 3968.65C6371.84 3973.86 6345.86 3976.59 6318.37 3976.59C6290.96 3976.59 6265.07 3972.9 6241.18 3965.77C6217.21 3958.63 6196.29 3947.25 6178.27 3931.94C6159.91 3916.47 6145.4 3896.59 6133.93 3872.15C6122.79 3847.69 6116.38 3818.2 6114.62 3783.33H6237.34Z" fill="#004B98"/>
<path d="M6914.05 3472.53L6994.52 3749.87L7054.96 3472.53H7187.69L7056 3966.78H6951.32L6868.11 3684.79L6786.2 3966.78H6681.12L6549.73 3472.53H6682.56L6742.6 3752.2L6823.39 3472.53H6914.05Z" fill="#004B98"/>
<path d="M7545.59 3740.19C7532.44 3748.61 7518.82 3754.79 7505.35 3758.55C7491.56 3762.4 7478.9 3765.44 7467.44 3767.85C7453.25 3770.65 7439.14 3773.3 7425.04 3775.87C7410.93 3778.59 7398.26 3781.88 7386.96 3785.72C7375.74 3789.73 7366.52 3794.54 7359.47 3800.48C7352.74 3806.32 7349.05 3814.02 7349.05 3823.39C7349.05 3833.66 7351.37 3842.23 7355.86 3849.29C7360.35 3856.35 7366.04 3862.12 7373.41 3866.44C7380.55 3870.69 7388.56 3873.9 7397.3 3875.74C7406.28 3877.83 7415.01 3878.78 7423.76 3878.78C7432.57 3878.78 7442.59 3877.91 7454.29 3876.06C7465.92 3874.38 7478.74 3871.65 7492.85 3867.8V3962.16C7476.1 3966.73 7460.7 3970.4 7446.84 3972.89C7432.57 3975.3 7418.62 3976.59 7404.68 3976.59C7380.55 3976.59 7357.71 3973.85 7336.3 3968.65C7314.42 3963.2 7295.59 3954.78 7279.32 3943.16C7262.88 3931.45 7249.74 3916.3 7240.44 3897.63C7230.73 3878.95 7226.25 3856.19 7226.25 3829.41C7226.25 3803.28 7231.3 3781.56 7242.04 3764.09C7252.38 3746.77 7267.53 3732.34 7287.09 3720.72C7306.72 3709.18 7330.21 3699.71 7358.02 3692.5C7385.6 3685.13 7416.46 3678.72 7450.29 3672.79C7462.31 3670.54 7474.17 3667.98 7485.63 3665.09C7496.93 3662.05 7507.2 3658.52 7516.01 3654.35C7525.07 3650.27 7532.12 3645.13 7537.42 3639.6C7542.95 3633.83 7545.59 3627.09 7545.59 3619.56C7545.59 3607.54 7543.26 3597.99 7538.37 3591.26C7533.56 3584.29 7527.15 3579.16 7518.98 3575.63C7510.97 3572.02 7502.39 3569.86 7492.21 3569.06C7482.51 3568.1 7472.49 3567.7 7462.31 3567.7C7449.16 3567.7 7436.98 3568.9 7425.83 3571.22C7414.7 3573.55 7405 3577.8 7396.98 3583.97C7388.73 3590.14 7382.31 3598.72 7377.1 3609.46C7372.29 3620.28 7369.33 3634.07 7368.52 3650.9H7243.17C7243.88 3626.61 7247.17 3605.05 7253.18 3586.13C7259.03 3567.38 7266.73 3551.02 7277.23 3536.92C7287.33 3522.97 7299.11 3511.1 7312.82 3501.56C7326.6 3492.03 7341.67 3484.33 7358.19 3478.4C7374.46 3472.31 7392.01 3468.06 7410.45 3465.58C7429.13 3462.93 7448.68 3461.65 7468.56 3461.65C7484.19 3461.65 7500.06 3462.61 7515.85 3464.62C7531.48 3466.38 7546.87 3469.5 7561.22 3473.75C7565.63 3471.03 7569.39 3467.66 7572.36 3463.65C7575.32 3459.64 7577.65 3455.24 7579.74 3450.66C7581.74 3446.02 7583.19 3441.29 7584.06 3436.56C7584.86 3431.75 7585.35 3427.34 7585.35 3423.09H7709.51C7709.51 3434 7708.23 3444.74 7705.26 3455.48C7702.46 3466.29 7698.37 3476.47 7693.08 3486.34C7687.7 3496.11 7681.3 3504.93 7673.68 3513.11C7665.83 3521.45 7656.92 3528.41 7646.91 3534.19C7653.64 3544.93 7658.61 3556.96 7662.21 3570.18C7665.66 3583.41 7667.67 3598.23 7667.67 3614.75V3966.73H7545.59V3740.19Z" fill="#004B98"/>
<path d="M7719.36 3646.02C7719.36 3616.12 7724.65 3589.76 7735.31 3566.9C7746.29 3544.06 7760.56 3524.83 7778.19 3509.2C7796.06 3493.65 7816.1 3481.94 7839.11 3473.77C7862.11 3465.67 7885.6 3461.66 7909.73 3461.66C7935.7 3461.66 7960.15 3465.27 7982.83 3472C8005.51 3478.98 8025.07 3489.23 8041.83 3503.34C8058.42 3517.37 8071.65 3535.09 8081.18 3556.65C8090.56 3578.05 8095.37 3603.38 8095.37 3632.72V3966.73H7972.33V3648.6C7972.33 3620.13 7967.05 3599.53 7956.38 3586.7C7945.72 3574.13 7929.93 3567.64 7909.73 3567.64C7891.37 3567.64 7876.71 3574.2 7865.41 3587.27C7854.18 3600.34 7847.77 3619.81 7845.68 3646.02H7719.36Z" fill="#004B98"/>
<path d="M8182.14 3966.73V3472.48H8304.69V3747.42C8304.69 3769.46 8307.5 3788.06 8313.19 3802.98C8318.8 3818.04 8326.33 3830.23 8335.39 3839.45C8344.3 3848.82 8354.47 3855.48 8365.93 3859.56C8377.24 3863.42 8388.62 3865.58 8400.08 3865.58C8417.64 3865.58 8432.62 3863.09 8445.13 3858.21C8457.8 3853.23 8467.97 3846.42 8475.83 3837.52C8484.01 3828.7 8489.62 3818.12 8493.54 3805.54C8497.3 3793.19 8499 3779.49 8499 3764.26V3472.48H8620.99V3775.24C8620.99 3802.81 8617.86 3829.02 8611.37 3853.55C8604.96 3878.24 8594.94 3899.72 8581.08 3918.08C8567.12 3936.52 8549.25 3950.95 8527.2 3961.6C8505.41 3972.27 8478.47 3977.64 8447.21 3977.64C8416.99 3977.64 8389.42 3971.63 8364.49 3959.44C8339.96 3947.26 8318.32 3928.5 8300.21 3902.93V3966.73H8182.14Z" fill="#004B98"/>
<path d="M8166.32 3402.62L8214.26 3308.6H8614.71V3402.62H8166.32Z" fill="#004B98"/>
<path d="M8825.57 3656.79V3811.42L8894.43 3743.6H8859.4V3667.77H9022.19V3741.28L8806.5 3966.76H8703.02V3666.49C8703.02 3643.97 8705.66 3621.84 8711.43 3600.04C8716.96 3578.32 8726.18 3558.12 8738.85 3539.68C8751.51 3521.33 8768.26 3505.21 8789.1 3491.51C8809.94 3477.96 8835.43 3468.1 8865.65 3461.61L8941.56 3512.35L9018.59 3462.9C9048.01 3469.55 9072.45 3479.64 9092.98 3493.19C9113.17 3506.74 9129.44 3522.61 9141.95 3540.81C9154.54 3558.92 9163.59 3578.71 9169.2 3600.28C9174.82 3621.92 9177.54 3643.97 9177.54 3666.49V3966.76H9054.74V3656.79C9054.74 3643.49 9052.1 3630.58 9046.32 3618C9041.03 3605.5 9031.89 3594.35 9019.87 3584.73L8968.01 3616C8960.23 3620.24 8951.89 3622.65 8942.84 3623.29C8933.94 3623.85 8924.65 3621.53 8914.95 3616L8861.72 3583.29C8849.06 3593.15 8839.84 3604.46 8833.98 3617.44C8828.38 3630.42 8825.57 3643.49 8825.57 3656.79Z" fill="#004B98"/>
<path d="M6165.71 1635.58C6165.71 1878.79 5968.53 2075.9 5725.34 2075.9C5482.23 2075.9 5284.96 1878.79 5284.96 1635.58C5284.96 1392.31 5482.23 1195.2 5725.34 1195.2C5968.53 1195.2 6165.71 1392.31 6165.71 1635.58Z" fill="#FFA500"/>
<path d="M10916.8 1320.95C10916.8 1320.95 10393.5 1338.1 10393.5 1950.03H11178.6C11178.6 1950.03 11702.1 1932.87 11702.1 1320.95H10916.8Z" fill="#004B98"/>
<path d="M12225.3 2830.78C12225.3 2218.78 11702.1 2201.79 11702.1 2201.79H10393.4C10393.4 2813.63 10916.8 2830.78 10916.8 2830.78H12225.3Z" fill="#004B98"/>
<path d="M12225.3 440.314C12225.3 1052.32 11702.1 1069.48 11702.1 1069.48H10393.4C10393.4 457.387 10916.8 440.314 10916.8 440.314H12225.3Z" fill="#004B98"/>
<path d="M1134.64 1320.95C1134.64 1320.95 611.219 1338.1 611.219 1950.03H1396.43C1396.43 1950.03 1919.6 1932.87 1919.6 1320.95H1134.64Z" fill="#004B98"/>
<path d="M2443.16 2830.78C2443.16 2218.78 1919.58 2201.79 1919.58 2201.79H611.195C611.195 2813.63 1134.61 2830.78 1134.61 2830.78H2443.16Z" fill="#004B98"/>
<path d="M2443.16 440.314C2443.16 1052.32 1919.58 1069.48 1919.58 1069.48H611.195C611.195 457.387 1134.61 440.314 1134.61 440.314H2443.16Z" fill="#004B98"/>
<path d="M7070.83 2082.01L6869.72 1941.26C6867.24 1939.65 6864.76 1938.29 6862.11 1937.25C6769.29 1901.98 6680.95 1884.02 6598.71 1884.02C6427.34 1884.02 6341.34 1962.18 6339.49 1963.94L6121.15 2142.13C6010.77 2238.72 5901.12 2285.69 5786.09 2285.69C5734.55 2285.69 5682.29 2276.64 5625.94 2258.12C5468.84 2206.33 5354.37 2099.81 5353.81 2099L4876.17 1635.54L5353.42 1172.22C5354.37 1171.18 5468.11 1064.81 5625.94 1012.95C5682.13 994.352 5734.55 985.37 5786.09 985.37C5901.12 985.37 6010.77 1032.34 6122.1 1129.66L6337.73 1305.6C6341.34 1308.81 6427.34 1387.04 6598.71 1387.04C6680.95 1387.04 6769.29 1369.09 6862.11 1333.9C6864.76 1332.77 6867.24 1331.33 6869.56 1329.81L7070.83 1188.89C7079.81 1182.65 7085.42 1172.62 7085.82 1161.88C7086.06 1150.98 7081.42 1140.4 7072.75 1133.59L6549.42 706.909C6322.42 509.718 6057.58 405.433 5783.85 405.433C5653.76 405.433 5521.98 428.755 5391.97 474.928C5105.89 576.407 4917.04 756.038 4896.61 776.079L4443.65 1215.83L4088.95 871.466C3898.1 682.299 3704.61 550.678 3513.44 480.298C3389.84 434.691 3294.37 425.233 3236.02 425.233C3228.96 425.233 3222.31 425.39 3217.66 425.552L2745.78 425.311C2727.27 425.311 2712.84 439.741 2710.83 458.018C2666.19 847.747 2550.52 884.698 2452.17 1013.59C2444.24 1024.17 2442.79 1038.27 2448.64 1050.06C2454.58 1061.84 2466.84 1069.46 2480.07 1069.46H3234.73C3258.86 1073.23 3404.02 1041.09 3627.49 1263.04L4011.21 1635.54L3629.82 2005.7L3627.49 2008.11C3404.02 2229.9 3258.7 2197.83 3234.73 2201.77H2480.07C2480.07 2201.77 2454.58 2209.15 2448.64 2221.01C2442.79 2232.95 2442.32 2248.74 2452.17 2257.64C2608.55 2398.88 2699.05 2615.22 2710.83 2813.05C2711.79 2831.49 2727.27 2845.92 2745.78 2845.92L3216.29 2845.51C3222.31 2845.67 3228.96 2845.92 3236.02 2845.92C3294.37 2845.92 3389.67 2836.3 3513.44 2790.69C3704.61 2720.23 3898.1 2588.69 4088.63 2399.76L4443.65 2055.24L4896.44 2494.9C4917.04 2515.03 5105.57 2694.58 5391.97 2796.14C5521.98 2842.15 5653.76 2865.63 5784.01 2865.63C6057.66 2865.63 6322.42 2761.35 6548.78 2564.89L7072.75 2137.48C7081.42 2130.67 7086.06 2120.25 7085.82 2109.35C7085.42 2098.44 7079.81 2088.42 7070.83 2082.01Z" fill="#B1B4B3"/>
<path d="M8582.13 1757.51C8364.99 1643.52 8193.21 1443.93 8193.21 1183.66C8193.21 824.714 8482.9 617.344 8790.05 507.611C9120.21 389.776 9452.7 427.696 9744.38 612.534L9880.57 715.301L10145 932.045C10047.3 1000.98 9953.83 1075.45 9836.25 1107.59C9717.61 1139.98 9560.27 1133.64 9460.72 1051.8L9378.39 1001.22C9258.48 927.639 9030.68 897.34 8899.62 957.221C8847.05 981.265 8810.57 1034.4 8810.57 1095.96C8810.57 1173.32 8868.28 1237.13 8942.83 1246.99C8942.83 1246.99 9641.39 1453.31 9755.85 1513.59C9972.99 1627.98 10145 1827.09 10145 2087.44C10145 2446.39 9855.08 2653.75 9548.09 2763.41C9217.77 2881.24 8885.36 2843.41 8593.59 2658.56L8457.48 2555.96L8193.21 2339.05C8290.76 2270.12 8384.38 2195.49 8501.65 2163.51C8620.52 2131.28 8777.63 2137.62 8877.42 2219.3L8959.58 2269.88C9083.9 2332 9307.3 2373.77 9438.67 2313.8C9491.09 2289.92 9527.4 2236.69 9527.4 2175.13C9527.4 2097.87 9469.77 2033.9 9395.15 2024.12C9395.15 2024.12 8694.98 1816.59 8582.13 1757.51Z" fill="#004B98"/>
<path d="M8079.75 440.308C8079.75 683.51 7882.64 880.695 7639.69 880.695C7396.41 880.695 7199.31 683.51 7199.31 440.308C7199.31 197.112 7396.41 -0.000549316 7639.69 -0.000549316C7882.64 -0.000549316 8079.75 197.112 8079.75 440.308Z" fill="#B1B4B3"/>
<path d="M7333.45 994.789V2830.8H7945.93V994.789C7855.43 1047.69 7750.82 1078.15 7639.65 1078.15C7528.39 1078.15 7423.79 1047.69 7333.45 994.789Z" fill="#004B98"/>
</svg>
