<?xml version="1.0" encoding="UTF-8" standalone="no"?>
<!DOCTYPE svg PUBLIC "-//W3C//DTD SVG 1.1//EN" "http://www.w3.org/Graphics/SVG/1.1/DTD/svg11.dtd">
<svg width="100%" height="100%" viewBox="0 0 6948 9174" version="1.1" xmlns="http://www.w3.org/2000/svg" xmlns:xlink="http://www.w3.org/1999/xlink" xml:space="preserve" xmlns:serif="http://www.serif.com/" style="fill-rule:evenodd;clip-rule:evenodd;stroke-linejoin:round;stroke-miterlimit:2;">
    <g transform="matrix(1,0,0,1,-16675,-2638)">
        <g id="Page-1" serif:id="Page 1" transform="matrix(4.166667,0,0,4.166667,0,0)">
            <clipPath id="_clip1">
                <rect x="4002" y="633.12" width="1667.29" height="2201.53"/>
            </clipPath>
            <g clip-path="url(#_clip1)">
                <rect x="0" y="0" width="5669.29" height="2834.65" style="fill:none;"/>
                <g id="Layer-1" serif:id="Layer 1">
                    <g>
                        <clipPath id="_clip2">
                            <rect x="3772.637" y="571.552" width="1896.653" height="2263.098" clip-rule="nonzero"/>
                        </clipPath>
                        <g clip-path="url(#_clip2)">
                            <g opacity="0.45">
                                <g transform="matrix(-0.324808,-0.94578,-0.94578,0.324808,4204.216503,2200.390215)">
                                    <path d="M-532.42,-745.792C-868.857,-630.25 -779.439,-339.177 -779.439,-339.177L-532.42,380.095C-195.938,264.537 -285.371,-26.43 -285.371,-26.43L-532.42,-745.792Z" style="fill:rgb(52,156,213);fill-rule:nonzero;"/>
                                </g>
                            </g>
                            <g opacity="0.15">
                                <g transform="matrix(-0.324808,-0.94578,-0.94578,0.324808,5436.676868,389.611843)">
                                    <path d="M-532.421,-745.792C-868.858,-630.25 -779.44,-339.177 -779.44,-339.177L-532.421,380.095C-195.938,264.537 -285.372,-26.43 -285.372,-26.43L-532.421,-745.792Z" style="fill:rgb(52,156,213);fill-rule:nonzero;"/>
                                </g>
                            </g>
                            <g opacity="0.35">
                                <g transform="matrix(1,0,0,1,4489.5322,2049.0724)">
                                    <path d="M0,-192.773C0,-192.773 -154.208,-187.514 -154.208,0L0,0L0,-192.773Z" style="fill:rgb(52,156,213);fill-rule:nonzero;"/>
                                </g>
                                <g transform="matrix(-0.923245,0.384213,0.384213,0.923245,4797.133092,2026.252722)">
                                    <path d="M40.04,-200.771C40.04,-200.771 190.148,-257.544 262.193,-84.423L40.04,8.027C40.04,8.027 -109.998,64.775 -182.044,-108.349L40.04,-200.771Z" style="fill:rgb(52,156,213);fill-rule:nonzero;"/>
                                </g>
                                <g transform="matrix(0.324731,-0.945806,-0.945806,-0.324731,4985.620402,1988.384009)">
                                    <path d="M-280.697,-200.407C-103.321,-139.507 -150.498,13.937 -150.498,13.937L-280.697,393.155C-458.028,332.271 -410.914,178.858 -410.914,178.858L-280.697,-200.407Z" style="fill:rgb(52,156,213);fill-rule:nonzero;"/>
                                </g>
                                <g transform="matrix(-0.324808,-0.94578,-0.94578,0.324808,4620.97265,1448.649307)">
                                    <path d="M-280.697,-393.189C-458.07,-332.274 -410.928,-178.818 -410.928,-178.818L-280.697,200.39C-103.3,139.467 -150.451,-13.934 -150.451,-13.934L-280.697,-393.189Z" style="fill:rgb(52,156,213);fill-rule:nonzero;"/>
                                </g>
                            </g>
                            <g opacity="0.35">
                                <g transform="matrix(1,0,0,1,5218.6885,2008.1467)">
                                    <path d="M0,-110.986C0,-110.986 -88.784,-107.96 -88.784,0L0,0L0,-110.986Z" style="fill:rgb(52,156,213);fill-rule:nonzero;"/>
                                </g>
                                <g transform="matrix(-0.923244,0.384214,0.384214,0.923244,5395.78528,1995.009046)">
                                    <path d="M23.052,-115.592C23.052,-115.592 109.475,-148.279 150.955,-48.606L23.052,4.622C23.052,4.622 -63.331,37.293 -104.811,-62.381L23.052,-115.592Z" style="fill:rgb(52,156,213);fill-rule:nonzero;"/>
                                </g>
                                <g transform="matrix(0.324729,-0.945807,-0.945807,-0.324729,5504.304688,1973.205499)">
                                    <path d="M-161.608,-115.382C-59.486,-80.32 -86.648,8.024 -86.648,8.024L-161.608,226.354C-263.706,191.301 -236.578,102.975 -236.578,102.975L-161.608,-115.382Z" style="fill:rgb(52,156,213);fill-rule:nonzero;"/>
                                </g>
                                <g transform="matrix(-0.324808,-0.94578,-0.94578,0.324808,5294.363131,1662.459986)">
                                    <path d="M-161.608,-226.374C-263.73,-191.303 -236.587,-102.952 -236.587,-102.952L-161.608,115.372C-59.475,80.297 -86.62,-8.023 -86.62,-8.023L-161.608,-226.374Z" style="fill:rgb(52,156,213);fill-rule:nonzero;"/>
                                </g>
                            </g>
                            <g opacity="0.45">
                                <g transform="matrix(1,0,0,1,5218.6885,2585.305)">
                                    <path d="M0,-110.987C0,-110.987 -88.784,-107.96 -88.784,0L0,0L0,-110.987Z" style="fill:rgb(52,156,213);fill-rule:nonzero;"/>
                                </g>
                                <g transform="matrix(-0.923244,0.384214,0.384214,0.923244,5395.78528,2572.167246)">
                                    <path d="M23.052,-115.592C23.052,-115.592 109.475,-148.279 150.955,-48.606L23.052,4.622C23.052,4.622 -63.331,37.293 -104.811,-62.381L23.052,-115.592Z" style="fill:rgb(52,156,213);fill-rule:nonzero;"/>
                                </g>
                                <g transform="matrix(0.324729,-0.945807,-0.945807,-0.324729,5504.304688,2550.363699)">
                                    <path d="M-161.608,-115.382C-59.486,-80.32 -86.648,8.024 -86.648,8.024L-161.608,226.354C-263.705,191.301 -236.578,102.975 -236.578,102.975L-161.608,-115.382Z" style="fill:rgb(52,156,213);fill-rule:nonzero;"/>
                                </g>
                                <g transform="matrix(-0.324808,-0.94578,-0.94578,0.324808,5294.363131,2239.618186)">
                                    <path d="M-161.608,-226.374C-263.729,-191.303 -236.587,-102.952 -236.587,-102.952L-161.608,115.372C-59.474,80.296 -86.62,-8.023 -86.62,-8.023L-161.608,-226.374Z" style="fill:rgb(52,156,213);fill-rule:nonzero;"/>
                                </g>
                            </g>
                            <g opacity="0.25">
                                <g transform="matrix(1,0,0,1,5218.6885,1430.9895)">
                                    <path d="M0,-110.987C0,-110.987 -88.784,-107.96 -88.784,0L0,0L0,-110.987Z" style="fill:rgb(52,156,213);fill-rule:nonzero;"/>
                                </g>
                                <g transform="matrix(-0.923245,0.384211,0.384211,0.923245,5395.785337,1417.852444)">
                                    <path d="M23.052,-115.593C23.052,-115.593 109.475,-148.28 150.955,-48.605L23.052,4.622C23.052,4.622 -63.331,37.292 -104.811,-62.383L23.052,-115.593Z" style="fill:rgb(52,156,213);fill-rule:nonzero;"/>
                                </g>
                                <g transform="matrix(0.324732,-0.945806,-0.945806,-0.324732,5504.305534,1396.048252)">
                                    <path d="M-161.608,-115.382C-59.485,-80.319 -86.647,8.025 -86.647,8.025L-161.608,226.355C-263.705,191.301 -236.579,102.975 -236.579,102.975L-161.608,-115.382Z" style="fill:rgb(52,156,213);fill-rule:nonzero;"/>
                                </g>
                                <g transform="matrix(-0.324808,-0.94578,-0.94578,0.324808,5294.363131,1085.302286)">
                                    <path d="M-161.608,-226.374C-263.729,-191.303 -236.587,-102.952 -236.587,-102.952L-161.608,115.372C-59.474,80.296 -86.62,-8.023 -86.62,-8.023L-161.608,-226.374Z" style="fill:rgb(52,156,213);fill-rule:nonzero;"/>
                                </g>
                            </g>
                        </g>
                    </g>
                </g>
            </g>
        </g>
    </g>
</svg>
